/* XPM */
static char *b817075ca8d14c63ffbaed73cf0f087cRbdXOkX2TOjDeT0s[] = {
/* columns rows colors chars-per-pixel */
"64 64 55 1 ",
"  c None",
". c gray77",
"X c #C5C4C4",
"o c #C4C5C4",
"O c #C5C5C4",
"+ c #C4C4C5",
"@ c #C5C4C5",
"# c #C4C5C5",
"$ c #C5C5C5",
"% c #DCDCDB",
"& c #DCDBDC",
"* c #DBDCDC",
"= c gainsboro",
"- c #DDDCDC",
"; c #DCDDDC",
": c #DCDCDD",
"> c #DDDCDD",
", c #E2E2E1",
"< c #E2E1E2",
"1 c #E1E2E2",
"2 c #E2E2E2",
"3 c #E3E2E2",
"4 c #E2E2E3",
"5 c #EDEEED",
"6 c #EEEEEE",
"7 c #EFEEEE",
"8 c #EEEFEE",
"9 c #EFEFEE",
"0 c #EEEEEF",
"q c #EFEEEF",
"w c #EEEFEF",
"e c #EFEFEF",
"r c #F3F3F2",
"t c #F3F2F3",
"y c #F2F3F3",
"u c #F3F3F3",
"i c #F3F4F3",
"p c #F4F4F3",
"a c #F3F3F4",
"s c #F3F4F4",
"d c #F6F6F5",
"f c #F6F6F6",
"g c #FAFBFA",
"h c #FBFBFA",
"j c #FBFAFB",
"k c #FAFBFB",
"l c #FBFBFB",
"z c #FDFCFC",
"x c #FCFDFC",
"c c #FDFDFC",
"v c #FCFCFD",
"b c #FDFCFD",
"n c #FCFDFD",
"m c #FDFDFD",
"M c white",
/* pixels */
"@@@@@@@@@@@@@@@@@@@@@@@@@@@@@@@@@@@@@@@@@@@@@@@@@@@@@@@@@@@@@@@%",
"@=============================================================w=",
"@=wwww                                                    wwwlw=",
"@=wluw                                                    2umfw*",
"@=wumu2                                                  2umupw=",
"@=wwimu2                                                2umlwpw=",
"@=  2umu2                                              2umlw  w=",
"@=   2umu2                                            2umlw   w=",
"@=    2umu2                                          2umlw    w=",
"@=     2umu2                                        2umlw     w=",
"@=      2umu2                                      2umlw      w=",
"@=       2umu2                                    2umlw       w=",
"@=        2umu2                                  2umlw        w=",
"@=         2umu2                                2umlw         w=",
"@=          2umu2                              2umlw          w=",
"@=           2umu2                            2umlw           w%",
"@=            2umu2                          2umlw            w=",
"@=             2umu2                        2umlw             w=",
"@=              2umu2                      2umlw              w=",
"@=               2umu2                    2umlw               w=",
"@=                2umu2                  2umlw                w=",
"@=                 2umu2                2umlw                 w=",
"@=                  2umu2              2umlw                  w=",
"@=                   2umu2            2umlw                   w=",
"@=                    2umu2          2umlw                    w=",
"@=                     2umu2        2umlw                     w=",
"@=                      2umu2      2umlw                      w=",
"@=                       2umu2    2umlw                       w=",
"@=                        2umu2  2umlw                        w&",
"@=                         2umu22umuw                         w=",
"@=                          2umuumu2                          w=",
"@=                           2umma2                           w=",
"@=                           2ummu2                           w%",
"@=                          2umlumu2                          w=",
"@=                         2umlw2umu2                         w=",
"@=                        2umlw  2umu2                        w=",
"@=                       2umlw    2umu2                       w=",
"@=                      2umlw      2umu2                      w=",
"@=                     2umlw        2umu2                     w=",
"@=                    2umlw          2umu2                    w=",
"@=                   2umlw            2umu2                   w=",
"@=                  2umlw              2umu2                  w=",
"@=                 2umlw                2umu2                 w=",
"@=                2umlw                  2umu2                w&",
"@=               2umlw                    2umu2               w=",
"@=              2umlw                      2umu2              w=",
"@=             2umlw                        2umu2             w=",
"@=            2umlw                          2umu2            w=",
"@=           2umlw                            2umu2           w*",
"@=          2umlw                              2umu2          w=",
"@=         2umlw                                2umu2         w%",
"@=        2umlw                                  2umu2        w=",
"@=       2umlw                                    2umu2       w=",
"@=      2umlw                                      2umu2      w=",
"@=     2umlw                                        2umu2     w=",
"@=    2umlw                                          2umu2    w=",
"@=   2umlw                                            2umu2   w=",
"@=  2umlw                                              2umu2  w=",
"@=w2umpw                                                2umu2lw*",
"@=wums2                                                  2umulw=",
"@=wmu2                                                    2umlw%",
"@=lfui                                                    llllw=",
"@wwwwwwwwwwwwwwwwwwwwwwwwwwwwwwwwwwwwwwwwwwwwwwwwwwwwwwwwwwwwww=",
"======&===*==================&========&===========%===========%="
};
