/* XPM */
static char *bb_64[] = {
/* columns rows colors chars-per-pixel */
"64 64 233 2 ",
"   c #0D0802",
".  c #150D02",
"X  c #190F03",
"o  c #1C1104",
"O  c #1D1309",
"+  c #171006",
"@  c #231504",
"#  c #2A1604",
"$  c #261905",
"%  c #2B1B05",
"&  c #211709",
"*  c #261A0A",
"=  c #2B1C0A",
"-  c #321D06",
";  c #381C07",
":  c #2E200D",
">  c #332106",
",  c #3C2506",
"<  c #34230B",
"1  c #3A250B",
"2  c #3C290D",
"3  c #3E2807",
"4  c #2D2111",
"5  c #3D2B12",
"6  c #372712",
"7  c #4D1F09",
"8  c #441E09",
"9  c #501F0A",
"0  c #412706",
"q  c #442A06",
"w  c #492D06",
"e  c #4C210B",
"r  c #442C0B",
"t  c #4B2D0A",
"y  c #44200E",
"u  c #54220C",
"i  c #5C250E",
"p  c #582B0E",
"a  c #4E3006",
"s  c #4E310C",
"d  c #47310F",
"f  c #54350A",
"g  c #5C3A0C",
"h  c #57350B",
"j  c #432E12",
"k  c #4B2E13",
"l  c #592C14",
"z  c #453114",
"x  c #4B3414",
"c  c #4A351A",
"v  c #49371C",
"b  c #543414",
"n  c #553915",
"m  c #5C3D14",
"M  c #543C1C",
"N  c #5B3D1A",
"B  c #593418",
"V  c #63290F",
"C  c #60270E",
"Z  c #623F0E",
"A  c #652C12",
"S  c #6A2D13",
"D  c #663B15",
"F  c #643A1C",
"G  c #6A3616",
"H  c #723216",
"J  c #753619",
"K  c #7B3A1D",
"L  c #753A1B",
"P  c #732C15",
"I  c #563B21",
"U  c #4E3A20",
"Y  c #7F3A20",
"T  c #683D21",
"R  c #5D421D",
"E  c #5F400B",
"W  c #64410E",
"Q  c #6A450E",
"!  c #6A4314",
"~  c #63441C",
"^  c #6B461B",
"/  c #6C491C",
"(  c #674413",
")  c #734C1B",
"_  c #774A16",
"`  c #7B541D",
"'  c #795115",
"]  c #5C4523",
"[  c #5A4527",
"{  c #5A493A",
"}  c #614622",
"|  c #644924",
" . c #6C4D23",
".. c #644D2B",
"X. c #6A4E29",
"o. c #6D4124",
"O. c #724D22",
"+. c #764724",
"@. c #6D522C",
"#. c #6B502A",
"$. c #745225",
"%. c #7A5524",
"&. c #73552C",
"*. c #76582E",
"=. c #7C5B2C",
"-. c #7C5728",
";. c #664D36",
":. c #6D5532",
">. c #6C5635",
",. c #715731",
"<. c #755A34",
"1. c #7A5D34",
"2. c #755D3A",
"3. c #7A5F39",
"4. c #755436",
"5. c #78483E",
"6. c #7D6136",
"7. c #7D623A",
"8. c #7C6441",
"9. c #786549",
"0. c #7A6F5E",
"q. c #615248",
"w. c #85381D",
"e. c #832F1A",
"r. c #843C22",
"t. c #883A27",
"y. c #933727",
"u. c #835A15",
"i. c #884B1D",
"p. c #886115",
"a. c #976B13",
"s. c #9D7214",
"d. c #A57914",
"f. c #8B4425",
"g. c #8D4A29",
"h. c #864524",
"j. c #92492A",
"k. c #835B25",
"l. c #835E2B",
"z. c #865428",
"x. c #8F5934",
"c. c #84612E",
"v. c #8C632C",
"b. c #8B6424",
"n. c #91672B",
"m. c #846333",
"M. c #8A6533",
"N. c #8D6935",
"B. c #82653C",
"V. c #85683E",
"C. c #8B6A3C",
"Z. c #8A653A",
"A. c #936B34",
"S. c #996E33",
"D. c #936E3B",
"F. c #946235",
"G. c #9B7135",
"H. c #96713C",
"J. c #9B743C",
"K. c #9B793F",
"L. c #A2793D",
"P. c #A07638",
"I. c #A14823",
"U. c #826741",
"Y. c #856A42",
"T. c #8A6D43",
"R. c #8C7045",
"E. c #8C724A",
"W. c #87704D",
"Q. c #937343",
"!. c #9A7643",
"~. c #9C7945",
"^. c #937449",
"/. c #9C7B4A",
"(. c #96774D",
"). c #897453",
"_. c #957C55",
"`. c #977D56",
"'. c #916E42",
"]. c #A37C43",
"[. c #A87F42",
"{. c #A27E4B",
"}. c #AD8316",
"|. c #B18719",
" X c #A9803E",
".X c #9B8259",
"XX c #AB8243",
"oX c #A4814C",
"OX c #AB844A",
"+X c #AB854A",
"@X c #B1894B",
"#X c #A48453",
"$X c #AC8A55",
"%X c #AC8D5B",
"&X c #A5875A",
"*X c #B38D53",
"=X c #B08F59",
"-X c #AF905C",
";X c #B79156",
":X c #B2925D",
">X c #BA9559",
",X c #B99457",
"<X c #9C8763",
"1X c #A38E6A",
"2X c #A68D64",
"3X c #AD9267",
"4X c #B39564",
"5X c #BA9A64",
"6X c #B6996B",
"7X c #BB9D6C",
"8X c #B69867",
"9X c #A99673",
"0X c #BA9E72",
"qX c #B49D74",
"wX c #BEA06E",
"eX c #BDA174",
"rX c #BFA479",
"tX c #B7A078",
"yX c #C09A5E",
"uX c #C29C63",
"iX c #C3A26C",
"pX c #C3A574",
"aX c #C1A67B",
"sX c #C5A97D",
"dX c #C8AC7C",
"fX c #C5A877",
"gX c #C5AB81",
"hX c #C9AE83",
"jX c #CCB186",
"kX c #CEB38A",
"lX c #D1B68D",
"zX c #D3B88E",
"xX c #D4B991",
/* pixels */
"T.T.E.R.T.T.R.T.T.T.T.T.Y.T.T.T.Y.T.Y.U.Y.Y.T.T.U.Y.Y.Y.Y.Y.U.U.U.U.U.U.U.8.8.7.3.>.[ v v I X.:.<.@.] j : > @ O O O + .         ",
"Y.Y.Y.Y.Y.Y.Y.Y.U.U.Y.Y.Y.Y.Y.U.U.U.U.V.V.U.U.U.U.U.U.U.U.U.B.7.3.3.3.3.3.2.2.2.,.X.N z x ] X.@.&.X.] j : O O $ $ O +         . ",
"T.T.R.R.T.T.T.D.T.R.R.T.T.Y.T.T.D.T.Y.T.D.Y.Y.Y.T.Y.Y.U.V.B.B.1.7.B.m.m.3.3.3.m.,.} n f n ~ X.*.<.@.] 5 : : : : O X       + = 4 ",
"5X5XuX5X5X5X5X5X5X>X>X,X,X;X;X,X;X;X;X*X*X*X*X@X@X*X=X*X*XOXOXOXOX{.{.{.{.~.].~.~.S.v.c.l.=.-.=.*.*.&.] c 6 * & O X .   + O O O ",
";X,X>XuXuXuXuXyX>X>X,X,X,X;X@X@X@X@XOXOXOXOXXX{.{.].].~.K.J.D.D.A.N.N.N.M.M.M.l.l.k.-.%.)  . .$.*.*.&.} c < @ o + O +   + O O O ",
"A.G.].XXOXOXOXXXXX].].].].L.S.n.M.M.n.n.v.c.l.c.l.z.z.k.-.) ) _ _ _ / / ! D D G D N m g f f m  .&.&.#.R z < = @ + O O O O : * O ",
"` k.n.G.].].].L.L.J.D.H.G.S.g.h.G ^ ) ) ^ L L G F G D G G G D ( D G V V p p l p p p u q , r b } &.&.} M c 6 $ o O O O O * 4 4 O ",
"%.%.k.n.S.S.S.A.A.Z.M.M.F.x.g.Y H J K Y K J G S A V V V A A S V i u u u e 7 7 u 7 8 , % - ; r n  . .R R M 2 = o o O O O O O O O ",
"_ _ z.u.u._ _ _ ^ ^ / / %.z.h.K H H H H H A A S A A A A V i u 9 u 9 u u u 9 u u u ; % @ @ * > j ] #.] R R 5 = $ O O + X . . + O ",
"_ _ _ u.a.u.Z a t t h g G K K K H H L J L H A S S H H H S A A A S P S V A u u u u 7 - @ o o $ 1 ~ $.#.| M 6 $ $ * o o o . X + O ",
"u.p.a.s.d.a.p.u.` h.f.j.g.h.K J J J K w.K K w.K K K J J H H H H H S C u u 7 u i i 7 # o . . X 4 [ *.@.] z 4 O & & o o o o O O O ",
"a.s.d.d.d.d.a.i.f.f.j.x.x.j.j.j.h.K K J J S A A A S A A A A C i u 9 u u i A A S i 8 # X . . X = ] $.#.M < & o @ @ O O O + + + O ",
"s.d.d.s.p.' Q i.g.j.f.g.j.j.f.w.J H H H S V V A A A A A i i i C V S J Y t.r.J u ; # o . . . . < ~ &.] z $ @ o $ $ o o o . . . . ",
"l.n.a.u.W E ! h.g.j.j.j.j.r.w.K J H H H H H P S S A S S H J K K r.y.f.f.t.J S e # X X . . . . - ] &.[ 5 $ $ $ O O + . o + .     ",
"'.D.S.b.z.i.i.f.f.f.f.f.f.f.h.w.K K J J K K J J J J K Y h.r.r.r.r.t.r.Y K J G k y = * . . . . = [ <.,.R : $ $ o o . . + . . . . ",
"F.F.A.x.-.m a B G L K K K K L H H S A i u 7 8 y 8 7 u u u p p u u 9 7 k I M I ..;.v < X . . . * ] 6.7.[ < $ o o o o o o o o o o ",
"i.%. .~ M 1 % < > > % % - ; , 1 - # $ $ @ - - # $ * 4 6 < = > < : : 4 I 8.7.2.7.;.z * X . . . = R 6.H.*.z : $ o & @ $ % @ + o o ",
"m.O.c 5 < : * $ $ : @ @ # % = > $ $ @ o @ * < 6 5 z z 2 > % % $ $ = 6 [ 8.Y.9.8.[ 4 X . . X . = v <.H.1.R 2 $ $ $ o @ = @ O o O ",
"R.<.z 6 6 4 : $ o o o $ @ @ # $ @ o @ @ $ < 5 v v 5 1 - % # $ @ o o # 2 U ;.2.>.[ 4 o . . X . $ v *.H.C.] 2 % @ @ o @ $ @ o + + ",
"~.C.] v 5 6 < = : o $ o @ @ $ $ $ $ - 1 j M X.<.7.7.<.| n r - @ o + + + O : 5 I U 4 O . . X . $ v *.Q.C. .r % @ $ $ $ @ @ o + . ",
"}.}.}.s.p.! f > : $ $ $ $ $ $ $ % < c #.V./.&X%X3X8X:X/.l.R 0 % o X X X . . + $ * O + . . . . @ z @.Q.C.&.x = % $ $ $ $ o o o o ",
"}.}.}.}.|.d.a.Q 3 > $ $ $ $ $ > , M *.^.$X%X-X%X%X$X{.Q.*.R 0 % @ X o o o . X . + . X + o o X $ z @.H.K.M.| z 1 > > > % $ + o o ",
"s.s.s.d.s.}.s.p.E 3 > $ $ $ > 5 ] 6./.oX#X$X%X#X~.D.l.$.R x ; # $ * > = @ o + X + o % < 6 < = : z #.K.L.H.v./ s , 3 3 , % o + o ",
"}.}.s.s.a.a.p.p.Q E 3 : : 2 x #.Q.$X:X5X7X5X*X.XY.*.] f r < @ @ < , 1 $ o o @ @ % 1 M <.2.<...T R &.K.].H.%.( g a a 0 % @ X X . ",
"' p.' ' ' ' b. X.X7.>.[ z z ..C.%XwXwXeXrXwXwX%XQ.6.R 3 % @ @ # < ; # @ + o o @ < ~ B..X#X^.F.x.B.D.XXJ.v.) W E g w > o o + + . ",
"3 2 1 3 v 8..X3X<X.X.X.X2.| 7.$X:XiXfXdXiXwX:X:X#XV.#.f , % % % % = - % @ o o @ d  .M./.(.Q.^.'.Z.D.~.A.k./ W g a > @ o o o X . ",
">...[ 7..X1X9X1X<X.X.X.X7.#.7.#XwXfXdXfXwXwX4X:X.XH.&.R d q d x w , = $ @ @ @ # > d R -.*.<.1.B.Z.D.H.c./ W g a 3 % @ o + o o o ",
"1X1X1X9X9X9X9X1X.X.X.X2.2.>.<.oX:XpXdXfXfXwXwX:X=XoXC...R n R ~ / m x < @ % % % = > 1 2 t n &.V.!.H.b.) ( W E r > o o o o o o o ",
"1X1X9X9X9X9X9X<X<X<X0.7.>.>.<.C.*XwXeXrXrXeXwX>X;X#XH.6.| R /  .$.-.*.X.N j < : = < > < 0 s ~ $.l.z.%.) ( W f , @ o o o o o X X ",
"W.W.W..X1X9X9X9X1X<X.X9...[ ,.C.*XwXwXeXeXwXwX4X=X#XoXoXC.=.$.&.l.m.Z.m.l.&.X.,.2.<.:.@...[ ..| X.=.=.%.( h r : @ @ o o o o X . ",
".XW.9.9.W.<X1X<X<X<X9.2...[ #.6.#X6XwXwXwXwXwX5XwX:X-X.XoXC.7.&.&.&.1.1.*.*.B.2XtXaXaXtX9X2X`._.^.Q.H.k.W a 3 % $ $ @ o o o o o ",
".X.X.X9.9.7.9..X.X9.2.2...[ ..1.oX-XwXwXwXwX8XwXwX5XwX%X&XoXR.6.| N M n ~ X.V.3XgXjXlXlXlXhXsXtX3X%XoXM./ f q % $ % @ o X o o o ",
"[ ..<.2.>.M 6 M ..<.2.>.;...X.*.^.$X%X:X4X4X5X4X4X:X$X#X#X&X/.T.4.} N M ] @.Y.3XhXlXxXxXxXlXjXgXtX6X#XC./ m r > % $ @ o o o o o ",
"z z k x v 5 = % 4 v [ @.X.| } X.B.!.`.%X:X7X7X7X4X`.^.C.!.{.{.~.Z.&.+.4.T.(.2XrXjXxXxXxXxXxXjXgXaX6X%XH./ N d : & $ @ o o o o o ",
"K L G b j < % $ $ % 2 ] ] [ [ X.^.2XeXsXsXaXpX0X3X/.Z.M.'.!././.^.^.(.&X8X3X&X6XgXkXxXzXxXlXjXgXrX6X-XH.` E r > $ o o o o + X . ",
"I.j.f.K A t 1 = = $ % = 5 M B.2XpXhXhXhXhXsXeX2X~.Z.m.B.U.Y.m.m.B.(.8X0X3XE.7..XqXhXkXkXkXjXgXrXeX7X-X~.-./ h 3 > $ @ o o + X . ",
"g.h.r.Y Y l t d j 1 > = 1 [ `.0XaX6X:X8XpXpX8XoXZ.=.&.=./ m b M @.(.0X0X`.8.8.&XaXkXzXzXkXjXsXrXeX7X:XK.&./ E x 3 % % $ @ o $ $ ",
"2.;.I k 7 7 e b n M 2 - j ...XpXaX6X{.$X:X5X3X!.m.@.} T R c M ..W.1X0X9X.X.X2XtXjXxXzXjXjXgXrXrXeX7X:X~.=./ E g h a w q > % > > ",
"{ { { I 7 8 ; - ; , < = 2 ] ^.0XaXgX0X6X4X%X#XQ.m.#.| | #.7.^.&X6X0XqXqXqXqXaXjXxXxXkXkXhXgXaXrXeX7X-X^.=.Q W E g g h a 3 > > , ",
").).).5.B 8 - % @ @ % % < v 7.&X8X0X0X6X3X$X#X#X#X`..X%X8XrXsXsXgXgXgXkXkXkXjXlXzXzXkXhXgXsXaXtX6X8X-X~.=.) W W W g f a , % % % ",
"0.0.).x.t.P u ; # @ # # # ; ] 7.{.3X6X4X:X%X8X6XtXwXwXfXdXhXhXhXjXlXlXlXlXlXlXjXjXjXjXdXgXgXrXeX8X-X-X/.m.) W g g g h a w , > % ",
"q.q.5.t.y.y.P u 8 % & @ @ # < c ,.^.#X4X8X7X7XeXwXeXeXdXjXjXhXjXlXxXzXlXjXkXlXlXlXlXlXkXhXgXrXtX8X-X-XoXC.) W g h g E E R R c x ",
"q.;.t.y.y.e.P 9 ; # @ $ @ @ # - 1 M 1.T.#X4X7XwXwXeXrXjXhXhXhXjXlXzXzXlXjXjXjXkXlXlXlXjXjXgXrXeX3X$X+X~.D.` Z g a a h W /  .#.X.",
"4.5.T S u l I 6 % @ @ $ # # # % % = < x ] 1.T./.%XwXeXrXdXdXdXdXdXdXdXdXhXhXdXdXdXdXdXsXpXtX6X4X#X/.Q.K.H.` W W W h f h a a w w ",
"m b , < 6 I ;.| v < $ $ @ @ $ $ % % % % > t m ( @.V..X4X7XwXwXeX0XpXpXpXpXpXpXpXpXwX7X5X4X-X#X/.m.%.%.N.P.k.Q Z E g f f a a a a ",
"x d j M ;.4.3.3.<.@.[ c d 1 % $ $ % % % % , 3 1 q d / m.!..X$X-X5X5X7X7X7X7X5X5X4X:X%X#XoX/.V.&.R R / v.G.k.Q g g f f f f a a a ",
"2 j ] @.U.3.4.7.Y.).E.B.@.R 6 % $ % % % % - > 3 d R ,.H.R.V.@.@.Z.!./.oX{.oXoX{.].K.D.M.-./ R x r d R =.J.k.! D g f a a a a a a ",
"k d x } *.m.T.E.E.T.7.@.] M x x q 3 1 1 , q a R / &.=.=.=.#.R ( $.l.v.M.M.N.N.N.N.M.v.k.-.` ' ) / / %.D.L.n.' Q g h a a a a w q ",
"$.$.%.%.-.l.c.n.A.M.c.k.c.l.k.k.c.c.b.k.%.k.b.v.n.S.G.S.S.S.S.G.G.K.P.L.XX].].XX]. X XXX X XP.J.G.J.P.XX@XD.` ! Q g h a a w q q ",
"A.G.P.P.L. XXX@X@X@X@X@X@X@XXXXXXX XJ.G.S.S.G.H.G.P.G.G.G.G.H.G.G.G.G.H.S.S.S.D.S.S.H.G.G.J.G.S.n.b.n.].$XK.k.' Q Q g a w , , , ",
"].XXXX[. X].~.].~.K.!.Q.H.H.J.H.N.N.N.M.N.N.M.N.M.M.M.M.m.V.m.c.B.=.=.-.&.1.6.<.1.m.M.c.=.c.N.H.C.=.%.H.@X~.n.' Q W g h a w q 3 ",
"Y.B.m.B.B.Z.B.m.6.=.=.3.<.,.=.*.*.*.*.*.&.&.*.6.6.B.6.6.7.7.6.6.<.=.*.*.*.*.<.<.1.c.c.M.m.M.N.K.#X#X!..X=X+XH.%.) E h a w 0 , , ",
"7.7.7.7.6.6.6.3.1.3.3.<.<.<.<.*.,.,.,.,.,.*.*.6.6.6.6.6.6.6.<.<.*.=.<.*.,.<.7.7.6.c.M.M.M.M.N.!.#X8XwXwX4XoXS.b.` ! D g a q , , ",
"B.7.7.7.7.7.7.3.1.1.1.3.6.<.<.*.*.*.*.,.<.<.6.7.B.V.V.6.6.6.6.6.<.<.<.<.<.2.2.7.7.B.B.N.M.m.m.C.#X8XwXeX7XoXN.k.` / W g a q ; ; ",
"8.8.7.7.7.7.7.3.3.3.6.3.3.1.6.6.6.6.<.<.6.6.6.6.7.C.7.7.6.<.<.<.6.6.7.<.*.@.>.2.7.Z.M.M.c.=.=.c.Q.#X7XpXpX5X$XD.=.$.^ m g f a t ",
"Y.U.U.U.Y.B.7.6.6.3.6.6.1.3.6.<.,.,.@.@.*.*.,.6.7.7.7.7.6.6.6.6.,.,.&.@.#.>.>.2.7.B.c.=.c.c.=.=.=.C.#X5XiXiXiX;XK.l.$.) ^ ^ ~ ~ ",
"U.U.U.U.Y.B.7.B.B.3.3.3.1.1.,.:.#.#.@.@.@.@.,.7.7.7.7.7.1.3.<.,.@.&.@.:.:.>.>.7.7.C.C.M.M.m.=.=.-.-.M.#X7XiXiXuX;XoXA.k.$.) O.^ ",
"7.7.7.7.7.7.6.1.3.<.<.<.3.2.,.:.@.@.@.*.*.,.>.7.7.7.7.7.3.<.<.<.,.,.,.,.,.,.<.7.7.M.M.N.N.M.=.=.&.&.&.m.{.;XiXiXuXyX@XJ.l.$.O.O.",
"2.,.:.@.&.<.3.3.1.<.1.3.1.1.<.<.6.6.6.7.7.7.7.7.7.7.7.7.7.3.3.3.7.2.<.,.<.<.2.7.B.V.C.C.C.M.6.=.%.$.$.O.-.!.*X>X>X>X,X;X].A.-.` ",
"X.| N I B I | @.<.3.3.3.3.3.3.7.6.6.7.7.7.V.V.V.V.Y.V.V.V.B.B.7.7.7.7.7.2.2.2.8.B.C.C.N.M.m.=.=.$.$. . .~ %.N.oX*X,X,X,X;X$XH.M.",
"+.+.T B b b N F X.<.1.B.B.B.7.B.V.V.7.7.Y.Y.V.V.V.Y.Y.T.Y.Y.B.B.6.6.6.3.<.<.<.7.7.M.m.M.m.m.m.1.#./ ^ / / ~ / =.H.OX@X,X,X,X*X*X",
"o.T B B B B B b N ..&.3.3.3.B.U.8.7.C.T.Y.Y.T.Y.T.T.T.T.T.T.Y.U.7.6.3.<.<.:.,.2.6.m.=.=.-.=.=.*.%.#. . . . .~ / %.S.L.@X*X*X*X*X",
"T I b B F l p B B b | 1.7.7.B.U.Y.Y.T.T.R.R.R.T.R.R.T.T.Y.Y.Y.B.7.7.3.<.:.>.<.7.6.m.=.=.-.-.-.$.O.X./ / / ~ ~ D ! ) v.K.@X@X*X*X",
"F B B F T G D B B n R :.1.7.V.Y.T.T.E.E.R.R.E.E.E.E.E.R.T.Y.Y.Y.7.7.<.,.@.>.<.7.V.6.=.=.*.*.$.$.) /  ./ ( R R ~ F m ~ -.H.OXOXOX"
};
