/* XPM */
static char *fi_linus_64[] = {
/* columns rows colors chars-per-pixel */
"64 64 212 2 ",
"   c #0E1316",
".  c #141619",
"X  c #16191B",
"o  c #1A1D1E",
"O  c #101417",
"+  c #1D201F",
"@  c #28201E",
"#  c #1B1F22",
"$  c #171D2B",
"%  c #1E1F31",
"&  c #201F33",
"*  c #1E2122",
"=  c #1B232D",
"-  c #18242B",
";  c #1B2B34",
":  c #1D333B",
">  c #222425",
",  c #26292B",
"<  c #2A2C2C",
"1  c #282626",
"2  c #322724",
"3  c #352A26",
"4  c #3A2D29",
"5  c #3A2B27",
"6  c #2E302F",
"7  c #3C312D",
"8  c #35312E",
"9  c #232236",
"0  c #2B2E30",
"q  c #252639",
"w  c #292A3C",
"e  c #252C34",
"r  c #2E3132",
"t  c #2B343A",
"y  c #24343B",
"u  c #323434",
"i  c #373937",
"p  c #3C3936",
"a  c #35393A",
"s  c #3B3D3B",
"d  c #373636",
"f  c #261F1D",
"g  c #422F2A",
"h  c #44322D",
"j  c #49362F",
"k  c #433631",
"l  c #4C3B34",
"z  c #433D3A",
"x  c #493E38",
"c  c #473832",
"v  c #533D35",
"b  c #563B35",
"n  c #3E403E",
"m  c #43413E",
"M  c #4D423C",
"N  c #54433B",
"B  c #5B443C",
"V  c #5A483F",
"C  c #62453E",
"Z  c #60483F",
"A  c #1E3840",
"S  c #2D2C40",
"D  c #2A3841",
"F  c #373B44",
"G  c #3C3C58",
"H  c #3D4144",
"J  c #3D434B",
"K  c #39454A",
"L  c #3A4B59",
"P  c #444543",
"I  c #4A4643",
"U  c #464846",
"Y  c #4B4946",
"T  c #42464B",
"R  c #45494C",
"E  c #4C4D4B",
"W  c #544943",
"Q  c #5B4B43",
"!  c #514E4A",
"~  c #514740",
"^  c #4E504E",
"/  c #53514E",
"(  c #5C534C",
")  c #464A52",
"_  c #4A4E53",
"`  c #464856",
"'  c #4D5154",
"]  c #4E535A",
"[  c #46535A",
"{  c #545453",
"}  c #5A5652",
"|  c #5B5956",
" . c #52555B",
".. c #56595D",
"X. c #5C5C5B",
"o. c #565857",
"O. c #634C44",
"+. c #6A4D45",
"@. c #654740",
"#. c #704F47",
"$. c #655147",
"%. c #64544A",
"&. c #6A544A",
"*. c #6A564D",
"=. c #72534B",
"-. c #71584F",
";. c #635B54",
":. c #6B5C53",
">. c #615E5A",
",. c #615750",
"<. c #735D53",
"1. c #7C5B52",
"2. c #5F605E",
"3. c #63625E",
"4. c #6B645D",
"5. c #6A6057",
"6. c #746156",
"7. c #74645B",
"8. c #7B655B",
"9. c #7C695E",
"0. c #79645A",
"q. c #575A61",
"w. c #5A5D62",
"e. c #44596A",
"r. c #5E6164",
"t. c #5C636A",
"y. c #4A6473",
"u. c #646463",
"i. c #6A6762",
"p. c #676866",
"a. c #6A6A65",
"s. c #61666A",
"d. c #64696C",
"f. c #6C6D6A",
"g. c #736B64",
"h. c #7B6D63",
"j. c #716F69",
"k. c #6E706E",
"l. c #7C7067",
"z. c #74726D",
"x. c #7C746B",
"c. c #7E786F",
"v. c #6A6E70",
"b. c #6E7274",
"n. c #747472",
"m. c #797671",
"M. c #7D7A74",
"N. c #7D7D7A",
"B. c #757879",
"V. c #825E56",
"C. c #84645B",
"Z. c #81685E",
"A. c #89675E",
"S. c #826D62",
"D. c #8A6C63",
"F. c #847166",
"G. c #84766B",
"H. c #8B756A",
"J. c #85786E",
"K. c #8A7A6E",
"L. c #8A7167",
"P. c #91776C",
"I. c #837B73",
"U. c #8B7D73",
"Y. c #827F79",
"T. c #807770",
"R. c #927D72",
"E. c #8C8076",
"W. c #84827C",
"Q. c #8B847C",
"!. c #938176",
"~. c #93867B",
"^. c #99867A",
"/. c #94897E",
"(. c #9B8A7D",
"). c #998276",
"_. c #537D88",
"`. c #4F7482",
"'. c #7F7F80",
"]. c #7C8789",
"[. c #55848F",
"{. c #848482",
"}. c #8A8781",
"|. c #8C8984",
" X c #8D8C8A",
".X c #868C8B",
"XX c #948C82",
"oX c #9B8E82",
"OX c #918F8B",
"+X c #9C9186",
"@X c #93918D",
"#X c #9C948A",
"$X c #969491",
"%X c #9C9994",
"&X c #9E9D99",
"*X c #9A9792",
"=X c #A0958A",
"-X c #A29D95",
";X c #A19F99",
":X c #A7A39C",
">X c #A4A5A1",
",X c #ACAEAC",
"<X c #A9A8A3",
"1X c #AFB1AE",
"2X c #B8B9B6",
"3X c #B1B2AF",
"4X c #9BA2A1",
"5X c #C0C1BC",
"6X c #C6C7C2",
"7X c #C7C8C3",
"8X c #C9CAC5",
"9X c #CCCDC8",
/* pixels */
"N.M.W.|.}.XXXX/.XX-X:XW.` G G G y.[.e.X X O X + X X + X + + * > + + + > < n n u n n n < + + n n n n j.E.c.W.Y.W.W.W.W.W.B.2X6X6X",
"M.N.N.Q.Q.XXXXXXXX-X:XOXq.G G e.y.[.L X X X X X + + + + + + * * + + + , < u n u n n n , + + n n n m z.E.c.E.Y.Y.Q.W.W.].b.2X6X6X",
"z.N.M.J.R.U.XX|./.#X;X-X'.` G `.[.y.: + X X X + + + + - * * * * + + + , < 6 < 6 6 n n < > + 6 n n 2.E.c.c.E.M.Y.W.W./.N.v.2X8X7X",
"a.M.c.G.U.E./.Q.E.oX#X:X$Xw.y._.[.y.; . O X X + + + + + * * * * + * + < , 6 6 < 6 n n n > + 6 n 2.x.c.c.Y.W.c.M.W.W..XN.d.3X8X7X",
"3.m.I.l.U.~.Q.Y.T.XXoX-X4X'._._._.K + . O . . . X + * + * * * * * + + > 1 < 6 6 n n n n > + n n M.Q.x.c.Y.W.c.c.W.W.|.B.d.1X6X7X",
"o.f.I.x.M.XX/.T.h.H.XX=X>X$X]._.e.e + . O . + + + + > + , < * , < < , < n u n n m E { n < + n v.%X~.x.c.I.Y.c.Y.W.W..Xv.d.1X6X6X",
"_ u.B.M.m.|.XXG.1.D.~.@X;X<X$X`.K + + + + . + * + , < , < 0 < < < u 6 n n n m m E / 2.K , n E ].<XE.z.x.c.Y.c.W.Q.W.{.t.d.1X6X6X",
"J  .v.I.G.U.XXK.L.D.R.XX=X>X&Xt.u , , - * + * > < u n < r n n r < n n n m E } } 2.2.2.U - n j.>X%Xc.x.c.E.c.c.W.W.W.W.y.t.,X6X7X",
"F ` s.N.I.T.XXU.P.P.R.XX+X-X-Xr.6 6 < , > + > 6 u u n u 6 n n n u n n E E o.2.r.a.k.p.{ t n Q.<X/.x.x.x.E.c.N.Q.W.W.Y.[ d.,X6X8X",
"S F ..m.Y.x.U.~.R.XX XXXoX*X-Xa.6 < 6 y < , > < u u 6 6 y t n n n U n 2.2.2.a.k.N.W.M.2.n K *X%XW.z.l.x.G.E.W.Q.W..XY. .r.1X6X6X",
"S F ' v.Y.m.K.R.P.XX@XoXXXoX=Xz.n n u n i u 6 n n n n n n K ^ ^ o.o. .f.n.Y.W.Y.Q.@X*XY.^ ^ *XQ.x.j.h.x.J.E.M.M.W.{.B.[ t.1X6X6X",
"S S F w.N.T.G.U.D.R.@X#XXXXX*XT.K K U K U U n ^ { o.2.2.o.2.2.p.p.f.n.Y.|.%X;X@X(.-X,X*X3.2. XI.l.l.l.l.E.E.4.a.W.{.d.L t.3X8X6X",
"q S S ' j.Y.I.G.D.P.XX+XOXXXoXJ.2.2.o.2.o.2.{ 2.2.p.a.a.3.k.n.n.B.M.W.OX%X:X:X/.~.+X:X#XM.c./.M.J.l.l.J.E.l./ o.N..Xt.[ d.1X7X8X",
"& S w T r.Y.Y.h.H.D.~.oXXXXXXXU.p.p.p.3.p.a.p.p.p.z.n.z.n.M.Y.W.N.W.@X$X;X>X(.E.~.(.-X(./.Q.Q.Q.E.x.l.E.E.g.Y ^ N.OXt.[ d.,X7X9X",
"q q & F { n.Y.i.J.R.XXXXR.XXXXY.f.p.a.p.p.k.j.k.k.N.M.M.N.Y.W.W..X X$X&X;X;XQ.F.!.(.(.(.+X(.+X/.Q.W.x.E.I.z.4.a.W.OXt.2.d.,X7X7X",
"& & & q T p.B.a.z.XXOX}.R.XX~.Y.a.p.p.p.p.k.k.n.n.N.N.N.'.W.W.}. X@X$X&X;X*X~.K.!.(.(.(.#X(.#X(./.E.J.E.E.M.M.N.W.$Xv.r.t.,X7X8X",
"& q q q F ..m.z.g.}.oX|.U./.Q.n.p.f.f.f.k.f.f.f.k.M.W.W.W..X X XOX@X$X&X%X~.!.).(.(.(.=X+X#X#X(.(.(./.E.G.E.W.Y.W.;Xb...t.1X9X9X",
"q & q q S ` a.M.z.}.XXXXU.~.E.b.f.f.f.n.n.f.X.o.2.2.m.W.W..X X@X@X$X%X;X#X!.~.).(.(.(.=X(.=X#X(.+X+X/.E.l.E.E.Y.OX:Xb.[ v.1X8X6X",
"& q S q w F X.N.N.W.oXXXU.Q.Q.m.f.k.n.n.n.p.P H n m a.W.W..X X@X@X$X&X;X/.~.).).(.(.(.=X(.=X(.(./.+X/.Q.x.E.W.Y.@X3Xb.2.t.1X5X2X",
"q & & S q w ) b.W.W.XXXXQ.W.Q.N.n.v.n.n.B.k.U n n n ;.Y.M.N.N.OX@X@X%X#X^.~.!.H.).(.(.(.(.=X(.(.(.+X/./.J.E.W.Y.%X2Xb. .t.4X>X4X",
"9 9 q q 9 9 F u.Y.W.Q.XX/.W.Q.W.M.k.n.n.n.n./ n n n ! j.a.a.f.W.W..X@X+X(.^.K.6.!.^.^.(.(.(.(.(.(.(././.E.E.E.W.&X5Xb.[ v.&X.X].",
"9 9 q q 9 = t _ m.Y.Y.}.|.W.Q.W.N.n.B.B.k.i.Q M M M %.7.5.5.,.4.k.n.x./.^.^.F.-.E.^.(.(.(.(.(.(.(.(.(./.E.E.Y.W.:X5Xb. .b..X'.B.",
"9 9 q 9 % = y J f.Y.N.W./.E.W.W.W.M.n.z.4.} N B V V :.<.*.:.%.( 2.2.7.!.^.^.F.8.).^.(.(.(.(.(./.(.(././.E.c.M.W.<X2XB.r.B.{.B.b.",
"9 9 9 % = ; y J f.Y.{.W./.Q.W.E.M.M.z.p.! V M B Z Z <.6.<.6.6.:.3.5.8.!.^.^.).P.^.(.(.(.(.(.^.^././././.J.l.E.W.<X1X{.k.B.b.t.k.",
"9 9 9 % = ; y ) d.M.Q.W.Q./.Q.U.c.m.k.} M M N $.-.<.6.8.6.Z.Z.8.7.:.8.!.^.(.(.).(.(.(.(.(.(.!.!.E.~.~./.T.h.T.|.4X&X{.m.n.s.t.f.",
"9 9 & $ ; : t  .j.z.Q.W.W.XX|.U.c.c.g.Y p M *.9.G.9.8.9.Z.S.S.S.7.*.6.E.(.^.^.).^.(.(.(.(.).E.E.I.E.Q.Q.I.h.I.OX@XOX].n.b.u.t.p.",
"& 9 % $ ; : F ..f.f.I.{.Q.|.|.E.E.x.:.c 7 Q 8.A.K.F.8.S.F.G.F.S.F.-.<.E.).!.P.P.P.^.(.^.).K.K.G.G.U.E.Q.I.G.Y.OX.XN.b.v.d.w.w.r.",
"& = $ = : : K  .p.u.z.{.Q.|.XXQ.E.x.V 7 7 *.C.6.Z.C.8.F.E.!.H.F.E.<.*.E.!.A.A.A.P.).(.!.!.L.F.F.F.J.E.E.I.T.Y.OX{.d.d.d.u.q.q.r.",
"& % $ ; : : J ' 2.2.u.I.}.{.XX/.E.z.N 3 M 6.C.#.&.&.<.F.).!.!.J.!.6.&.H.L.C.C.C.A.R.).K.J.9.6.9.l.G.J.E.I.Y.W.OXB.w.s.d.u.q.w.s.",
"% $ - : y D R E  .{ / z.|.W.XXXXE.l.M 2 N 8.C B B V <.F.^.^.^.~.!.8.Z F.C.V.V.C.C.P.U.L.l.:.%.7.h.G.G.U.I.I.W.{.d.w.s.j.d.w.p.d.",
"$ $ ; : y ) { / U s s X.W.}.Q.XXE.E.( 4 $.8.C l N &.S.E.^.(.(.(.^.9.&.9.V.V.V.V.C.A.L.F.J.O.W Q 6.l.x.T.T.I.Y.n.r.w.q.a.f.p.f.n.",
"$ $ A : D q.r.o.n r < Y M.}.Q.XXQ.E.5.7 %.6.b j V 6.E.).(.(.(.(.(.9.-.<.1.=.=.C 1.8.L.G.U.&.N N %.h.x.c.x.N.Y.r.w.w. .u.j.f.f.n.",
"$ ; : : R f.p.2.m < > n a.Q.Q.Q.~.E.h.N Z Z N N $.S.!.^.(.(.(.(.(.S.8.Z Z C #.C Z 6.E.H.E.6.B N V h.l.x.l.M.k.] 2. .` w.f.s.s.a.",
"- : : : 2.k.j.2.Y 6 < i } W.Q.W.Q.E.h.V &.C N V <.G.).^.(.(.(.(.(.G.C.C C C C C Z <.E.E.E.l.-.( 5.h.l.x.l.M.r._  .[ ` q.u.w...X.",
"; : : K 2.p.a.2.! n 6 i m z.W.W.Q.Q.9.( Z Z N Z 9.E.!.!.(.(.^.(.(.E.Z.Z C C Z C -.7.h.G.h.x.E.h.x.l.h.z.l.n...' ' ` T [ r.' _  .",
": A : K 2.p.p.2.E m n n n 2.W.Q.Q.Q.h.:.Z V V :.h.E.E.E.!.).E.).(.!.S.C C C Z Z Z 6.9.x.h.9.l.x.E.x.h.j.x.k.^ ' ] ` ` ) q.' ` _ ",
"A A : L 2.2.f.2.U ^ M n n E m.W.E.Q.G.,.Z Z %.8.G.E.Z.S.S.D.Z.H.).).L.=.C C N B V :.8.x.8.:.4.c.E.F.h.g.x.2.K ] q.] ` J q.' ) ' ",
"A : y { p.2.p.2.2./ } m n E p.W.E.E.E.5.&.&.:.S.G.Z.-.-.-.-.-.Z.E.!.E.8.#.B j N V ;.5.h.5.,.5.h.l.E.E.x.m.{ H ] r.] ` _ ] ' ` ] ",
": : < 2.3.2.2.2.3.| 2.^ n m 2.Y.Q.E.E.4.-.6.8.F.L.8.B B V Z Z -.Z.E.E.C.&.B j N N V 5.5.:.,.:.7.h.E.E.c.f.n K { q.] _  .[ _  .q.",
": ; r 2.p.3.2.i.3.| 2.2.M m E z.W.E.E.x.8.Z.F.F.S.Z j j N Z Z Z <.8.Z.1.&.Z N h m V } ,.:.;.:.4.l.c.c.c.2.n K ' q. ...q.o.] ..d.",
": - t 2.p.3.3.k.4.2.2.2.! m M 2.c.E.E.c.h.F.F.S.6.B g 5 h B N N Z -.-.Z Z Z B h n M M V ;.5.:.4.h.J.T.j.U u J _ q. .q.w.q. .X.v.",
"; * u o.2.p.p.a.2.4.4.2.} M m / i.c.x.E.E.F.F.8.$.j 5 @ 2 N M j V Z Z C B B N h 7 7 m V ( 5.:.5.l.U.M.i.u r K E r.]  .r.w.s.r.p.",
"- + e { 2.3.f.f.p.4.4.2.;.^ m m ;.z.c.E.E.L.F.6.V 5 3 2 @ j j j j N Z C N N M g 7 7 n M ( ,.:.5.h.I.j.! , 0 H { u.' ' s.w.s.s.r.",
"    > U 2.2.f.z.j.4.2.i.4./ E n ^ j.c.j.9.F.S.6.N 3 2 5 3 h j j j g N B N j g M 4 3 6 n M M ( 4.h.m.4.a , e F ..s.R _ t.w.r.s.w.",
"    * n o.2.a.j.a.i.a.a.4.} E n U 2.c.x.g.h.9.:.M 2 3 5 g j N N M g g N h g 5 M 3 3 7 4 7 n / 4.g.f.E u , > T X. .`  .f.w.w.q...",
"  O . e K 2.p.a.2.a.j.a.2.{ E m n { z.c.h.6.5.%.h 2 5 h M N Z N N g g j g g 5 g 1 @ m 3 @ n / 4.g.3.i < < = E w.` F q.v.w.X. . .",
"X O + * i { 2.3.p.j.j.4.2.2.o.{ m E a.c.c.g.5.Z h 2 5 M B Z <.V N N g j j N 5 2 @ @ n 3 @ M ( 4.4.I , u , , { u.] T u.u.w.t.q.] ",
"y 0 * * 6 m 2.p.a.z.j.4.2.2.4.2.E m | j.c.g.5.( j @ 2 M V :.9.$.C Z N M j B j 5 @ 1 4 4 n M 4.4.;.8 # u , > { u. ._ u.....r.q. .",
"' { n - , n 2.k.z.c.z.f.4.3.3.3./ I U a.x.j.4.,.M 2 @ 4 N 6.h.6.0.6.O.N N $.B l 3 3 7 M ( 3.j.g.I > * s u = { X. ._ f.q.w. . .X.",
"3.2.^ 6 6 i ..m.m.c.z.f.2.3.4.3.;./ M { 3.g.6.5.N 7 @ 3 V 8.F.9.Z.L.0.&.-.7.#.V 7 3 k ( 7.z.z.4.d o # F a = ! .._ _ u.w.w. . .w.",
"2.2.2.n u n o.m.m.c.n.k.2.3.4.4.4.X.I I I 3.4.;.$.M 3 7 $.9.H.h.C.K.K.C.G.K.1.%.k 8 M 5.g.c.g.U * # # a a = Y ..E E ..u.p... .u.",
"m P 2.H n m o.z.z.n.n.i.2.p.4.4.4.3./ m s 5.7.3.%.V k M :.7.F.F.C.L.L.A.H.E.L.-.7 7 / g.x.z.} 6 # X # t w , ! | R ) _ X.u.r.u.f.",
"+ r 2.^ m m 2.m.z.m.M.4.4.a.4.a.i.4.;.m p X.h.4.( Q M ( 7.7.h.F.Z.V.V.V.C.K.K.6.7 z | z.l.u.p X . . > F w , { ..) ) R ' X.f.f.j.",
"+ n 3.^ m m 2.m.m.m.n.a.f.a.4.a.f.i.3./ z / g.i.5.( Q 5.g.7.h.h.<.#.#.#.=.D.E.<.c E 4.j.4.P > O . X , T F 0 _ { R J P _ ..p.j.j.",
", ^ f./ m m 4.m.m.z.z.z.k.g.z.h.j.a.4.X.m I >.g.3.} } 4.g.l.l.h.&.C C C C 1.K.7.N | g.a./ < X X # # d _ F r T _ R H H R _ u.f.z.",
"Y 2.a.} Y U 3.c.c.z.j.z.z.j.j.j.j.i.4.3.I s { 4.3.5.2.4.g.g.h.h.+.B C B b O.8.G.( 3.i./ u > * * # > a  .R r H _ R F F P _ X.u.f.",
"2.3.a.| U Y 3.x.n.j.j.n.z.z.z.z.j.4.a.i.! s M ;.3.3.2.3.i.i.7.9.@.N B b b B 0.K.;.3.X.P < < 8 u 0 , P o.R r F ' E J H T _ o.3.u.",
"p.3.a.| U Y p.n.j.f.j.m.m.j.z.z.j.i.j.a.} P p ! 5.5.2.5.4.5.3.6.O.B v h g C h.G.2.2.I i p x U I s r U 3.U r n { { U R Y { { X.3.",
"3.2.p.3.I / p.m.j.j.j.z.z.j.j.a.a.i.a.i.X.I p I / | 5.2.3.} | ,.Q N j 5 h O.F.h.} { m s U W | / I i } 3.E t s ' ) R _ / { { | | ",
"o.X.3.;.I / u.z.j.f.j.j.j.f.4.2.X.u.3.3.>.! z m Y / ( ;.| / / / V N j 2 h :.l.4.N I M E / | 2.2.! m 3.a. .t a _ H R } { / / / / ",
"/ } { | Y } 3.k.z.a.j.j.j.2.2.' _ ..X.X.X./ ^ E Y Y Y ( } / Y M M c 7 3 x 5.i.( M U ( o.| X.3.3./ P i.a.' a a R J { | | / ! / / ",
"/ / Y { ^ | 2.a.n.p.a.j.j.2...R J _ X.X.X.{ } { ^ Y m I ' ( Y m n 7 3 7 M 3.3.N E / 3.3.3.2.3.3./ I g.u.E a n E E | 3.| / Y / / ",
"/ E U ^ } | / p.k.X.p.i.3.] ] ) T _ o.3.2.o.^ { | { I n P W W m n p x x Y | 3.| ;.3.4.a.3.4.4.5./ / z.u.T r H U ' | 3.| | / I Y ",
"/ ^ Y E | | Y r.f.o.p.a.3.[ _ ` T _ ..s.>.o.T { 3.5.Y i s I / m m n M N E } 2.3.4.3.7.a.4.4.4.4./ { z.u.K r H P o.| ;.3.3./ I Y "
};
