/* XPM */
static char *fibi_64x64[] = {
/* columns rows colors chars-per-pixel */
"64 64 226 2 ",
"   c #0E070C",
".  c #0F0A0E",
"X  c #13090E",
"o  c #17090F",
"O  c #140B11",
"+  c #1C0D12",
"@  c #1A1315",
"#  c #1E1C1A",
"$  c #171314",
"%  c #240E13",
"&  c #241216",
"*  c #2C151A",
"=  c #241D1D",
"-  c #2C1B1D",
";  c #271317",
":  c #33191D",
">  c #33171B",
",  c #22221E",
"<  c #2B1823",
"1  c #341C23",
"2  c #3A1D29",
"3  c #3A1D25",
"4  c #252521",
"5  c #2A2322",
"6  c #272823",
"7  c #2A2B26",
"8  c #2D2E29",
"9  c #372428",
"0  c #2E312A",
"q  c #2C3027",
"w  c #31342D",
"e  c #39312F",
"r  c #3D2931",
"t  c #353631",
"y  c #363932",
"u  c #393C35",
"i  c #3C3E39",
"p  c #3B3533",
"a  c #441E29",
"s  c #44252A",
"d  c #48262D",
"f  c #4D2D34",
"g  c #452733",
"h  c #582737",
"j  c #463938",
"k  c #55353B",
"l  c #56262E",
"z  c #67293B",
"x  c #752B3C",
"c  c #792C3D",
"v  c #65323A",
"b  c #3B4137",
"n  c #3D423A",
"m  c #42443D",
"M  c #49433C",
"N  c #55413E",
"B  c #573946",
"V  c #4F3341",
"C  c #692C43",
"Z  c #762D45",
"A  c #683747",
"S  c #783449",
"D  c #793956",
"F  c #683B55",
"G  c #454641",
"H  c #464943",
"J  c #4A4B46",
"K  c #4B4E49",
"L  c #4B4543",
"P  c #574648",
"I  c #4E514C",
"U  c #52524C",
"Y  c #5C504E",
"T  c #535652",
"R  c #595956",
"E  c #5E4F52",
"W  c #66464B",
"Q  c #684955",
"!  c #774A5C",
"~  c #675659",
"^  c #74545B",
"/  c #70474C",
"(  c #5C605B",
")  c #66625E",
"_  c #764865",
"`  c #795965",
"'  c #6E5961",
"]  c #5F6161",
"[  c #656665",
"{  c #756467",
"}  c #7D6973",
"|  c #75797B",
" . c #84364D",
".. c #8C2E54",
"X. c #883A55",
"o. c #95345D",
"O. c #94325B",
"+. c #822C4B",
"@. c #9B3663",
"#. c #993966",
"$. c #8B3D66",
"%. c #A1396B",
"&. c #A73E75",
"*. c #B23D7C",
"=. c #89435B",
"-. c #914A5E",
";. c #874A64",
":. c #934865",
">. c #88576B",
",. c #95566C",
"<. c #8A5676",
"1. c #965976",
"2. c #954674",
"3. c #AC437C",
"4. c #A94578",
"5. c #86656A",
"6. c #8A6774",
"7. c #97647B",
"8. c #87737C",
"9. c #A67177",
"0. c #7B7F81",
"q. c #B53D87",
"w. c #BE3D86",
"e. c #B53E88",
"r. c #BE3F89",
"t. c #C03E87",
"y. c #C13F88",
"u. c #9A5C82",
"i. c #AD4887",
"p. c #B24682",
"a. c #B44985",
"s. c #B5428A",
"d. c #BD428C",
"f. c #B44C8B",
"g. c #B94C8D",
"h. c #B8538D",
"j. c #BF4690",
"k. c #BD4C93",
"l. c #BC5C9B",
"z. c #B95794",
"x. c #A8598A",
"c. c #9B6888",
"v. c #987687",
"b. c #99758E",
"n. c #A46989",
"m. c #A86B94",
"M. c #B6659C",
"N. c #B7669C",
"B. c #A97799",
"V. c #B57996",
"C. c #A7768E",
"Z. c #BB6AA2",
"A. c #BB66A1",
"S. c #B37DA3",
"D. c #AE7BA1",
"F. c #C2438C",
"G. c #C2488F",
"H. c #C34087",
"J. c #C24691",
"K. c #C34A93",
"L. c #C84C96",
"P. c #CA4E99",
"I. c #C74F98",
"U. c #C4539A",
"Y. c #CA539B",
"T. c #C45B9C",
"R. c #C95C9E",
"E. c #C25696",
"W. c #C4639D",
"Q. c #C1719F",
"!. c #C45BA0",
"~. c #CB5CA2",
"^. c #D05EA4",
"/. c #C663A4",
"(. c #CC6BAC",
"). c #C966A5",
"_. c #D168AC",
"`. c #D166AA",
"'. c #CB72AE",
"]. c #C574A9",
"[. c #CE6EB0",
"{. c #D26EB1",
"}. c #CD71B1",
"|. c #D472B4",
" X c #D77ABA",
".X c #7F8285",
"XX c #938490",
"oX c #A68599",
"OX c #A7869B",
"+X c #B8849B",
"@X c #AD8DA3",
"#X c #B786A9",
"$X c #AE92A7",
"%X c #B595AC",
"&X c #BB8DB1",
"*X c #BB9BB5",
"=X c #BB98B5",
"-X c #BDA2BE",
";X c #C486AC",
":X c #CB89B3",
">X c #C49CBB",
",X c #C696B8",
"<X c #D294BD",
"1X c #D18BB9",
"2X c #C5A3BD",
"3X c #BEA4C1",
"4X c #DD83C4",
"5X c #CA9FC0",
"6X c #D59DC4",
"7X c #C4A5C2",
"8X c #CCACCB",
"9X c #CAA6C4",
"0X c #D4A5C8",
"qX c #D9A6CA",
"wX c #D3ABCD",
"eX c #DBA9CC",
"rX c #D4A2C6",
"tX c #D9AFD1",
"yX c #D7AED0",
"uX c #DCB2D5",
"iX c #DDB6D9",
"pX c #D5B3D4",
"aX c #D2B1D0",
"sX c #E2B9DD",
"dX c #E0B6DA",
"fX c #E5BCE1",
/* pixels */
"'.'.'.}.}.}.[.[.[.)./.!.k.i.s.s.k.j.j.s.e.e.s.s.s.s.s.e.e.r.y.j.j.j.J.L.P.P.P.Y.P.P.P.P.P.r.J.y.y.y.y.y.y.J.J.J.J.J.J.J.J.K.P.j.",
"'.'.}.}.}.}.}.{.[.)./.T.h.p.p.p.s.s.e.s.s.e.e.e.e.e.e.e.e.e.j.j.j.j.j.K.P.P.P.P.P.P.P.y.J.r.y.y.y.y.y.y.J.J.J.J.J.J.J.J.K.K.K.K.",
"'.'.}.}.}.}.}.[.[.(.!.l.f.i.s.s.s.s.s.e.s.k.j.e.e.e.e.e.e.e.e.e.e.j.j.j.y.L.P.P.P.P.P.y.r.j.y.y.y.y.y.J.J.y.y.y.J.r.J.J.K.K.K.k.",
"'.}.}.}.[.'.(.(.)./.!.z.g.i.s.s.s.s.s.e.e.e.e.e.e.e.e.e.e.e.e.e.e.r.j.j.K.L.P.P.P.P.L.r.r.r.y.y.y.y.y.y.y.j.P.j.J.J.P.j.K.K.K.K.",
"(.}.'.'.[.(.(././.!.!.z.g.s.s.s.e.e.e.e.q.q.q.q.e.e.q.q.e.e.e.q.e.r.k.r.r.J.P.P.P.J.y.r.r.y.y.y.y.y.y.y.J.y.r.j.K.K.j.K.K.K.K.P.",
"'.'.(.].Z.).[.Z.A.l.z.k.k.s.s.s.e.e.e.e.q.q.q.e.e.e.q.e.e.e.e.e.e.e.j.K.K.P.P.P.P.y.y.r.r.y.y.t.y.y.y.y.y.P.P.y.r.K.j.j.j.K.U.U.",
"'.'.].].A.A.A.!.!.l.l.U.k.s.s.s.e.e.q.q.q.q.e.e.q.q.q.q.q.e.e.e.e.e.r.r.y.P.P.P.P.r.r.y.r.r.t.t.y.y.J.J.y.y.P.P.L.K.P.K.K.K.j.K.",
"].].].Z.A.A.A.l.l.l.l.k.k.s.s.s.e.e.e.e.q.q.e.e.q.q.q.q.e.e.e.e.e.e.e.r.K.J.J.J.J.y.r.r.r.r.r.r.y.y.y.y.J.J.J.y.y.r.y.K.K.k.K.K.",
"}.Z.Z.M.l.A.A.l.l.l.l.!.k.s.s.s.s.s.s.e.e.e.e.e.e.e.q.q.e.e.e.e.e.e.e.k.K.K.K.P.j.r.r.r.r.w.t.t.F.G.F.F.F.G.F.G.K.K.K.J.J.K.K.K.",
"Z.Z.Z.A.M.M.M.l.l.z.g.i.s.k.k.z.k.k.k.k.k.k.k.k.k.k.j.e.e.e.e.e.e.r.j.k.k.r.y.y.j.r.r.r.r.t.t.t.w.r.d.d.F.F.F.G.K.K.J.K.K.K.U.U.",
"Z.Z.A.A.M.M.M.l.z.i.&.#.&.s.l.!.!.!.!.!.!.!.!.!.!.!.!.!.!.!.Y.Y.Y.Y.!.!.~.P.P.r.r.r.r.r.t.t.t.t.w.t.F.F.F.G.G.G.J.J.K.J.J.j.K.K.",
"Z.Z.A.M.M.M.M.M.z.i.&.#.4.k.l.!.!.!.~.~.~.~.~.~.~.!.!.!.!.~.!.!.Y.Y.Y.P.P.K.k.r.r.r.r.r.r.w.w.w.w.r.F.F.F.G.G.G.j.J.J.J.K.k.U.U.",
"Z.Z.Z.Z.M.M.A.l.i.q.@.O.#.f.k.k.k.k.k.K.L.K.j.J.K.K.J.F.J.J.J.J.j.J.r.r.r.r.r.r.y.r.w.w.w.w.r.w.r.t.F.G.F.G.G.G.K.K.K.K.K.K.U.l.",
"Z.Z.Z.Z.M.M.z.z.q.$.C h Z %.s.l.k.k.j.e.e.r.j.j.j.k.k.k.k.j.K.K.P.P.P.!.~.!.K.r.r.r.w.w.w.w.r.r.r.t.t.F.G.G.G.G.K.j.K.K.K.K.I.U.",
"Z.M.Z.M.M.z.z.z.$.F 2 % 3 C #.s.l.l.l.!.!.!.!.!.!.!./.(.)./.(._._.{.{.|.{.^.P.r.r.r.w.w.w.w.t.y.t.F.y.F.G.G.j.K.K.K.K.K.K.U.U.U.",
"Z.Z.M.Z.M.M.x.f.$.C a * < g A $.&.j.!.!.!.(.[././.(.[.[.[.[.(.(.[.{.|.{._.Y.k.r.r.r.w.w.w.t.t.y.F.F.F.F.F.G.G.G.K.d.j.K.K.K.U.U.",
"Z.Z.Z.M.M.M.x.i.#.C 2 < 2 2 C  ...@.&.a.z.T.~./.W.).).).).R./.).`.`.`.`.R.I.K.F.p.*.*.t.H.H.H.H.F.F.F.F.G.G.G.G.F.L.K.L.L.L.I.U.",
"Z.Z.M.M.M.x.i.u.D V 2 < < 2 a z +.@.%.3.s.K.W.).`.`.).R.R.R.R.R.R.R.R.R.R.T.R.P.J.H.t.H.H.H.H.H.t.F.G.G.G.G.G.G.K.K.K.L.I.U.U.U.",
"Z.Z.Z.Z.M.M.u.u.D a 3 1 2 g C D ;.x.N.].;X1X<X<X<X<X1X:X'.).W.R.R.R.R.R.R.R.~.R.Y.I.K.G.H.H.H.H.H.H.F.G.F.L.L.L.L.I.E.Y.Y.Y.R.R.",
"M.M.M.m.m.x.x.i.u.<.>.>.<.c.B.#X1X6XrX0XqXqXqXqXqXqXqX6X<X:X}._.).).).).^.R.W.R.R.W.W.R.R.Y.P.L.K.G.G.L.L.L.L.L.L.P.Y.Y.Y.Y.R.~.",
"M.M.N.N.M.D.D.Z.Z.].;X,X=X4X6X6XqXqXeXeXqXeXeXeXeXeXqXqX<X<X1X:X(.W.W.W.`._._.'.(._._._._._._.`.`.~.Y.Y.Y.P.P.P.P.Y.Y.Y.~.^.^.^.",
"m.m.m.m.B.B.B.n.9.n.V.;X,X5X6X6XqXeXeXeXeXeXeXeXeXqXqXqXeXeXeX<X:X;XW.R.E.W.W.W.`.'._.|.|.|.|.|.|.|.|.{._._._.`.`.).~.~.~.~.~.~.",
"x.1.1.7.n.7.1.,.1.x.m.#X&X6X6XqX0XeXeXeXtXdXdXdXdXuXuXuXtXtXuXuXeX6X<X:X].W.E.E.E.E.W.W.W._.{.|.|. X4X X X X X X X|. X|.{._._._.",
"1.2.$.$.=.=.=.;.;.1.n.S.&X5X6X6XeXeXeXdXdXdXdXdXdXsXsXsXsXsXfXfXdXdXeXeXqX<X;XW.E.h.h.h.h.E.E.R.E.E.W.)._.{.|.1X4X4X4X4X4X4X4X4X",
"$.X.Z Z Z Z D ;.<.c.D.&X&X5X6X6XwXyXuXuXiXiXiXiXfXfXfXfXfXfXfXfXfXsXfXfXsXsXdX<X:XN.l.h.g.a.a.a.a.a.a.a.a.h.h.G.L.R.).`.}. X1X4X",
"D D C C C Z S X.1.m.S.&X&X5X5X5X0XwXyXuXiXiXiXiXiXiXfXfXfXfXfXfXfXfXfXsXsXsXdXdX0X:XQ.h.a.3.3.a.a.a.a.a.a.a.3.a.a.a.a.a.a.a.g.j.",
"C z C z C S D 1.c.D.#X&X&X&X>X5X7X0XyXuXuXiXiXfXfXiXiXfXfXfXfXfXsXsXdXdXiXiXiXpXwX2X,XN.h.3.3.3.3.3.a.a.3.a.a.a.a.a.a.p.3.3.3.3.",
"h h h z C S $.2.c.B.S.&X&XS.S.&X,X7X0XwXuXuXiXiXiXiXiXiXdXdXuXdXtXeXeXeXaXaXpXyX0X2X&X+XV.h.3.3.3.3.3.3.3.a.a.H.g.a.p.p.p.p.3.3.",
"g g h h C D ;.<.u.u.c.B.D.D.&X&X&X,X0XwXpXpXiXiXiXiXiXuXtXwX2X2X2X2X7X8XwXwXwXwX8X-X&X#Xm.9.4.4.%.%.%.&.4.4.3.3.a.p.p.p.a.p.p.p.",
"a a h C D 2.<.2.;.F _ u.m.D.&X&X,X7XrXwXtXuXuXiXiXuXtXwX8X2X>X*X%X*X2X2X2X8X8X8X8X8X*X@Xn.1.,.:.-..... . ...O.%.%.&.3.3.p.p.p.a.",
"< 2 V F _ u.u.$.Z h C D u.m.D.&X5X5X0XwXwXtXpXpXpXpXwX8X9X2X*X%X$X$X%X*X%X>X2X7X3X8X5X&XV.n.,.=. .+.c c c c c c +...o.%.%.&.&.&.",
"& 2 C _ u.x.u._ F C C _ u.D.=X9XrXwXtXtXtXwXwXtXtXtXwX9X2X>X%XoXC.c.c.7.7.7.v.OX*X*X*X$XoXv.6.;.S c c x c c c c c ..O.o.@.%.o.%.",
"< r F u.m.B.B.c.c.c.c.m.V.%X,X<XwXyXtXdXuXaXaXwXwXaXwX2X-X*X$Xb.6.! A A A S S ,.C.@X%X@XoXv.6.;.S S x z x x x  . .O.o.o.%.%.%.o.",
"g V _ _ u.c.m.D.D.#X&X#X#X,X,X2XrX0XwXtXuXiXiXyX8X8X9X2X7X3X-X$X6.=.S v C z / >.v.OX@XoXXX7.6.=.D x x x x S  .=.-.-.:.@.@.@.o.O.",
"r V _ u.u.c.m.S.&X*X%X*X>X,X,X2X2X9X0X0X0XwXyXwX9X2X2X7X8XpXpX8X7X*X@Xb.7.7.v.%X-X-X%XoXC.v.<.` / x x x c S  .O.o.@.@.@.@.o.o.o.",
"r V _ _ u.m.D.S.#X#X&X;X;X,X,X;X,X>X>X>X2X2X9X2X7X2X-X8X8XpXpXiXiXpXaX8XaX8XaX8X8X7X>X$XOXv.6.-. .S Z c c  .X.@.@.@.@.o.o.O.O...",
"< 2 V _ b.D.&XS.V.m.C.V.V.V.V.V.V.+X+X+X&X;X>X2X7X7X8X8X8XaXaXaXpXpXaX8X8X7X7X3X2X-X-X*X%X@Xc.,.;.X.X. . .X.=.:.#.@.O.....+.x z ",
"< < g 0.c.D.D.D.m.1.,.n.N.V.V.C.V.+X+X+X;X;X;X%X-X9X8X7X3X3X3X3X-X-X-X-X-X-X-X-X-X-X-X%X%XOXv.5.-.X.X.=.=.=.=.X.X. .+.c l a % o ",
"< 2 h _ c.m.m.c.7.:.:.,.7.9.9.9.+X+X+X+X+X+X@X%X-X8X8X8X7X3X3X7X7X7X-X$X$X$X%X*X%X*X*X%X@XOXb.7.:.-.X.X.X.X.X.S x h a > % + o o ",
"< < g V _ <.<.1.,.X.X.X.o.-.:.:.,.,.1.9.1.n.OX%X-X-X-X-X-X-X-X3X3X-X-X$XOXOX@X$X@X%X@XOXoXB.7.7.>.;.-.X.X.S A d : & + + + + + + ",
"< < < V F _ _ _ F F D D S Z x Z -.-.-.,.,.9.oX@X$X$X$X$X$X$X*X*X-X*X$X$XOXoXoXoXoXoXoXoXv.v.7.1.;.;.X.S C d : & + & % o % % % % ",
"O O O @ < r V V V V V h h h l l v x / ^ 5.5.5.6.6.v.b.XXXXoXXXXXOX@X@X@X@XOXoXv.v.v.8.7.7.7.,.,.;.X.C d * % o % % + + + o % % ; ",
"O O O O O < < < 2 a a 2 2 2 3 3 s d d l k W / ~ ! >.7.v.b.v.v.b.XXb.XXXXXXv.8.8.5.<.>.` ` >.;.=.D B d : % + % % % % % % % % % + ",
"O O O   O O @ @ + % * 1 < < 3 a s s d d s d d f B Q ' ` { { ' ' ' ' ` ! ! Q / P B Q Q A A W v v f s 1 * & & ; ; * > * % % % % % ",
"O O O   O O O O O + + + + + * : 3 d k f d s d k k W W W W B k k B k k f 9 9 1 : 3 3 s s s s 3 - > > - - - : : : > * ; % % % % % ",
"< @ O   O         X O + O X X o o % 1 d k r 9 9 9 r r r 1 - = & = - : 1 < = * - : 1 3 s l k f d f k k f s < = : : * & @ % * % % ",
"O O O O O O O       . + + + o o o o o < r s 1 + o & ; & @ + + % ; * : : s 9 9 d d s d k A / W W / / v f 9 - = - 1 s g r 9 1 9 9 ",
"O   O O O O O O           X % % ; % * * 1 f V 9 > * * * ; ; * - > > : s d l l k f 9 - , , 9 f / 5.^ f : = 5 9 e j L N j 9 , , - ",
"O O O O O O O X X .         X o @ * : : 3 f k k f 9 > > > * > 9 d d k k W / W A f 5 @ # 9 L ^ } ^ P y y m u t j M j j e w w 7 7 ",
"O O O O O O O X X o X     X     . $ & @ % ; 9 W W d : - 1 s g k W ^ ^ / Y P m y 7 5 5 8 U } v.5.P w 8 u m m w , , = # = , 0 5 , ",
"@ @ O O O O O + % o o X . X X X . $ $ $ O O @ f B P e @ # 6 8 t m b u u w 8 6 7 7 6 p E v.OX8.Y u q , , , w w q 5 , - e k W P N ",
"@ @ O O @ @ + + + O $ $ $ $ . . . . . $ # @ @ = g Q E t 7 w t t , , u i m i y b i u R v.XX8.~ H J m 0 q 7 5 0 j M P N N P Q / ^ ",
"< < < < # < 5 = = = # o $ $ $ $ $ $ # , 6 6 6 # 9 P Q ~ G y y y w w n b b I R T R { 6.v.` P y y J J m m U ~ Y L M M M M J m q = ",
"r r g 2 : - - > : 9 5 5 , , , 7 6 6 6 0 t u y 7 5 9 B ' B e L U M m w q 8 w y w V [ 8.v.Q 5 , 6 w b m m m K U J n w 7 , q y q 6 ",
"< < < < 5 , = = - - = , 6 q i m y 0 6 6 6 8 0 0 w 0 j Q Q Y I K U I n y w q 7 q J | oXXXE 4 # , , 8 b u w y m J J m u q , 6 w b ",
"< 8 7 7 4 , , = = $ # , , , w w w 6 , , , , 6 7 t j G P ~ ^ L e w 0 0 0 0 6 8 k 5.$X$X} G , 6 0 b b i m m u b I ( ( T J J J T R ",
"H n 0 0 7 4 # # # # , 6 7 8 0 t y y b y w 0 0 0 w b y t L Q Q P m b n n G P Q { 5.} ) G t 0 b n i n K I I i 0 y m T ) ) ~ N M m ",
"G n n u y t 6 , , 0 u m K H u 0 7 y n H H b b n n b y y j P _ ' B L Y [ 5.6.{ W j u n H n n H H y y i y 0 t b H K U ) 5.5.) Y I ",
"q 0 t u n u t 0 w u n u n n u t w 0 0 y b b y w q , , 6 t H Q ` ` Q P L M m u 5 6 y U [ R n t t y y 0 6 , 6 q q 0 b m I R ( [ [ ",
"G n u y u n n n u u y t t 0 7 7 7 7 6 6 6 6 7 7 q 0 y G U ( ' ' ! W e 4 # # 7 w y y J R T K H H H n w 6 , 6 q b m b b b n n b b ",
"^ W w 7 7 w p f V K G n t 0 u y 4 # # 6 0 6 6 7 q 7 0 n G K P P B B P u 8 7 0 m M b M Y _ ` { [ ] I b y b b b I T b b b I R R ( ",
"9.5.W M t w w = # 8 i G I R [ [ ] T K n n H K H b 4 # 7 u K K K B Q ^ ~ M M M M K U U U ~ ' { ] ] [ [ ] I R ( I n b n ( T I T T ",
"9.9.9.5.W M t G G w w t i G T [ { } } R K T R K b w t b m G J T [ { ` ^ ~ J b b u b n n n m T T H I .X.X0.| [ K n T ( ] T b 0 q ",
"9.9.9.9.7._ E K K G i t 8 6 5 r ~ v.b.} I K K T T H n n G G i m T R W ^ >.~ U m m M m b y y H H 7 y ( | .X.X0.] R ( [ [ I n m K "
};
