/* XPM */
static char *linus_64[] = {
/* columns rows colors chars-per-pixel */
"64 64 213 2 ",
"   c #080807",
".  c #0D0B0A",
"X  c #070807",
"o  c #130D0E",
"O  c #190D0F",
"+  c #12100F",
"@  c #160F10",
"#  c #1B0E11",
"$  c #151112",
"%  c #1C1214",
"&  c #1D1718",
"*  c #1F181A",
"=  c #210F13",
"-  c #231215",
";  c #291217",
":  c #251619",
">  c #2C151A",
",  c #241B1C",
"<  c #2D1A1D",
"1  c #31171C",
"2  c #33191E",
"3  c #38191F",
"4  c #2C1D20",
"5  c #351B20",
"6  c #3C1D23",
"7  c #262123",
"8  c #2A2325",
"9  c #2C2629",
"0  c #2E292C",
"q  c #26232B",
"w  c #3E2026",
"e  c #312B2E",
"r  c #3B2A2E",
"t  c #382327",
"y  c #2D2B33",
"u  c #292731",
"i  c #342D31",
"p  c #3B2D31",
"a  c #353034",
"s  c #3B3235",
"d  c #3B353B",
"f  c #39353C",
"g  c #411E25",
"h  c #432027",
"j  c #452229",
"k  c #4B242C",
"l  c #45292E",
"z  c #4C292F",
"x  c #51262E",
"c  c #52282F",
"v  c #4C2C31",
"b  c #432C31",
"n  c #512730",
"m  c #542A32",
"M  c #5A2D35",
"N  c #5F2F38",
"B  c #4D3134",
"V  c #433B3E",
"C  c #45383A",
"Z  c #553639",
"A  c #5D3139",
"S  c #56383A",
"D  c #63333C",
"F  c #69363F",
"G  c #602F38",
"H  c #3D3B42",
"J  c #453E40",
"K  c #4E3E40",
"L  c #5A3E41",
"P  c #643740",
"I  c #6D3942",
"U  c #673842",
"Y  c #743D47",
"T  c #4A4244",
"R  c #4C4649",
"E  c #4A4345",
"W  c #524A4C",
"Q  c #594647",
"!  c #5F514F",
"~  c #564E52",
"^  c #5A5355",
"/  c #575255",
"(  c #494757",
")  c #634B4A",
"_  c #664649",
"`  c #674955",
"'  c #6C5351",
"]  c #625A5C",
"[  c #6A5A58",
"{  c #745958",
"}  c #66514D",
"|  c #78655D",
" . c #5A5768",
".. c #565977",
"X. c #635A61",
"o. c #6A6364",
"O. c #6A6567",
"+. c #756D6C",
"@. c #786762",
"#. c #7E7368",
"$. c #746C76",
"%. c #7C7472",
"&. c #79747A",
"*. c #686578",
"=. c #826C67",
"-. c #857A6C",
";. c #86766C",
":. c #8A7E72",
">. c #837B7B",
",. c #847775",
"<. c #937E79",
"1. c #8C8273",
"2. c #8B837D",
"3. c #958B7B",
"4. c #9A8E7E",
"5. c #948578",
"6. c #9D907F",
"7. c #6E7292",
"8. c #777EA2",
"9. c #5B6184",
"0. c #847E81",
"q. c #7C80A2",
"w. c #8A8383",
"e. c #8C8788",
"r. c #928C8C",
"t. c #978A83",
"y. c #9D9284",
"u. c #938E90",
"i. c #9A9493",
"p. c #9F9A9B",
"a. c #989497",
"s. c #8F899A",
"d. c #A29684",
"f. c #A59A8A",
"g. c #A99C8B",
"h. c #A29C9E",
"j. c #A39A95",
"k. c #ABA293",
"l. c #ADA59B",
"z. c #B4AB9B",
"x. c #B7AA99",
"c. c #BCB19D",
"v. c #AFA28E",
"b. c #AB9FA0",
"n. c #AAA4A6",
"m. c #AEAAAD",
"M. c #A8A4A5",
"N. c #B5ACA7",
"B. c #BCB4A3",
"V. c #BBB4A6",
"C. c #B2AEB1",
"Z. c #BDBABC",
"A. c #B7B3B6",
"S. c #C2B49D",
"D. c #C1ADAB",
"F. c #C4BAA5",
"G. c #C5BDAA",
"H. c #C9BFA9",
"J. c #C6BAA5",
"K. c #C3BBBC",
"L. c #C5BAB5",
"P. c #C7C1AD",
"I. c #CBC2AD",
"U. c #D0C6AE",
"Y. c #CEC6B2",
"T. c #CEC9B8",
"R. c #D1C7B1",
"E. c #D4CBB4",
"W. c #D9CFB6",
"Q. c #D4CDB9",
"!. c #D9CFB8",
"~. c #D6D0BC",
"^. c #DBD3BC",
"/. c #DAD0B7",
"(. c #E1D7BE",
"). c #E3D8BF",
"_. c #C3BEC0",
"`. c #C4C1C4",
"'. c #C9C6C9",
"]. c #CBC7C8",
"[. c #D3CBCB",
"{. c #DCD6C1",
"}. c #DDD9C5",
"|. c #DEDBC8",
" X c #DBD3C6",
".X c #CFCDD0",
"XX c #D1CED1",
"oX c #D7D5D9",
"OX c #D9D6DA",
"+X c #DCDADD",
"@X c #D6D3D5",
"#X c #E0D7C0",
"$X c #E4DAC3",
"%X c #E9DEC6",
"&X c #E6DDC8",
"*X c #E8DFC8",
"=X c #EBE0C7",
"-X c #ECE2CC",
";X c #F0E7CD",
":X c #F2E8CE",
">X c #EFE6D1",
",X c #F3E9D3",
"<X c #F0E7D0",
"1X c #DFDDE2",
"2X c #E0DEE2",
"3X c #E9E6E9",
"4X c #ECEAED",
"5X c #E5E3E7",
"6X c #EFEEF1",
"7X c #F3F2F4",
"8X c #FCFCFC",
"9X c #F7F6F8",
"0X c #F0EFF0",
/* pixels */
"%.] W E V f 0 0 y 0 y f f u u H ( ..9.9.q.7... . .$.>.;.' Y I U N M m v g 5 4 4 > 2 5 6 w 6 k F I Y Y Y I F D D M m Z M n c M N ",
"W T f f d d s r 0 y y y f u u H H  .7.q.s.9. .X.` _ Y Y P G M m k 6 5 4 4 < : - > < 5 6 k M F I I I I I I N j 1 : % < j z c c n ",
"W W R J d s d p y 0 0 y y y y H ( *.7.8.9.` U P A N M k k 6 6 5 4 < - # # # % : 1 3 j M D I F D D P U D x 2 # . X . - 2 h k x c ",
"R ^ Q d e i s p e 0 0 0 p p v K L _ ` U F M m m v v j 5 5 4 : % # # @ @ # # % < j c G F I F D A N D M 6 = o     X O < 6 h k k c ",
"T W T 0 7 8 0 e s a p v N P P N P D M m k j j g 6 < : - % # # # @ @ @ @ # : 5 v D F I I G D D D N k 1 o .       o ; 3 g g k c M ",
"T W J 8 7 8 0 i d v M P P N m n m m n j 6 6 4 : - % % $ @ @ @ # # @ @ % : 6 m P D F F I F G G n g : o           o 1 g g g j c c ",
"V V s 8 7 7 9 e b M G N M m m n m j 6 5 5 < : % % @ # @ @ @ @ @ @ @ & 5 k M D D I I I I F M g ; % .             % : 3 g g x k g ",
"s s e q 7 9 0 p m N M M m n k 6 6 5 5 4 : : : $ $ @ @ $ $ @ @ $ @ : w m N P P U D N n j 2 ; o o . .           . - 1 3 g g g k g ",
"a e 0 0 0 0 r l M m n n g j j 6 5 5 < < : * & + $ $ $ + $ % % & 4 v A U F A M z 6 < : @ o @ # # % O O - O o X . % 2 6 g g g j k ",
"a e e e e e r c m m n k j j w 6 5 2 , , : : & $ $ & * 7 4 4 0 e m Z A v j 8 : $ $ o o o # = 1 6 2 < > > 2 < ; % : 2 g g g g g x ",
"e 0 0 s a r z c m n k g j 6 5 5 5 < : : : , 9 a E ~ O.&.w.w.w.0.,.X.J , $ $ @ $ o o o @ # < 6 g h 6 < < 2 6 6 6 6 6 g g g k j g ",
"0 8 0 r C B c c n n k k j 6 6 5 5 5 8 0 f / &.k.Z..X1X1X1X5X5X5XOX'.a./ 8 $ $ $ o o o o # : 5 g k k h 5 < 3 w k x x x k g g g k ",
"e 0 0 s b m M c c k k k j g 6 5 l ^ >.j.n.A.XX4X9X8X9X9X8X8X8X8X7X3XoXm.X.0 $ $ o o o @ @ % < 6 g k m k w 6 6 w j j k m c n k g ",
"0 9 e s m c c c c x j j 6 6 6 C 0.K.@XOX2X3X7X8X8X8X8X8X8X8X8X8X9X7X4XXXh.^ 8 $ @ @ o @ o # = < 6 6 j m M k w 5 < 6 h k x m n n ",
"9 8 9 j c M M x k k j j 6 5 r ' N.D.z.V.oX7X8X8X8X8X8X8X8X8X8X8X8X8X9X2X_.a.X.d 8 $ @ @ @ # # = < 5 6 g c m n k g 6 6 6 j k n m ",
"0 i r l c c x n x k j w w 5 K >.B.l.b.'.6X8X8X8X8X8X8X8X8X8X8X8X8X8X8X6X1X.X.XZ.r.R * @ . o # # - ; 1 5 g k k m N n j 6 6 6 g j ",
"i a l k k x x k k j g h 5 t Q r.z.N.T.5X9X8X9X8X9X8X8X8X8X8X8X8X8X8X8X7X1XZ.m.V.P.e.T o o O # # # # ; ; 1 1 g g k x M M k g g 6 ",
"i r j k z x x x k h g 6 3 w ! y.n._.OX3X1X.X.X.X1X4X9X8X8X8X8X9X4X4X6X4X1X`.h.w.i.e.~ # O # # % # # # # = = = > 3 6 g c m k 6 g ",
"9 r j j x c x k k h g 6 < 9 ! r.n.'.+XXXp.e.a.Z.Z.'.XXOXOX+X+XoX'.'.XXoXoX.Xm.r.r.w.^ & o % - = - = = = = = = = ; 1 3 g x x k g ",
"7 t z z k k k k h 6 6 5 < t W u.A.XX@Xm.&. .$.b.n.b.n.A.Z.C.n.b.n.M.p.a.C.A.m.i.i.>.W & # % % - - ; ; ; = = ; ; ; 1 3 g x x x x ",
"1 g x c k x k g h 3 2 4 , 7 R u.Z.XXZ.e.+.&.s.A.L.D.n.b.M.h.u.w.2.%. .] r.n.b.w.2.+.W t 5 5 < : ; ; ; > 1 5 3 6 g g g g x x k k ",
"g j k k c x k g h h 3 < * * J 2.Z._.p.%.e.m.XX4X4X2X[.K.A.C.M.u.0./ d E >.h.p.2.%.o.K 6 j k j w 6 2 1 > 1 6 g g x c c c x x k g ",
"k k k k k j g 6 3 1 : * & & e o.M.C.u.%.e.'.6X8X9X0X3X2X2XoX'.C.m.&.^ W +.i.j.w.>. .s 4 > 2 g j k j 6 1 > 1 1 6 g g k x g g k k ",
"j x c x k j g 3 1 < : & + + & s 0.M.p.&.M.+X9X6XoX#X X_.[.]..XoX`.i.o.^ O.r.i.w.2.[ B 5 - ; 1 g j n x j g 1 1 6 g g g g g g g g ",
"k k j g k h 3 1 > = # o $ $ $ 7 ^ p.m.l..X4X7X5X'.L.D.D.D.N.K.XXZ.w./ R O.e.r.%.[ S l 6 6 2 1 1 g g x m x x c M x g g g g g g k ",
"c k g g g 6 3 > ; O + . + % * * i O.p.A.XX2X5X2X_.b.t.<.t.j.C.K.A.>.! / &.&.O.W s 8 5 6 6 h g 6 > 1 g g x c M c k k g 6 3 6 g g ",
"x c c k g 3 > = + o . + + : * $ + i o.u.A.K._.L.b.0.=.;.t.p.n.m.p.,.O.O.+.[ V 9 < ; ; > 6 6 j x g 1 1 g g g j j g k k g 1 1 3 3 ",
"g j k g g g > = o X X o @ * : # * 7 d ^ w.M.m.h.0.,.=.=.%.w.r.r.e.>.-.@.^ C 8 < < 1 ; = ; 2 j k c g 3 ; 1 1 3 6 g g k x g 3 1 1 ",
"g g 3 3 3 2 > ; O o . . = - : : & $ % 7 J *.u.b.b.u.w.,.+.%.,.&.%.+.o.W s < : : 1 6 1 = O = 1 g x c k g 1 > ; 1 2 6 g j k k g 1 ",
"g g g 3 1 > ; O + . o + # * : : % + + o + 7 C } =.0.0.&.%.#.+.o.^ W d 0 , , , ; 1 1 1 ; O o = ; g g k x g 6 1 = ; : 1 3 g g j k ",
"g g g g 3 > ; O . . . . + = - * % + + o o . + & 4 y H K ^ ~ T s 0 8 , * : : 1 1 1 1 1 = O . . = 1 g x x x x j 3 = O ; 1 1 6 g g ",
"j g g 3 3 1 ; = o o . + o + % : : % o . . . o + $ $ @ & y e 9 8 : & % - : ; < 1 > > ; = = = = ; ; 3 g x k x c k 2 = = 1 3 3 3 6 ",
"h g g w 3 1 > = + O % % + + + O - % O o . . . . . + + + + o o + + @ - : 1 2 > > < > 1 > 3 5 1 ; ; > 3 j k x x j g 1 1 j n n k 6 ",
"h h h h 6 5 - # O O % - O O % % % - - o + $ $ + + + o X . . . o O - : < 3 2 > 2 2 2 3 g g g 1 = = > 3 g g g k x x g g n M n n n ",
"k j h w 6 5 - # # - - - % = > > : - - O @ % & & & + . X . o @ : < 1 2 3 5 3 3 g 6 g g g 6 > ; = = > 6 h k x x x g k n n n n n n ",
"B z j h 6 5 < : : : : : : < > > > : - - @ % $ $ + + + $ + @ - 1 2 2 3 3 5 2 3 h g h 3 3 2 ; ; < 1 2 6 k x c c x x n n x k k x k ",
"' Q B B j 3 5 5 2 1 2 5 5 4 1 > > ; : - O % , 7 & & % & @ - : < 2 2 5 6 w w 3 w g 3 3 3 6 6 g g k x x k c c c M n n k g g j j j ",
"1.| ) B j w 6 6 h 6 h h w 5 4 < : : - O O O : : * & + + O O ; < 2 3 w 6 6 3 2 > ; ; 1 g x c c k k k c x j j j g g g g 6 g 6 w w ",
"6.6.-.} Z l w h w w 5 w 5 1 ; : ; % % - : - - : : : : - # = ; 1 3 6 6 6 3 2 < ; 1 3 h x x x c k h g g g k j 6 6 6 6 3 6 6 1 1 1 ",
"6.6.3.1.-.{ Q Z B b j 5 5 5 < < 2 2 > > < > > > < < > > ; ; > 3 5 5 6 6 1 ; - 1 k k j g g j j g g g 6 3 3 3 3 3 3 3 1 > < ; = ; ",
"U.U.S.S.6.6.6.4.:.;.| _ S z j h 2 2 2 < 1 2 2 2 2 2 2 2 1 1 > > 6 5 3 1 > 2 3 g g g g g g 6 6 g 6 6 3 1 1 ; ; ; = = = ; 1 1 1 1 ",
"/./.W.W.)./.U.S.S.x.v.g.5.=.) B w 6 2 3 3 3 3 3 6 3 3 3 3 3 1 < 2 2 5 3 2 3 h h g 2 3 3 3 ; ; ; > > ; = = O = ; ; > 1 6 g g g g ",
").).).).).)./.U.H.S.S.S.S.S.g.;.L j 3 6 w h w w h 6 3 w w 3 3 2 1 3 w 6 g g h k h 3 5 h 3 3 > ; ; ; ; > 1 1 3 6 g g g k g x g x ",
").%X%X).).).(./.U.U.S.S.J.H.S.S.d.{ Z r h h h h h w w h h h h h 5 2 3 h j k j h h j j h g g g g g g g g g g g k g k x n x x n x ",
"-X-X-X-X=X%X).(./.E.U.H.J.H.H.H.J.k.;.Q B z z z j h h h g j j j w 6 3 3 5 h h j k k k x k k k k g k k k k g x x k j x n n n k g ",
"-X>X>X:X:X=X%X(.^./.E.U.I.H.I.I.R.I.x.6.#.| | { _ Z z k k j j j h h w 3 > < 1 2 3 g h g g h h g g g j k x g x k k k k k k k k g ",
">X>X,X,X:X;X=X%X$X(.^.W.E.U.H.I.U.E.I.H.c.B.F.c.f.1.| _ S z j j w w w g 5 5 1 < > > 3 3 3 6 6 6 g 6 6 6 g g g g g g g g x g g g ",
",X,X,X:X:X;X=X=X%X$X^.W.W.E.I.G.G.I.I.I.I.!.}./.E.I.x.g.-.' S k j j h 6 j j j w g 6 g 6 2 > > = ; ; > > ; 1 1 3 3 3 6 6 g g g g ",
",X,X,X>X-X-X-X=X=X|.^.^.^.^.Q.I.I.G.F.F.Y.!.$X$X$X$X#XQ.F.f.=._ m k g j z k j j k j j j g 6 6 1 ; = O o # # = ; ; ; > 1 1 3 6 g ",
",X,X,X<X;X-X=X=X=X}.=X^.|.}.^.Q.E.Y.G.F.I.Q.(.$X$X&X*X*X#XE.S.6.{ S k j k k j k k k x x k j h 6 6 ; # # o # : 1 1 : ; = # # = = ",
":X:X:X;X=X=X%X).^.=X=X|.=X}.}.^.!.R.I.R.!.^.#X&X&X*X*X*X&X(.W.I.x.3.{ Z v k z k n k j j j k k h 6 6 2 : = # : 5 6 6 2 1 ; = # # ",
"-X:X:X-X=X).$X^.=X=X=X=X=X$X}.=X^.E.H.I.^.(.$X*X=X*X*X&X&X$X#X/.!.R.x.5.@._ A n m m v k k k j j g 6 6 1 > = ; 6 g 6 6 6 1 1 = = ",
"-X:X:X-X).).%X=X=X=X=X=X=X=X}.^./.E.R.E./.^.$X=X-X-X*X*X$X*X$X^.#X(.!.E.H.g.;.' ! Q z k n k k k g 6 6 2 1 ; : 3 g j g g g 6 3 1 ",
";X;X-X=X).).).=X=X=X}.=X=X$X$X^.^.!.E.E.W./.$X=X>X>X>X>X=X%X&X$X^.!.^.^.(.E.F.f.1.=.} l w 6 h k k j 6 3 1 : : > 6 g g g g g g g ",
"=X=X=X=X).).=X=X=X=X=X=X|.-X$X^.}.^././.^././.$X=X>X-X-X=X&X$X$X/.W.W.W.W./.E.I.B.g.;.U k j j j j j j 2 5 > ; = 6 j g g j g g g ",
"=X$X).=X).).).-X=X=X=X=X$X=X$X$X{./.E.^.%X$X/.~.}.&X&X&X&X&X%X$X(.E.E.W.E.U.E.R.I.B.y.@.U Z j h w w 6 5 2 : ; ; 6 g g g g g g k ",
"=X).).^.).^.^.=X=X=X-X=X|.$X^.^.W.Y.T.{.=X=X$XE.E.~.^.=X^.{.|.{.^.E.R.R.Y.Y.Y.Y.P.B.l.5._ j < < < 2 5 w 2 2 > > 1 6 j j j g 6 j ",
"=X=X=X^.^.^.^.}.|.|.$X$X{.{.{.~.E.E./.$X|.^.^.~.E.^.{.}.^.^.^.^.(.E.R.E.E.E.E.E.R.G.z.r.{ l - % & < j j 3 2 : ; 5 6 j k j g 6 6 ",
").).).).^.^.^.=X$X^.^.^.{.|.{.{.^.{.^.^.^.^.~.~.~.E.W.{.{.^.{.|.{.^.Q.Y.E.Q.!.^.^.R.B.k.,._ w < , < t w w 5 < ; < 5 j j k j j 6 ",
"W.W.^.^./.I.I.~.^.{.|.}.^.{.{.|.{.{.^.E.E.^.=X=X~.E.E.^.=X$X~.}.}.}.^.Q.E.E.R.R.~.~.W.G.j.<.[ ! T C r l t 5 1 < ; 5 j j w w j j ",
"^.E.R.R.P.B.B.G.B.B.B.P.P.I.U.U.P.P.T.~.R.W.^.}./.E.E.E.}.|.|.|.|.|.}.{.Q.Y.Y.R.E./.^.^.Q.P.z.6.5.1.#.} v w 2 1 5 6 j j j j j j ",
"R.P.B.B.V.z.l.k.r.1.1.-.#.#.-.1.1.3.f.l.c.P.T.~.E.R.U.E.~.&X-X|.|.|.}.}.Q.T.Y.E.I.E.E.~.E.Q.T.P.g.f.g.y.{ n 3 1 4 5 j n j l l 6 ",
"k.k.k.k.i.y.y.2.1.-.#.#.#.-.-.-.-.1.-.1.1.1.3.4.y.l.V.T.~.{.|.|.}.}. X~.Q.Q.T.G.P.I.P.P.I.Q.~.~.I.x.k.k.t.` g 6 5 6 j k 6 j j j ",
"4.3.3.3.3.3.3.3.4.y.d.y.6.d.d.d.d.6.4.6.3.3.1.1.1.1.3.f.l.V.Y.T.T.].'.T.P.P.P.P.P.P.P.P.P.Y.~.T.P.B.B.z.N.0.^ n 6 w b k j j j j "
};
