/* XPM */
static char *mimidown[] = {
/* columns rows colors chars-per-pixel */
"64 64 243 2 ",
"   c #030301",
".  c #0A0704",
"X  c #0B0906",
"o  c #0D0C08",
"O  c #130B05",
"+  c #120E09",
"@  c #190C05",
"#  c #15110C",
"$  c #1C140D",
"%  c #1D1610",
"&  c #1E1912",
"*  c #151410",
"=  c #2C0C04",
"-  c #320E03",
";  c #21160D",
":  c #2A160B",
">  c #2C190E",
",  c #26140A",
"<  c #351103",
"1  c #331B0D",
"2  c #3C1B0B",
"3  c #391408",
"4  c #241A13",
"5  c #2A1E15",
"6  c #271F18",
"7  c #231912",
"8  c #331E11",
"9  c #3B1E11",
"0  c #2C2016",
"q  c #2C221A",
"w  c #342215",
"e  c #3B2313",
"r  c #33251B",
"t  c #3B2A1D",
"y  c #3A281A",
"u  c #3D2614",
"i  c #352A21",
"p  c #3B2D23",
"a  c #392F28",
"s  c #3D3127",
"d  c #2F2620",
"f  c #431C0B",
"g  c #481A0A",
"h  c #5C1F0B",
"j  c #531D0B",
"k  c #4B1E10",
"l  c #49210D",
"z  c #54220E",
"x  c #5C210D",
"c  c #432414",
"v  c #4A2414",
"b  c #442A16",
"n  c #4A2A16",
"m  c #432C1B",
"M  c #4B2E1B",
"N  c #532413",
"B  c #5C2512",
"V  c #582A18",
"C  c #4B311C",
"Z  c #47301B",
"A  c #53341C",
"S  c #59371E",
"D  c #63220E",
"F  c #652411",
"G  c #692613",
"H  c #6B2D1A",
"J  c #672A17",
"K  c #712C1C",
"L  c #6A321E",
"P  c #422F22",
"I  c #4B2D20",
"U  c #443224",
"Y  c #4B3523",
"T  c #43352B",
"R  c #4D392B",
"E  c #4B3827",
"W  c #533522",
"Q  c #543B24",
"!  c #5C3D24",
"~  c #533C2C",
"^  c #5B3E2B",
"/  c #5B3522",
"(  c #4D3D32",
")  c #443A31",
"_  c #573F32",
"`  c #512F20",
"'  c #762E22",
"]  c #673825",
"[  c #7A3125",
"{  c #7E3428",
"}  c #773928",
"|  c #5D422B",
" . c #5A4128",
".. c #544134",
"X. c #5B4434",
"o. c #54453B",
"O. c #5B463A",
"+. c #5C493C",
"@. c #4E4039",
"#. c #62442B",
"$. c #64492E",
"%. c #69462C",
"&. c #75432E",
"*. c #654B33",
"=. c #6A4D34",
"-. c #634C3B",
";. c #674734",
":. c #734C34",
">. c #7B4935",
",. c #6C523B",
"<. c #6B5038",
"1. c #725135",
"2. c #74553B",
"3. c #7B5A3E",
"4. c #7A563C",
"5. c #71522B",
"6. c #5B4C42",
"7. c #544841",
"8. c #5D514A",
"9. c #624E42",
"0. c #635145",
"q. c #6A5342",
"w. c #6A564A",
"e. c #725642",
"r. c #745A44",
"t. c #7C5D43",
"y. c #745C4B",
"u. c #7B5D48",
"i. c #6B5B52",
"p. c #725E52",
"a. c #745F58",
"s. c #7B624C",
"d. c #7C6046",
"f. c #7C6453",
"g. c #75635A",
"h. c #7A665A",
"j. c #7B6C64",
"k. c #81352A",
"l. c #823A2D",
"z. c #853E31",
"x. c #8C4C3C",
"c. c #884637",
"v. c #83543D",
"b. c #86563F",
"n. c #904E3F",
"m. c #8F6B35",
"M. c #835C42",
"N. c #8B5C44",
"B. c #885944",
"V. c #965A48",
"C. c #8C5447",
"Z. c #836245",
"A. c #84664B",
"S. c #8B644A",
"D. c #8A6A4D",
"F. c #87654A",
"G. c #93634D",
"H. c #926A4D",
"J. c #9A624F",
"K. c #856A53",
"L. c #8C6D52",
"P. c #846C5B",
"I. c #866A58",
"U. c #946D53",
"Y. c #9B6B54",
"T. c #996853",
"R. c #8D7155",
"E. c #8C725C",
"W. c #937255",
"Q. c #95765A",
"!. c #9A755A",
"~. c #9B7A5D",
"^. c #977559",
"/. c #A16956",
"(. c #A2745D",
"). c #A07B5F",
"_. c #A1644F",
"`. c #826D62",
"'. c #8B7363",
"]. c #88746A",
"[. c #9C7D62",
"{. c #937B6B",
"}. c #947A65",
"|. c #8D7C73",
" X c #937E73",
".X c #A37D63",
"XX c #A87963",
"oX c #9E8065",
"OX c #9D836D",
"+X c #9B8374",
"@X c #998579",
"#X c #8D817B",
"$X c #A28366",
"%X c #A48669",
"&X c #AB856B",
"*X c #A6896D",
"=X c #AA8A6E",
"-X c #AA8367",
";X c #B0896D",
":X c #AB8D71",
">X c #A38B77",
",X c #B28E72",
"<X c #B48672",
"1X c #AE9175",
"2X c #AB937A",
"3X c #A7907B",
"4X c #B29376",
"5X c #B3967A",
"6X c #B6997D",
"7X c #BA9A7C",
"8X c #BA9379",
"9X c #B0906F",
"0X c #9C8B84",
"qX c #978682",
"wX c #A28C83",
"eX c #A89489",
"rX c #B59B82",
"tX c #BA9E82",
"yX c #B19B8E",
"uX c #AB9B95",
"iX c #B29E92",
"pX c #BEA185",
"aX c #BDA58B",
"sX c #BFA88E",
"dX c #B7A087",
"fX c #B8A59B",
"gX c #AFA29C",
"hX c #B8AAA5",
"jX c #BEB1AC",
"kX c #C09D83",
"lX c #C3A68A",
"zX c #C1A98E",
"xX c #C3A486",
"cX c #C3AC92",
"vX c #C7AD95",
"bX c #C9B198",
"nX c #D0B398",
"mX c #C3B4AC",
"MX c #C7BAB4",
"NX c #C0AEA3",
"BX c #CDC2BB",
"VX c #D2C3BB",
"CX c #D1C6C0",
/* pixels */
"[.OXOX+XE.E.e.q o o                                 X O + .       # 7 6 7 . X y 5 . + > 0 > > 7 ; 1 u n l l l j j j j h h h h h ",
"'.'.'.'.h.0.i o                                     . X # $ $ o   . $ 0 5 X O t 5 o ; 5 w w 0 > ; 1 n c k z z k j h h h h h D h ",
"9.q.y.p.6.d o                         X   X X # $ $ $ * o . + 7 7 X X > # + # 8 ; : > 1 e 8 > , : l l z x x x z j h h h h D D h ",
"~ R R o.a *                 .   X X X o # # $ 7 q r t p s r # + 6 $ O 5 ; , w > > 8 e e l 2 l g B G G D D D h h h x x x D D D h ",
"U U T s & X                   + # o o . .     . ; w ; $ r ( T & % % ; y > e Z W $.| A N z x D D G G G F F F D D x x B z h x x x ",
"p P p q +                       X .             . 0 4 $ $ t ..i # > w Z | 4.2.D.Q.Z.5.J J D F D F G G F D F D D D D z z x B x z ",
"y t p 7 X                                 . X     # 5 p p t Y p 5 C =.A.W.~.R.~.^.W.Z.3.2.%.J G G F G F F D D D x x z z N z z z ",
"I m w $ X       X X           X o o + X o + + .   + > t E R m Q 2.D.D.D.R.~.~.~.W.A.D.R.Q.b.L z g 3 g g D D D h x V B z x x x x ",
"Q U r % o         * # # # o o o + + + + . X X O X $ ; 5 r y *.Q.~.D.R.W.~.~.~.~.L.D.~.R.3.=.c < < - < < f B V V B B x F D D D D ",
"^ E y 6 #         X * 6 6 & q & % # + X       . . X   . . + u.:X%XR.D.t.D.W.A.D.3.1.2.! l l 2 < < < - < l V x x F F D D D D D D ",
"~ Y p 6 X           X * % 6 & q & % # + X     X # ; o + X > u.4X6X4XQ.3.Z.2.5.%.!  .S n 3 2 2 < < < l l x x F F F F F D D D D D ",
"W Y r +           X X X . X   o $ % 7 $ ; $ # ; 7 $ ; r r T _ .X5X*XQ.5./ n ! ! ! S n c < < 3 2 2 l B x x D F x F D D F D D D D ",
"b m 5 o       X * X             + $ $ + $ 4 7 : , # > r R P 9 _ 3.2.<.:.$.!  .! ! %.S 2 2 9 c l B B J ] K F F F F F F F D D D D ",
"e w $         X X . X X X .           o @ 4 4 4 4 : 5 r 5 5 8 I Y $.=.=.=.#.#. .! %.1.2.X.S ] H J J L 4.&.&.J F F F F G F F D F ",
"w > o           o + & & 6 # .     X + # 7 6 7 $ @ # $ , 5 d i ( ^ W ^ <.=.:.=.%.5.3.Q.$XoXZ.t.3.] H >.D.b.5.G G G G G G G F F F ",
"4 # o   .     X * % 6 7 7 7 * + + $ 0 6 $ X .   O O + 7 5 i P _ Q c v ^ 4.2.1.3.~.~.oX*X9X%X~.oXD.b.W.D.5.L K K H G G G G F F D ",
"@ . o X     X o . # # & q & $ # $ 6 4 # . . o + X # 7 5 6 p T ( 9.9._ I ^ M.~.*X:X=X$X=X=X$X~.$XoX$XoX~.D.F.>.K G K K G G G G D ",
"$ .               o % q $ # # 7 4 $ + + # $ # $ 7 ; 7 5 5 T ) ( _ p.w._ / M.:XpXpX6X4X=X=X*X*X$X$X$X1X*XoXoX$Xv.K K &.&.} H G G ",
"& # o X         # 4 # o # # & & # o # 4 7 7 > 7 7 7 4 5 p i T ( 9.a.].j.A.B.Q.1XtXpXpX6X1X4X*X*X1X$X$X1X*X$X%X~.b.v.W.H.S.] L G ",
"% * o       X + * #   # q 0 & * % 0 r r 6 7 $ 7 ; 7 6 i p p p 6.a.j.|.|.qXqX#X+X:X6XpXxXpX6X1X*X=XoXoX*XoXoX$X:X9XoX$X%XU.3.m.&.",
"* X         X X   . * q 4 7 q q 4 0 6 $ # $ 7 7 6 & 4 6 d 7.7.i.j.|.#X#X#Xj.8.q.f.}.:X2XtXpX*XoX=X1X%X:X~.Q.W.9X%X*X$XoXQ.[.W.A.",
"X             o # & 0 % & r q 6 i 0 $ $ > 6 7 ; & 6 d a 8.j.qXgXjXjXhXhXuX0X|.].+X#X@X@XwX3XrX6X1X1X%X4X:X%X%XoX%X:X:X%X$X$XoX~.",
".     X     + % & $ $ 7 q 7 7 r p q 0 0 5 4 7 r d 6 @.g.qXhXMXBXCXCXBXBXjXjXhXgXhXhXhXuXeX{.}.:X1X=X:X1X:X$X1X4X1X:X9X1XoX~.$X~.",
"          . $ * . X 6 i 0 q p s 4 7 4 4 0 0 p p d @.j.0XhXjXMXBXCXjXjXhXuXqXuXuXeXiXfXfXeX`.q.0.E.1X4X6X5X*X$X*X%X%X:X1XoX~.%X$X",
"          + 7 # . # 6 q 7 r r 6 $ $ 7 0 r U i a 6.g.0XhXgXhXhXhXjXjXgXqXj.j.hXeX+X'.}.@X{.|.h.) ..Q.1X6X6X1X*X*X*X%X$X4X5X=X*X1X",
"        . + $ . + 7 6 # 7 r 7 $ 7 ; 0 U T U ( 0.`.0XgXgXgX0X#XqX0XqXa.@.i.uXhXuXOXf.e.h.P.].0.i ..e.[.4X4X6X%X[.=XR.R.:X5X*X%X%X",
"        + + @ X # 6 ; + 6 6 $ % 7 0 t R o.9.w.h.eXhXhX0Xj.7.8.i.a.i.@.i j.uXmXhXOXe.q.q. X@Xi.~ O...K.5X6X7X1X=X9XoXoX~.%X*X9X*X",
"      . + $ $ $ $ 4 % # 7 $ # $ 6 p ..w.w.-.p.@XuXuX X|.|.|.qXeXuXeXqX6.O.qXMXMXrXu.+.y.'.h.T p r U *.4XtX4X4X4X5X1X9XQ.D.=X4XoX",
"      X # ; # X $ ; $ 6 $ % # 7 s -.h.f.+.K.iXmXhX0X X@X0X>XeXfXNXhXjX`.} C.8.j.oXt.,.0...r r r r w M !.xXrX1X5X4X5X:XS.W.*X=XQ.",
"    . + $ # . . $ # + $ 6 q q p ..g.h.*.e.eXmXmXfXiX>X'.P.{.+XsXMXVXhX_ ;./.>.` / | E Z Q -.-.-.q.U c } J.,X%X=XtXxX4XZ.W.6XoXF.",
"    . @ + X O # @ $ $ $ % & a o.w.].K.w.+XfXMXmXhXyX{.E.u.f.u.+XNXNXa.8 ^ c.] k 2 9 e Z q y S C #.P m >.k.V.,X*X7XlXlX7X9X=Xb.D.",
"    . . . # 7 ; + $ 7 $ % $ p o.h.P.y.P.wXfXbXhXeX{.P.E.I.y.-.u.%X&X_ c c f f f 2 > b  .& 0 m.! ~ ;.R :.l.[ C.-X5XlXlXlX7XoXF.t.",
"    O @ @ $ 4 0 & & q 6 & q a 8.h.h.P.+X+XeXwX+X#X].`.p.-.-.q.d.u.4.! b f l f 2 2 8 M m.5.#.#.> *.y.*.u.C.{ k.z.XXaXzXkXxX4X:X[.",
"O . . . O O $ 5 & 6 q 6 q d a 8.h.h.@X+X@XeX@X+X{.{.#XE.P.r.....P m e M n f 2 2 n X.r.|  .C y o.w.-.f.}.[.J.l.{ { V.tXzXtXpXtX5X",
"O @ @ .   O @ $ # q q q d d s 8.i.7.o.o.0.w.g.i.8.p.+.+...t Z C e > > y m W #.#.,.9.yXyX{.'.{.g.R R K.}.&X XC.{ [ [ C..XtXtXtXtX",
"$ = 1 @ . @ @ O $ > > > q q d s ) 8.) 0 r a 6.o.t a i & 0 ..C  .5.M r f.s.+.2.:.<.9.h.uXw...h.g.R ..I.`. XwXI.>.' ' ' { Y.tXxXtX",
"u e e @ @ , @ 1 A 2.2.r.I.w...R p o.q...6.g.`.w.r a 0 s X.w # i m.5.0.fXhXi.,.q.q.y.a.].a.6 p +.R -.0.h.].>X{.U.C.[ ' { l.Y.6XtX",
"1 @ @ O ; > :  .D.oXoX:X1X%Xt.| t r s s T 0.0.p i a R ,.b A  . .m.X.].VXVX@Xp.s.;.w.g.P.w.y U ^ ~ O.;.q.I.].{.'.A.c.' k.{ l.XXxX",
"@ . X : Z | d.q.K.,.d.2X2XK.s.s.K.o.t Z r r T U r U -.~ 1 S 5.%.A s.+Xh.uXeX].i.) T _ ( ~ P E ~ ^ ^ O.-.,.u.A.S.u.N.c.l.l.[ z.Y.",
"@ O : S s.oX2XrXrX>X'.:XtX5X7XtX6XR.,...Y p 0 0 5 r y E X.p i i 8.3X6.# i.@X|.O.8 5 p 8 : 9 m A $.=.#._ _ ;.q.t.e.s..Xx.l.{ [ [ ",
"@ O t d.*X4X6XdXaX2Xy.*XpXU..X7X:XE.rX1Xe.U r w 8 P P _ O._ ( R 6.j.+.4 p 0.w.U 8 : e c b 2 3 V :.1./ f v #.<.2.u.W.&X.XC.k.k.k.",
", n 2.Q.*X:XH.^.dX*XOX6XpX&X:X7X2X*XzXvX2Xr.m m m I ~ Y E R ( p T 0.0.) p Y y p P ! ` ! ! V L } b.D.4.v v #.$.W 1.W.W.$X-XC.k.k.",
"1 *.L.D.~.%XW.L.f.q.oX2X:X*X6X}.s.E.6XbXvX>Xe.,.;.a.{.a.9.X.O.........o.o.U c m ^ ! %.:.N H c.T.V.$XU.^ M.Z.] ^ d.L.L.L.).(.z.k.",
", $.D.W.~.$XB.:.,.}.3XE.y.r.s.R f.oXH.4XzXrXL.D.I.>X>X X`.'.'.r.X.~ ..O.,.e.#.^ A #.M.S.{ k.[ G.-XW.$X~.%X~.r.u.M.U.K.A.D.).(.J.",
"m 1.D.~.%X=X~.N.[.aXcXaX}.}.rX2XaX&X.X.X=X6X=X.X'.XXqX].h.P.f.-.~ ..m e.u.#.^ ;.}.8XI.[ { k.' B.^.;.S.!.[.A.=.L.T.G.L.r.=.-X9X5X",
"0 Q %.Z.$X4X$XU.rXsXaX3X}.yXzXrX!.B.!.Y.XX8XoXQ.}. XwXwX X'.a.q.~ ^ ` L.q.V ] T..X5X&.' { k.' &.D.] x.XX5X$XQ.K.Z.M.B.u.=.-X9X~.",
"Y A :.H.$X4X.XG.2X6Xh.q.OXzXsX[.B.G.-X.XG.c.] } I.{.wX0X X{.P.-.X.~ v L./.V.C.C.z.z.{ [ C.Y.z.K ] ] z..X4X&XW.L.[.u.e.$.D.=X9X~.",
"Q d.W.$X&X:X6X:X*XR.E.rXvXcXtXoX%X4X>XG.] B.N.B.S.A.].{.].`.p.X.X.^ v !.<X/.z.V.x.z.C.J.<X&XG.K K [ x.$X:X&X.XoX[.D.Z.~.9X-X7XxX",
"R.*X1XoXR.*X=X=X6XdXsXbXcXdXoXoX3XdXsXE.w.oXoXoX$. . .q.-.O.X.I Y 8 e ] >.} Y.6X=X.X.XG.N.W.M.B j B N.=X*X5X4X/.&X7X:X4XV.J.$X$X",
"%XoXE.,.K.6XpXdXsXzXzXsX6XOX3X2XsXbXcXcXcXbX6Xr.Q b Y ~ ~ R Y y 2 2 e 1 b ] F.D.L.A.r.^ ] %./ f 3 g N u.$X&X4X(.&X.X!.!.n.G.;./ ",
"s.2.r.oX6XpXsXzXzXzXcXdXh.+XsXbXbXbXbXbXcXbX3Xq.<.v M Z U Z m 1 1 c C M : v t.D.W.u.y = b k f f 3 g / / t.^.&X<X,X<X:X4XJ.c.Y..X",
"D.D.>X6XdXsXlXaXdXsXpXOXoXdXbXsXcXbXbXsXcXbXcX6XZ.! b m m m c > C Q ! ^ M 8 W u.L.R.,.M N N %.1.] V t.&.J c.Y.V.(.Y.XX;X4X&XkXxX",
"D.D.2X6X6XdX=XG.Y.Y.H.v.Q.*XdXcXcXcX3Xp.oXcXcXcXE.=.m 1 9 b c e Q |  . .| W 1 ^ t.U.2.N N N :.3.2.4.b.5.] } l.z._._.c.(.8X9X7X9X",
"t.A.5X6X:XD.b.H.S.S.$XW.Q.oX%XpXcXcXOXK.2XsXbXcXE.=.! C n W | | #.| $.$.*.| t 3 f 2.4.V S 1.b.t.M.t.2.4.S.c.V.n.C.(.z.c.<X9X4X9X",
"<.oX6X1X^.H.W.^.^.$X).^.).N.G.4XsX6XR.%X6XcXbXsXd.#.*.#.#.#.*.| | $.*.=.<.<.*.m - 3 N ] b.Z.D.=.%.=.4.3.).&XkX8XV.XXx.k.c._.9X7X",
"1X5X1XQ.&.S.W.R.R.L.R.~.oX).).!.oXd.s.*X6XsXcX6X3.$.=.$.A n C ! #.$.$.*.=.<.<.;.P - 3 ] M.D.3.z S &.] :.).7XkXxX_./.x.z.x.V.(.;X",
"4X4X=XZ.H.^.~.d.*...q.E.oX^.oXH.*XoXK.OX%X9X2X*X=. . .C c b u C $.=.$.$.$.<.=.<.| b 2 S 1.b.t.5.b.Z.! ] ).xXxXkXV._.V.z.<XkXXX/.",
"1X4X.XZ.H.Z.A.,.f.,.,.R.oXoX$X9XsXsX6X6X6X2X6XR.$. .b u b c 1 2 n #. .#.=.=.=.=.=.$.t 9 S 5.b.S.Z.Z.S ! H.7XxXxXXX8X8X/.8XnXkX_.",
"~.K.:.b.W.S.^.R.P.+.,.Q.~.-XH.=XcXsXsXsXsX6XsXoX$.A u b Q | C u n S #.$.*.<.=.$.=.=.X.e 1 A 4.Z.F.F.%.J S.xXxXxXnXlXvXxXnXxXkXV.",
"Q.A.:.m.v.v.W.R.2.d.Q.oX$X!.).pXcXcX2XOXOX*XdXE.|  .A A  . .u < c  .#.$.*.*.<.=.=.<.$. .2 : A :.1.3.4.#.&./.-X7XkX8X,X8XxXvXxX&X",
"1X1XQ.M.>.H.H.W.~.Q.Q.J.G.S.&XcXcXsXE.*.q.oX7Xf.$.Q A A b u 2 < w Z Q Q t y Z Z E A E  .Y 3 = 3 l z N j B c.-X7X4X2.&.c.V.).5X9X",
"1X1X*XW.W.H.b.^.!.B.U.U.U.:XzXzXsX3XP.E Y d.oXd.*.Q A A b A A C u ; u t E Q  . .Z w > 8 I 8 = - 3 g j ] b.x.Y.9X~.} c.V.c.} b.S.",
"1X5X4X5XoX%.b.-X!.v.G.=XzXcXzXcXsX>X,.p  .<.3.,.| A A Z c n A A S b C Z  .$.*.*.A C b w c m 8 = - 3 V t.4.n.V.9XG.z._.lX5X/.).U.",
":X4X6X6X1X3.L.5X5X5XzXcXcXzXsXzXdXoXE p *.<.<.<. .A A b : : C 1 w b A u 0  .*.$.Q C S b e y m m 3 - N %.b.n.J.!.U.z.XXnXnXrX[.2."
};
