/* XPM */
static char *mimi_deep_look[] = {
/* columns rows colors chars-per-pixel */
"64 64 217 2 ",
"   c #000000",
".  c #0A0605",
"X  c #0C0807",
"o  c #0D0A0B",
"O  c #090708",
"+  c #120A06",
"@  c #120D0D",
"#  c #1A0E09",
"$  c #180C07",
"%  c #16110F",
"&  c #1B110D",
"*  c #0E0E11",
"=  c #110F11",
"-  c #141213",
";  c #1A1514",
":  c #1D1817",
">  c #16161A",
",  c #181718",
"<  c #171819",
"1  c #1C1A1B",
"2  c #24130D",
"3  c #29150D",
"4  c #3B1C0F",
"5  c #241512",
"6  c #241915",
"7  c #2B1A15",
"8  c #231D1B",
"9  c #2B1D1A",
"0  c #2A1712",
"q  c #331C13",
"w  c #3D1F11",
"e  c #301E19",
"r  c #25201F",
"t  c #2B211D",
"y  c #3E2114",
"u  c #32221D",
"i  c #392419",
"p  c #1C1C22",
"a  c #201F21",
"s  c #252223",
"d  c #2B2523",
"f  c #2E2827",
"g  c #2A2729",
"h  c #2D2A2B",
"j  c #252428",
"k  c #322523",
"l  c #342A26",
"z  c #3B2B25",
"x  c #332D2B",
"c  c #3A2E2A",
"v  c #3F242C",
"b  c #35302E",
"n  c #3B322D",
"m  c #2D2D32",
"M  c #342F31",
"N  c #3B2D34",
"B  c #343233",
"V  c #3B3533",
"C  c #3D3836",
"Z  c #333438",
"A  c #3B3639",
"S  c #3C3A3B",
"D  c #442314",
"F  c #4A2616",
"G  c #4E2917",
"H  c #4C2A1B",
"J  c #462A1D",
"K  c #532A17",
"L  c #542D1A",
"P  c #5A2F1A",
"I  c #4C331E",
"U  c #5C311D",
"Y  c #55301E",
"T  c #63351E",
"R  c #6A371E",
"E  c #6B381F",
"W  c #442C23",
"Q  c #472E27",
"!  c #4A3423",
"~  c #42332D",
"^  c #4B362D",
"/  c #473826",
"(  c #543323",
")  c #5C3422",
"_  c #523A2C",
"`  c #5A3B28",
"'  c #423632",
"]  c #433935",
"[  c #4B3B34",
"{  c #43343A",
"}  c #443E3C",
"|  c #4B3D3A",
" . c #4A3739",
".. c #533B34",
"X. c #583F34",
"o. c #623621",
"O. c #653924",
"+. c #6B3B24",
"@. c #653D2A",
"#. c #6B3F2A",
"$. c #723D24",
"%. c #793F23",
"&. c #56432A",
"*. c #4B423E",
"=. c #47413F",
"-. c #54443D",
";. c #6D412C",
":. c #674B2D",
">. c #764126",
",. c #73422B",
"<. c #79452B",
"1. c #7D492F",
"2. c #7D4326",
"3. c #6E4430",
"4. c #6C4939",
"5. c #734631",
"6. c #764933",
"7. c #7C4A32",
"8. c #784D3A",
"9. c #765738",
"0. c #695735",
"q. c #7C6031",
"w. c #3D3D41",
"e. c #423E42",
"r. c #4C3C42",
"t. c #3F4148",
"y. c #444244",
"u. c #4A4444",
"i. c #4E4846",
"p. c #45454A",
"a. c #4A4649",
"s. c #4B4A4C",
"d. c #47484E",
"f. c #524543",
"g. c #544945",
"h. c #5B4A42",
"j. c #534C4C",
"k. c #594B4B",
"l. c #574549",
"z. c #56504F",
"x. c #5A504E",
"c. c #4C4D52",
"v. c #524E51",
"b. c #594E51",
"n. c #4F5056",
"m. c #4F5158",
"M. c #545254",
"N. c #5B5454",
"B. c #55555A",
"V. c #5A565A",
"C. c #57595F",
"Z. c #5B5A5C",
"A. c #5E5857",
"S. c #7C5443",
"D. c #604F51",
"F. c #615655",
"G. c #635659",
"H. c #635B5B",
"J. c #685E5B",
"K. c #786544",
"L. c #6E635F",
"P. c #565962",
"I. c #5D5D62",
"U. c #535863",
"Y. c #625E62",
"T. c #5F6065",
"R. c #636164",
"E. c #6A6364",
"W. c #64656A",
"Q. c #6A6569",
"!. c #6B6A6D",
"~. c #66686F",
"^. c #726C6E",
"/. c #666972",
"(. c #6C6D73",
"). c #696B74",
"_. c #716E72",
"`. c #6F7076",
"'. c #6F727A",
"]. c #727176",
"[. c #74757B",
"{. c #78777A",
"}. c #77787E",
"|. c #79797E",
" X c #7A7472",
".X c #824D33",
"XX c #884F33",
"oX c #845036",
"OX c #885134",
"+X c #8A563B",
"@X c #884F32",
"#X c #8C6C3E",
"$X c #827C7B",
"%X c #767981",
"&X c #7B7C83",
"*X c #797D89",
"=X c #7F8391",
"-X c #83848B",
";X c #87868A",
":X c #928F8F",
">X c #868992",
",X c #8B8D94",
"<X c #868996",
"1X c #8C9099",
"2X c #92969D",
"3X c #99999D",
"4X c #9096A3",
"5X c #979AA3",
"6X c #989DA7",
"7X c #9CA1AC",
"8X c #9EA1A7",
"9X c #9FA6B4",
"0X c #A2A5AA",
"qX c #A6ABB5",
"wX c #B0B6BF",
"eX c #ADB5C4",
"rX c #B3BBC9",
/* pixels */
"                                                                                                                                ",
"                                                                                                                                ",
"                                                                                                                                ",
"                                                                                                                                ",
"                                                                                                                                ",
"                                                                                                                                ",
"                                                                                                                                ",
"                                                                                                                                ",
"                                                                                                                                ",
"                                                                                                                                ",
"& # $ $ # # # & & # # $ + . . . . # # # # + . + + X + X # + . . . .   O O O O O O     O           O . . o o O O . .   .   . . . ",
"L ) +.$.1.2.$.o.T U R E o.P P U T +.$.R R P P +.T K o.o.>.P 4 4 q ; * < p p p j g p p > > = - * o o - t f d r t 6 % & ; r r r n ",
"K K P R %..X%.%.+.+.E $.+.P P P T $.$.$.T P P +.+.K T P $.P F D 4 ; * > p p p a m p p p > * - o o @ r V b b b t : : 6 d x f ^ h.",
"L H L U o.$.%.+.o.T T >.>.O.) o.T ;.<.$.+.) ) ;.,.o.o.P +.L F F w ; * > < > 1 j p > > * * * = - % 8 l V n =.=.c u 6 h x x ^ h.n ",
"F H D H U E $.+.T U K T E U D D P T +.+.U P P #.+.( O.;.,.K D D q @ * - > < < j > > * * O * > = + : x b =./ t t u m B x [ -.t ; ",
"o.H D H L T +.+.+.U K P $.R K G U o.+.+.U K K @.@.L L T U w w w 3 + o @ = = = - - * * * O * * o % & r ] -.*.l t u V x ] -.8 % - ",
"@X#.D w H L o.%.,.o.) L $.,.) L Y ) #.%.#.o.) #.@.U ) $.U D y i 6 @ @ @ o @ @ @ @ @ @ - 1 r : - % % l -.&.=./ n n I n *.u ; o . ",
".X@X+.w w H P +.,.O.) P +.,.) Y ( ( #.#.@.Y Y 5.#.) ` o.H D D y 7 @ O O o + @ o X - V z.A.A.=.r r l -.n : r t r t n n : ; @ . . ",
"T $..Xo.D D L R %.+.o.) o.,.#.` X.#.5.7.#.) o.#.O.` ` o.H D y J i.t.w.m r 8 6 % ; b !.$X!.^.M.h V -.*.r : a 8 r ] ] % % o . . . ",
"+.T ,..X) H L T $.$.+.o.T $.;..._ ` @.#.#.O.) #.) ( T +.H H D ~ t.w.w.S r : : 1 b =.].1X1X Xz.d ] *.t : 1 8 1 ] V % % o . . . . ",
"P L o.+X.X( Q o.o.+.O.o.) +.;.-.| | [ ^ ^ ( ) 5.` L T U F G I l h g g B h h j m Z M.=X5X1X!.s.b S n b b f l b n o . o O . . . . ",
"@.o.#.oX+XoX,.5.3.;.;.;.,.7.7.4...-.h.-.{ k k Q ( I H H F i 7 a g a p h m w.t.S p.R.=X=X=X|.Z.B h g h h f b f r , o o * o O O   ",
"7.7.<.,.S.+X7.#.@.@.,.,.+.@.<.<.&.l.k.g.g.} c d f d : r h j < - j Z P.t.a a t.n.w.t.B.(.=X$XM.b x x b b b x h h s j 8 1 1 : : % ",
"7.OXOX5.4.oX8.6.;.3.oX7.o.Y o.o.( ..| | | ] c { C - % S A.a.S j Z m.'.}.t.h (.m.h B t.c.Z.M.s.x x l l f c c c n x m h h g h s s ",
"O.#.@XXX$.@.6.5.;.@.6.7.@.Y U U H Q ^ ^ c u u C M.Z j M.!.M.d.Z S t.C.2X5XI.-.&.&.b S w.S S S b l z z z l l n n c n b b b b b B ",
"@.) o.1..X#.@.6.;.( @.<.,.L H U L i Q W c ] s 8 l &.-.E.:XE.S } w.p.s.>X&X&.q.0.K.#X&.h s.t.Z h l n c n n l l x c n l V Z S w.t.",
"U +.) #..X.X,.` 7.@.` #.<.+.H L L D i k u t 6 ( &./ :.I n j.c V b f n =.b r &.0.q.0.n t.B.t.w.t.b V V n =.z b b n n V n V } p.y.",
"U o.+.O.o.1.XX;.;.8.5.#.7.2.o.L P F q t t z t i &.I &.i + ; t 6 & 2 6 6 f 1 d C =.B Z Z m Z C.'.} C ] V V &.&.] C V C n ' ] ] } ",
") ) +.7.7.<.,.;.;.7.OX<.#.o.Y K K F w d t t 9 : r r t 6 r t t 2 7 t i t t C Z.M.m.C.P.P.t.w.=X'.d.y.=.=.*.*.*.=./ ] ] ] V ' ' ' ",
"W H W L @.;.;.#.@.;..X,.) H D w D D 4 k f.| d : r b b b *.F.-.n ~ 0.9.V M.,X8X].P.I./.1X2X(.W.B.y.d.s.v.M.z.z.*.=.*.] ] ' C C C ",
"| | [ '  .u.-.| *.| [ ^ i q 0 3 3 2 3 3 ] i.V i.E.J.=.S i.$X0X8X&XL.z.].qXrXwX3X{.].=X2X2X1X,X!.T.I.C.B.B.B.z.z.j.*.*.*.*.} C C ",
"N.F.H.H.A.j.u.u.*.n f d 9 & & 2 $ X . + @ ; f J. X XE.A.R.;X0XqX0X$Xn.].,X5XqXqXqX8X8X2X>X1X=X[.~.B.c.M.T.Z.Z.M.M.M.*.=.' C C } ",
"[ [ x.F.z.=.x r : % o o o o o @ @ % - < - < a C M.W. X|.;X3XqXqX7X,X4X7X6X9XrXrX0X,X1X;X&X[.}.`.Z.z.M.s.B.Z.p.y.s.A.N.z.*.*.*.=.",
"! W *.=.b a - @ o o @ @ @ % - : : , ; , < < : a b S i.v.H.!.[.;X4X6XeXrXeXqX6X=X&X!.T.R.Z.Z.W.R.M.M.M.s.p.n.B.s.i.M.M.j.j.z.i./ ",
"| z t r : o o @ % % @ - : : % @ - , - @ @ - - : h r < d f V C Z w.w.d.c.d.n.c.B.A.M.n.=.y.c.!.Z.M.Z.R.M.s.i.B.Z.v.s.s.j.z.j.p.u.",
"n 9 8 a : o @ - ; : : ; % @ o : : @ @ % @ o @ : : 8 8 , < 1 1 < 8 g h m Z Z h m w.S V C S Z.R.=.=.z.Z.R.Z.M.i.d.B.c.=.i.i.i.=.i.",
"] j 8 d 1 : 1 : - : ; @ & @ ; : @ % % X X % @ : : : r r r 8 8 1 1 a s g g h x x B C } i.u.M.W.Z.M.z.M.R.M.M.y.t.m.Z.s.=.*.=.=.-.",
"x a 1 d 1 1 s 1 ; : ; @ 6 : & : ; & & & @ @ % - 8 8 r f b B V b x f h B V C S Z } i.y.S S z.^.J.A.Z.M.M.s.} y.=.d.Z.Z.s.c.s.a.i.",
"d 1 s x g h f h r t r & : & $ : 6 & : 3 % & : ; 1 d r f x B B S y.i.=.u.i.=.] S ] i.N.E.A.z.R.Q.A.Z.Z.Z.Z.v.d.y.y.c.B.n.c.d.c.p.",
"B B h M B y.V B B h r t r r r r t 7 r r : % : 1 1 r 1 f b b Z S S w.a.v.B.A.H.A.N.N.!.{.`.R.W./.R.Z.M.M.M.A.B.M.B.s.c.n.y.S a.i.",
"d A x B } p.y.S C B m } S B C n l z f t t : 1 a a B j f h g B B S t.s.n.M.M.B.I.I.I.R.W.(._.'.Y.z.u.V =.i.B.Z.Z.Z.M.i.s.t.y.s.y.",
"@ < d A A A S C b V S d.s.a.=.=.*.=.] V b r 1 s j h B B h B A t.t.t.c.Z.I.W.).I.M.l.=.| /.[.].a.M.x.j.z.H.Y.Y.R.R.z.s.=.d.n.s.} ",
"@ @ ; f B b Z B m B t.t.} t.y.s.=.w.=.y.w.h j a p j h Z B B p.B.W.T.W.`.&X%X/.Q.Z.i.u.v.Z.G.Q.W.R.R.J.x.A.R.Y.E.R.z.z.v.=.c.n.i.",
"7 6 2 6 l b S Z B B C S S S B Z B B B Z B Z B B M w.d.c.d.y.d.m.n.d.`.'.(.I.(.[.{.!.Z.I.W.Y.N.F.(.!.R.R.Y.!.E.Z.B.M.Z.z.S p.m.d.",
"7 7 5 5 6 9 t f f b V C b f r a 8 < < a s g h ] j.R.].].Y.Y.~.W.y.M.Y.W.!.].Y.B.Z.P.I.R.`.!.R.B.N.].].!.`.!.Q.J.Z.k.V.N.i.C p.c.",
"7 3 ; 5 9 t k t r r r f b m j 8 < < : 8 r t n j.E.].}./.Y.(.(.Y.I.T.N.Q.{.H.m.e.w.} p.M.C.R.W.R.Y.`.|.].[._.!.Q.J.R.W.l.j.j.w.d.",
"3 7 7 7 7 u t 9 r r r r g g s g j 8 r f B ] =.H.]./.H.G.Q.Y.G.Y.].~.M.^.[.U.P.d.M.s.j.d.P.P.`.W.I.R.!.`.}.}._.].R.R._.G.D.G.I.c.",
"5 9 u e 7 0 e 0 t f b B b m h b B x V =.=.y.B.(.[.[.Y.J.E.G.Y.(.}./.Z.G.`.I.P.m.Z.j.j.n.C.B.*X].!.I.R.H.!.[.{.Q.g.Y.(.(.G.k.E.Y.",
"7 e u 9 9 e e 7 k { } =.u.C B V m Z p.M.z.n.W._.&X_.J.b.Z.W./.].{.[.W.V.D.Y./.Y.B.C.Z.Z.Z.W.}.{.R.M.z.j.j.R.E.Q.!.[.%X).Z.N.v.l.",
"u k k 9 a 5 7 k V | y.r.} t.u.a.=.} Z.R.Z.c.Z.{._.W.Y. .} l.b. X-X*X%X/.G.b.Q.[.W.W.W._.!.].(.W.E.A.x.z.u.s.g.F.!.].[.W.Z.Y.).Y.",
"e 0 5 5 3 7 k c V { l v f h y.u.} i.T.I.{ N { Y.^.~.(.D. .A [ ^.>X-X*X)./.~.W.[.&X{.}.&X}.].`.!.!.E.L.H.r.M C g.A.{.{.`.).Y./.[.",
"2 # & 5 a l l l c ~ k a f S a.s.Z.Z.W.W.B.u.l.N.^.%X[._.F.k.N.&X<X%X%X&XY.V.I.R.W.].].|.|.{.'.'.{.].E.H.j.r.u.j.N.Y.Y.Y.V.r.b.Y.",
"5 0 9 d l l l l f l c B B y.s.B.Z.R.Z.d.B.Y.k.b.Y.{.].[.&X[.{.].[.'.I.r.N  .l.r.N a.R.].{.`.P.U./.{.W.H.H.J.N.k.g.Z.M.s.r.v  .k.",
"X O o o o o o o . o o o o o @ % - > - o - > - - < < , , < , , > - - * O X - < > o O - > , > > = - < - % = - - - = > - = = X + = ",
"                                                                                                                                ",
"                                                                                                                                ",
"                                                                                                                                ",
"                                                                                                                                ",
"                                                                                                                                ",
"                                                                                                                                ",
"                                                                                                                                ",
"                                                                                                                                ",
"                                                                                                                                ",
"                                                                                                                                "
};
