/* XPM */
static char *mimikai[] = {
/* columns rows colors chars-per-pixel */
"64 64 248 2 ",
"   c #060606",
".  c #0C0906",
"X  c #0D0B0A",
"o  c #0A0704",
"O  c #110E0B",
"+  c #100C07",
"@  c #15110E",
"#  c #1A140E",
"$  c #151313",
"%  c #1A1612",
"&  c #1D1915",
"*  c #1D1B1B",
"=  c #181718",
"-  c #0F0E11",
";  c #23160E",
":  c #29190F",
">  c #231B14",
",  c #2B1D14",
"<  c #231E1A",
"1  c #261C16",
"2  c #341E13",
"3  c #3A1E0F",
"4  c #2C2117",
"5  c #26211D",
"6  c #2C231B",
"7  c #342215",
"8  c #3C2414",
"9  c #32261B",
"0  c #35291D",
"q  c #3C2B1C",
"w  c #3B2718",
"e  c #3A301F",
"r  c #161B2A",
"t  c #1E2029",
"y  c #252322",
"u  c #2B2622",
"i  c #2E2924",
"p  c #28282B",
"a  c #342B23",
"s  c #3B2E22",
"d  c #322E2D",
"f  c #3E3124",
"g  c #3C342A",
"h  c #36312D",
"j  c #282B34",
"k  c #3A3634",
"l  c #2B303B",
"z  c #211F20",
"x  c #442917",
"c  c #4C2A15",
"v  c #432D1B",
"b  c #472917",
"n  c #532D15",
"m  c #572F19",
"M  c #44321D",
"N  c #4C341D",
"B  c #593116",
"V  c #54331B",
"C  c #5C351A",
"Z  c #58381C",
"A  c #623A1D",
"S  c #673A1A",
"D  c #433423",
"F  c #4A3522",
"G  c #4C3A24",
"H  c #433629",
"J  c #43392D",
"K  c #4B3C2A",
"L  c #463826",
"P  c #533D23",
"I  c #523E2A",
"U  c #593B23",
"Y  c #443C33",
"T  c #443D39",
"R  c #4A382A",
"E  c #623C20",
"W  c #5A411F",
"Q  c #6A491D",
"!  c #5B4224",
"~  c #54422C",
"^  c #5B452B",
"/  c #594528",
"(  c #4B4135",
")  c #4B433B",
"_  c #48423B",
"`  c #544432",
"'  c #5A4632",
"]  c #5C4933",
"[  c #5D4D3B",
"{  c #54483B",
"}  c #574836",
"|  c #644B2D",
" . c #6A4C2C",
".. c #674625",
"X. c #6C512E",
"o. c #6E5326",
"O. c #785826",
"+. c #634D33",
"@. c #644E38",
"#. c #6B5233",
"$. c #65513C",
"%. c #6C553B",
"&. c #6B5539",
"*. c #725634",
"=. c #745935",
"-. c #745B3C",
";. c #7A5E3A",
":. c #755936",
">. c #714A28",
",. c #7C613D",
"<. c #7C6038",
"1. c #143056",
"2. c #333848",
"3. c #2F3952",
"4. c #0A2F6A",
"5. c #233960",
"6. c #413F44",
"7. c #3E414D",
"8. c #384665",
"9. c #364D77",
"0. c #10427F",
"q. c #484443",
"w. c #574C43",
"e. c #5D5147",
"r. c #4A4B56",
"t. c #59565A",
"y. c #635445",
"u. c #695847",
"i. c #745D43",
"p. c #765E45",
"a. c #655C57",
"s. c #7C6343",
"d. c #7C654A",
"f. c #776148",
"g. c #786857",
"h. c #6C6155",
"j. c #585A66",
"k. c #48526D",
"l. c #676364",
"z. c #726A67",
"x. c #6D6B72",
"c. c #586178",
"v. c #845D23",
"b. c #876428",
"n. c #82643D",
"m. c #89693A",
"M. c #977233",
"N. c #A37D36",
"B. c #816643",
"V. c #856944",
"C. c #8A6D44",
"Z. c #846B4B",
"A. c #8A6E4A",
"S. c #81664A",
"D. c #8D714B",
"F. c #8E7046",
"G. c #92754C",
"H. c #96794C",
"J. c #9A7C4E",
"K. c #937446",
"L. c #866E52",
"P. c #8C7353",
"I. c #8B745B",
"U. c #917653",
"Y. c #957953",
"T. c #9A7D53",
"R. c #947B5B",
"E. c #967B5A",
"W. c #957D62",
"Q. c #877B72",
"!. c #A07D4B",
"~. c #AA8536",
"^. c #B48F39",
"/. c #C1993B",
"(. c #9E8154",
"). c #9D815B",
"_. c #9F804F",
"`. c #BC9646",
"'. c #A38455",
"]. c #A3865C",
"[. c #A6895C",
"{. c #AA8D5D",
"}. c #AA8B57",
"|. c #AE915E",
" X c #B08E50",
".X c #9C8263",
"XX c #9A856C",
"oX c #948573",
"OX c #A48A63",
"+X c #A98D64",
"@X c #A58A6A",
"#X c #A48A68",
"$X c #AD9164",
"%X c #AD936C",
"&X c #B19564",
"*X c #B1966A",
"=X c #B59A6A",
"-X c #B99E6B",
";X c #B69A67",
":X c #AD9574",
">X c #B59C73",
",X c #B69E78",
"<X c #BCA16D",
"1X c #BDA273",
"2X c #BCA37B",
"3X c #C5AB7B",
"4X c #C9AE7D",
"5X c #C3A876",
"6X c #C7A971",
"7X c #C39F4C",
"8X c #144988",
"9X c #365688",
"0X c #3C6197",
"qX c #316DAC",
"wX c #1A67AD",
"eX c #425B8B",
"rX c #486797",
"tX c #52668D",
"yX c #707888",
"uX c #4473AD",
"iX c #4C77AD",
"pX c #267FC5",
"aX c #197EC8",
"sX c #4D81B8",
"dX c #778DA5",
"fX c #1588D5",
"gX c #2C8FD6",
"hX c #2A9BE4",
"jX c #19ABF4",
"kX c #17B8FC",
"lX c #24B5F6",
"zX c #2FA5EB",
"xX c #4CB0EC",
"cX c #67AFE3",
"vX c #5F9ED4",
"bX c #34CEFD",
"nX c #1CC1FD",
"mX c #45CBFB",
"MX c #BCA681",
"NX c #8C8A8D",
"BX c #C4AB83",
"VX c #C8AF83",
"CX c #CCB48B",
"ZX c #CCB183",
"AX c #D2B789",
"SX c #D5BB91",
"DX c #E2C79C",
"FX c #809FC4",
/* pixels */
"R..X:XMXMX:XoXQ.a.y.e.t.j.t.t.q.T P.Y.T.T.T.Y.S.L.a.t.l j j r z 1 p y * J d 6.q.q.k.2.r.c.rX8.r r 4.4.4.8XfXhXfXfXpXqXqX8X8X9.5.",
"s.S..X:XW.W.h.w.T I @.t.j.a.j.l.L.U.E.$X+X{.T.U.p.h.t.2.t p t z = = = $ p d T q.q.2.k q.j.tX9X5.4.4.4.0.qXzXhXzXkXlXlXlXzXzXgXqX",
">.E  .S.S.i.%.a v U @.w.t.l.l.z.R.G.+X:X*X{.!.!.S.p.g.2.r t * 1 - - - - = z p d i k k 2.r.9.wXfXfX4.8XfXgXxXxXmXbXbXmXbXmXxXcXvX",
">.>..... ...U 2 < F I w.t.l.j.g.I.U.+X=X>X*X*X$XH.p.p.e.j j t t t r r t j t 2.2.j 2.7.k.k.rXqXwXwXwXaXjXlXbXmXbXbXbXmXcXdXNXz.z.",
"E A A A .. .E v = F U w.a.l.l.g.U.G.%X>X>X>X&X$X!.G.E g.r.3.2.2.2.3.3.8.8.8.9.9X9X0X0X0X0X9XqXgXhXjXjXkXkXbXbXbXmXcXdXx.g.p.d.p.",
"A A A S E >.C n 1 w U q.t.t.t.g.D.J.=XBX2X1X*X{.!.Y.n.y.a.8.8.8.9.9.9X9X0X0XuXqXiX0X9X5.1.r 1.fXjXjXkXjXkXkXnXxXvXyXh.u.f.Z.L.L.",
"m m C S S >.E E 9 b E q.r.r.r.g.G.T.2XVXCXBX2X%X+XT.G.%.g.c.eXeXeXrX0XuXuXuXuXuXiXuXrXrX9X0XqXqXhXjXlXjXkXlXcXdXL.u.p.g.L.Z.I.I.",
"m m S S E E E A 2 6 C ) r.r.r.L.G.[.1XCXCXVX2X>X%XT.Y.B.@.L.tXeXtXrXrXtXtXtXtXrXiXiXsXiXiXeXuXiXsXgXhXxXzXvXyXy.y.p.S.L.I.I.W.I.",
"S C S E m C C m 9 1 b T r.t.j.I.J.&X5XCXCXCXBX,X*X$X(.Z.%.d.z.c.j.j.t.t.t.k.r.k.k.tXiXiXrX8.9.9XeXiXiXiXyXx.e.E p.S.I.P.R.W.W.W.",
"m m m C m C E m w 1 b T k.k.j.W.'.1XAXSXCXVX1X+X[.).G.s.s.f.f.e.q.e.u.h.a.e.k l q.j.x.x.c.8.k.k.k.iXiXx.a.@.u.S.S.P.E.E.W.W.%X%X",
"n B C E E E E U R 9 , s r.j.j.W.}.4XSXAXBX>X%X].(.(.H.d.A.f.` ` y.p.W.OXP.S.K Y y.L.I.L.l.e.z.c.c.yXyXh.@.p.S.S.U.W.@X@XW.:X:XW.",
"m S E C E E E m m 9 , a ) t.a.W.-XAXAX4X2X>X+X[.+X).).P.G.A.,.P.U.B.G.%XI.p.' $.S.L.W.L.%.u.u.l.z.z.p.@.y.S.U.E.W.W.@XW.W.:X%XW.",
"A S E C E m E m m w b R { w.a.W.5X3X4X6X3X1X(.D.(.[.OXY.(.L.s.*X*XY.%.Y.W.p.' @.S.U.P.f.s.i.~ ` [ y.%.E %.L.I.W.W.>X%X%XBX>XW.E.",
"A m C m m m E m b 8 b m R { u.W.|.;X4X4X1X).U.H.(.$X%XA.$./ #.{.=XT.+.S.T.B.&.%.S.B.+.s.R.f.&.f.I y.u.u.@.S.U.W.%XW.:XMXBXMXW.E.",
"B B A A m m U m b b n b b m p.Y.}.<X3X-XH.H.(.Z.,.).OX&.g ~ s.$X=XT.%.B.A.;.#.p.U.*.s.).).d.&.s.S.S.i.p.B.p.S.E.W.$X:X,XBX,XW.T.",
"B m n m m m m b b b b b b S S.T.'.<X=X[.Y.Y.A.-.' P.Y.~ 6 ( G.<X3X+XT.T.D.-.:.A.).,.A.+XR.] g ~ i.I.G.B.%.S.S.A.E.T.%X,XMXMXT.E.",
"n n c n n B n c c x x 8 3 +.B.n.G.{.'.}.].T.V.s.d.).(.` < +._.=X2X1X&X;X(.s.H.[.{.s.D.#XU.K 6 f @.U.E.T.S.$.$.d.T.OX%X,X2X%XU.oX",
"n m B B n S B b c c b c b | ;.n.J.T.T.'.T.F.Z.S.(.=X<XD.e &.[.|.<X<X&X|.(.K.[.$X*X{.).$X(.' 6 4 I R.T.B.s.&.] &.D.].$X>X2X:XP.NX",
"B A B B B B c c Z c n c b ..p.T.H.<.<.'.H.=.~ ~ / ,.{.1X)._.|.}.[.*X&X[._.H.(.{.*X&X{.$X.X] < 5 @.P.p.R F +.[ ' #.D.%X%X*X@XQ.FX",
"m B B B S B x c n c c x V ;.-. .*.| | ;.X.~ W o.<.O.<._.3XSXAX1X(.(.[.(.H.G.P.(.).(.D.H.H.( $ 0 S.W.p.I L ~ ] ~ ~ -.).#XE.J.NXcX",
"c b n n B n 3 b V c c V X.&.D w ! | ! X.<.b.^.^.~.M.^.~.J.ZXDXSX|.(.(.P.H.P.D.G.D.d.s.A.Z.~ D ,.+XOXP.f.@.+.&.+.I I S.U.B.S.NXcX",
": : 3 3 n n 3 x V N ! n.,.L 9 w c Z =.K. X^.~.! 6 6 / ^.N.!.DXDX&X_.(._.(._.(.G.-.%.U.{.[.H.F.K.p.' ~ ' &.-.i.i.i.>.S.n.#.p.Q.yX",
": ; : : 3 3 : 3 c P <.K.#.] +.=.,.J.|.!. X^.G 5 5 5 6 b./.M.AXDX)._.(.H.H.G.H.,.] ,.+X1X}.:.W Z Z x 4 5 a ` %.d.y.@.n.i.i.{ a.e.",
"; ; ; : : 2 , 7 x ' Y.V.:.F.J.'.;X6X-Xb.^.~.f oXh.d s b./.N.-XAX(._.'._.F.K.D.@.] (.$X(...Q O.O.O.M.b.N 6 e ] -.I U u.B.u.R e.e.",
"; ; ; ; 1 : 1 , M C.Y.s.H.K.F.J.;X4X<XO.^.^.M ) _ u / ^.^.M.&X=XK.H.J.K.m.m.n.' +.T.V.P Q b. .0 4 0 o.N.^ v +.u.y.R I @.u.I { Y ",
"d 1 ; ; ; ; ; , ' ].B.D.$XC.#.=._.6X6X;.b./.M.e 0 | ~./.N...C.K.m.n.O. .! X.=.^ ] B.K M b.b.0 > = & 4 b.N...+.^ R D s i R R a a ",
"q.T a : # ; & 4 @.G.s.[.|.,.#.! | H.-X&X:.m.`.~._.`./.~.:.P o.=.X.! V M x x P ~ F / 4 x M.v.` a.a i < Z N.*.*.P 2 & & > < a a u ",
"T _ _ k 4 < < 6 ] -.d.$X;XA.V.n.,.V.G.'.{.|. X`.7X`.M./ P X.=...Z N x x q 8 7 M q 4 > 7 v.b.F T i i < Z M...=.:.s < 1 = = 1 i 6 ",
"T T q.q.T h i a ] i.G.&X-XG.F.'.].Y.C.B.A.K.}.<X<X`.=.! / X. .Z N x 8 8 8 2 2 8 q > & 4 Z v.W & $ # 4 o.v.v *.C.#.T D , % % 9 a ",
"k k T q.q.q.k Y %.T.|.-X3X[.,.A.T.F.C.-.<.#.X.<.C.m.<.<./ W Z v x 8 8 7 2 4 4 w w 1 # 1 x Q O.! q M Q Q V F ;.<.@.R D i 6 % 5 a ",
"u d k T q.q.) { Z.;X4X5X3X5X).=.X.#.=.| -.A.D.V.C._.(._.O.Z q 8 7 2 2 , , , , 4 4 > > & M Q Q ..W W N M F  .-.I D a 6 9 a & & a ",
"u p d h k _ q.$.A.&X3X3X5X4X=X,.n.,.=.C.$X=X;X|.&X<X&X'.n.N 4 : , 2 , 1 ; > : , : > 4 > 7 N  .| ! W L N F D 9 > ; ; > 6 H 1 = u ",
"* z y y i k ( [ D.{.[.&X$X<X<XK.,.,._.<X3X;X;X<X;X<X6X|.<.v q v x 7 2 , > ; % , 9 w H 0 1 , 0 0 9 , < 5 5 & # # & & > 0 g i $ 5 ",
"* * z u d Y _ [ Z.(.,.| #.s.(.,.#.,.;X3X;X(.(.'.J.<X4X<Xm.q 4 v V V V b w < % , v K K K s 9 9 , > % # & & > > % % 4 5 0 f 6 % & ",
"* t y h _ _ _ { d.m.#.e 6 4 L | B.+X4X3X[.V.,.,.J.<X4X5X|.X.9 : n V V w & % ; w U | I K F D D D q 5 # & & & > % # % 5 f H 5 % & ",
"y i k ( _ Y Y ( &.+.e e #.&.-.H.<X2XZX4X1X-X$X}.|.5X4XZX2X].+.4 b c x ; % , D | &. .^ s M L H L D 0 1 1 5 > % # # 4 6 f H 6 5 & ",
"_ ) { _ _ Y Y Y [ +.~ #.}.<X<X<XZXSXZX5X<X{.G.<.m.}.3XCXBX*XZ.M x 8 7 , M @.i.p.;.*.I q q D s D G K 0 > > % @ # 9 H J K J a i 5 ",
"k Y Y ( ( ( _ ( e.f.D.(.}.}.|.<X1X3X1X[.J.V.n.V.{.4XAXAXMX=X).+., # 7 L @.p.f.f.-.#.' s 0 , 6 9 L ~ L 5 & % 4 f G ~ L H J h i i ",
"Y ( _ _ _ ) ) [ y.Z.H._._.H.m.H.$X3X4X=X&X{.J.H.}.&X-X=X).H.,.} 9 # s @.i.f.p.-.%.~ q D D q 9 , 0 K K 6 @ # 9 K J 0 0 D H h a a ",
"_ ) { e.f.g.g.g.g.g.(.(.(.(.|.{.{.<X5X;X(.F.B.C.+X-X=X{._.Z.+.~ 6 , D G ~ +.u.-.*.~ 9 1 4 D L H q D K s & + # 1 5 % 5 4 a a i a ",
"u.g.h.f.u.e.[ ) ` { d.(._.[.&X<X|.{.<X{.G.P._.[.*X*X$X).P.,.+.K 6 9 M F K ~ ' ' ] / L 6 > % 9 K ~ K J q 4 @ . o o . O @ 5 i u 5 ",
"u.{ _ Y Y Y Y _ k _ $.).|.|.=X=X{.|.;X<X=X$X).(.[.[.).(.L.,.^ D 6 6 s R K ~ ~ ^ ~ N q e D s q 6 f ~ G D e 0 & @ . . O & i 5 = $ ",
"Y Y Y Y g Y Y _ ( ` i.OX&X$XOXU.K.(.$X1X5X1X{.[.[.[.(.L.<.+.} ` H s a s J G G ~ ~ G v 4 6 s K H f L f 0 e 0 q 4 @ X O % 5 5 @ X ",
"g Y Y Y Y J Y ) e.f.g..X.X_._.H.D.m.F.$X4X4X2X1X*X.X(.Z.f.@.} ] ' K s a s L G G M M L q 0 , 0 F ~ L f 9 w 7 9 0 6 @ @ $ * = X @ ",
"g Y Y Y Y _ e.h.h.i.d.E.E.T.J.J.K.C.V.H.*X2XZXCXZXBX1X|.Y.f.i.%.@.K f a a 0 D L G e q D L L D g f H D f 0 9 0 a s 5 % % % X X X ",
"g J Y Y { u.u.y.u.w.y.I.T.T.K.F.K.J.(.).OX+X%X1XMXCXCX2X$X(.R.U.S.%.^ K L D e L K G L L K K J f a 6 0 0 f g f a i u u z $       ",
"g Y ) u.y.y.y.w.) ( y.P.U.J.'.J.Y.Y.Y.).T.Z.D.Y.+X2XVXVX2X2X2X%XOXU.i.[ ] ] ~ ~ ~ K ~ ( K K D L L a 5 a 0 a f i * 5 u u * -     ",
"g { y.y.e.[ _ _ T w.y.L.F.K.J.H.A.A.D.D.C.,.s.d.A.(.>X2XCXCXMX2X%X#XL.u.$.y.[ ] ` } ` ` I K F s f f 9 0 0 5 5 5 5 5 y 5 = * = X ",
"[ [ [ e.) Y J ( { [ -.L.,.,._._.D.B.<.-.X.;.-.s.B.C.(..X1XMXMX2X%X#XR.d.-.&.&.[ ` ` ~ ` K f f 7 4 6 a a 0 i < & < 5 5 & = = = & ",
"e.[ { Y J J ( } _ { f.,.-.&.,.d.C.V.B.-.X. .#.S.,.&.S.C.U.OX%X%X@X.XR.Z.,.&.] ~ L D s 0 0 9 0 4 1 4 4 a a 5 a y % % * * $ - $ = ",
"[ _ g g Y ( ( Y Y ` ,.D.<.&.,.Z.V.V.B.-.&.#.-.s.*.-.B.,.A.Z.D.D.P.U.P.S.,.&.^ ] L 0 q 6 6 0 e f 0 5 < 4 d a * < = $ $ $ = $ . - ",
"Y g g Y Y ( Y Y J ` d.f.[ / &.,.B.,.=.#.+.X.X.-.&.s.,.n.A.s.,.,.,.<.d.s.i.-.X.] ~ G ~ F q s e f s 6 5 % & 5 * - = * $ @ O $ = X ",
"g g J Y _ J J Y Y } d.&./ ~ &.-.-.<.=.] X.*.<.*.~ =.B.,.-.+.,.,.X.X.<.@.^ / / ~ L L H e 0 9 4 6 6 > & # O @ % $ X % = @ O X @ & ",
"g g Y _ J g g J Y [ ,.+./ +.&.&.X.X. .#.=.B.Z.=.| X.:.+.#.| *.<.| X.<.+./ / M M w 6 6 , 5 5 < $ % O O @ O X $ % O X & < $ X X $ ",
"g g Y g g g k k Y -._.-.#.+.&.| / / =.<.-.C.,.#.=.X.] / -. .*.X.*.X.X./ ^ ^ G M q 9 6 > & > & $ $ O O @ O O O $ % O O < < O X X ",
"g J J g g g g d p $.(.d.#./ ~ / ^ #.-.,.#.=.<.=.#.| N ! X.^ ' G X.=.X./ ! / N F M D 0 4 # # @ X O @ O @ @ O X O @ $ X O < $ X   ",
"J g g g h a y z u } D.,.&.&.+.#.-.&.#.] ~ | <.&./ W N / / ~ q q ^ =.| / / W F D q q 9 & @ # O X X @ @ @ O O X . X $ @ O $ = O   ",
"g g g a 5 * * 5 i ] ,.,.&.&.| | | | / F G | / ~ M M M M ~ M , q ! ! | / ~ N ~ N e 0 4 # O + X X X @ @ @ X . . . + O @ @ O O $ X ",
"g f i * = = $ < i ,.(.d.,.&.| / ! N N F G ! ! F M e 4 q ~ e 4 q N W ~ ! ! e 9 0 7 4 > + X X . X O # % # X . + + O + + @ O X X - ",
"u * = = = = & & L d.).,.,.#.] W ! N M q q N G N G e w M q 4 q q q ! e q 0 9 7 4 4 1 @ . . X   + O % # O . .   + X X   @ $     O ",
"= $ = $ - $ * 6 H ,.D.V.#.~ N W ! M e w q M M M M M 0 w 4 7 e 4 4 M 0 > 4 > 4 > > # . . + + O @ @ # @ X + + + X O X X $ $       ",
"X X X X X - = 5 ` C.K.,.] ~ M / ~ N q M q M N w M M , 1 : 1 > > # 7 9 O . @ # + + +   . + @ @ # @ @ @ X   . X X O X X @ $ X     ",
"      X $ = = u J <.C.X.~ / N N q 7 v q w e w 7 q 0 1 > > & # # O # > + . . . o   + + + + @ # # @ X O +   + X X . X @ # $ O X   ",
"X     - * * * u f s.,./ | ^ ! e w 8 q q q w 4 q q 4 4 > 4 # @ % # # & @ + . . .   . + O + O O O O O + . + + O X X O @ $ O O X X "
};
