/* XPM */
static char *mimi_on_chair[] = {
/* columns rows colors chars-per-pixel */
"64 64 236 2 ",
"   c #040402",
".  c #090703",
"X  c #0B0905",
"o  c #0D0D09",
"O  c #070803",
"+  c #140B05",
"@  c #1B0C05",
"#  c #130E09",
"$  c #1A0E09",
"%  c #0F100B",
"&  c #13120D",
"*  c #1B130D",
"=  c #1F180F",
"-  c #161511",
";  c #1B1611",
":  c #1B1B15",
">  c #1D1E19",
",  c #171813",
"<  c #230C06",
"1  c #250F08",
"2  c #22150D",
"3  c #2A140A",
"4  c #381609",
"5  c #241B14",
"6  c #2A1D14",
"7  c #221E19",
"8  c #261A14",
"9  c #331E14",
"0  c #3A1D12",
"q  c #320D04",
"w  c #1F201A",
"e  c #2B2016",
"r  c #23221D",
"t  c #2C241C",
"y  c #322115",
"u  c #33251B",
"i  c #3A2619",
"p  c #3C2A1D",
"a  c #37271C",
"s  c #252621",
"d  c #2A2721",
"f  c #2B2A25",
"g  c #2E2E29",
"h  c #272822",
"j  c #332B23",
"k  c #3B2D23",
"l  c #312D27",
"z  c #2F302B",
"x  c #3C3027",
"c  c #33322D",
"v  c #3C332B",
"b  c #363631",
"n  c #3B3631",
"m  c #3C3A35",
"M  c #3F3E39",
"N  c #441506",
"B  c #481908",
"V  c #571C07",
"C  c #681E05",
"Z  c #701E03",
"A  c #58220C",
"S  c #442C1B",
"D  c #4A2D1B",
"F  c #452314",
"G  c #562A17",
"H  c #4A311E",
"J  c #55351E",
"K  c #49200D",
"L  c #6D2105",
"P  c #62230B",
"I  c #682409",
"U  c #742305",
"Y  c #7D2A0C",
"T  c #782707",
"R  c #682C14",
"E  c #762C13",
"W  c #64391E",
"Q  c #7C3316",
"!  c #412E23",
"~  c #443125",
"^  c #4C3324",
"/  c #43352B",
"(  c #4A3529",
")  c #4B392C",
"_  c #49392C",
"`  c #543524",
"'  c #593622",
"]  c #5A3924",
"[  c #533729",
"{  c #543B2B",
"}  c #573A27",
"|  c #433B33",
" . c #4B3E34",
".. c #433F39",
"X. c #523E32",
"o. c #653D22",
"O. c #6D3B27",
"+. c #723E28",
"@. c #5B412E",
"#. c #44423C",
"$. c #4B433C",
"%. c #4D4036",
"&. c #544235",
"*. c #5B4433",
"=. c #53443A",
"-. c #5A4639",
";. c #5C4A3C",
":. c #56483D",
">. c #65422B",
",. c #76422A",
"<. c #644A35",
"1. c #634C3B",
"2. c #664935",
"3. c #6B523E",
"4. c #74553E",
"5. c #464540",
"6. c #4B4741",
"7. c #4B4A44",
"8. c #4E4D48",
"9. c #534B44",
"0. c #5B4D43",
"q. c #524E49",
"w. c #54524C",
"e. c #5A534C",
"r. c #5E5045",
"t. c #5C5953",
"y. c #624F42",
"u. c #645143",
"i. c #6B5444",
"p. c #65554A",
"a. c #69564A",
"s. c #6C594C",
"d. c #745945",
"f. c #735D4B",
"g. c #745945",
"h. c #645B53",
"j. c #685E56",
"k. c #715E51",
"l. c #7A624D",
"z. c #66625C",
"x. c #6B645D",
"c. c #746153",
"v. c #7B6453",
"b. c #7C6A5D",
"n. c #74655B",
"m. c #6C6963",
"M. c #726B65",
"N. c #776D64",
"B. c #76716C",
"V. c #7A736C",
"C. c #7C7872",
"Z. c #842B04",
"A. c #8A2D02",
"S. c #862C0D",
"D. c #8A2D0C",
"F. c #8A3309",
"G. c #943A0C",
"H. c #832E11",
"J. c #853213",
"K. c #8B3414",
"L. c #893A19",
"P. c #953D1A",
"I. c #983D1A",
"U. c #943815",
"Y. c #883D21",
"T. c #9B431C",
"R. c #9B4314",
"E. c #9A400E",
"W. c #884629",
"Q. c #934324",
"!. c #9B4625",
"~. c #9D4A2B",
"^. c #984828",
"/. c #985437",
"(. c #8F5238",
"). c #A34D2C",
"_. c #A14825",
"`. c #A5502E",
"'. c #A9582B",
"]. c #A34E30",
"[. c #A65332",
"{. c #AA5533",
"}. c #AB5A38",
"|. c #B15D3C",
" X c #AB6437",
".X c #A14D1F",
"XX c #8B5F44",
"oX c #836A56",
"OX c #8A6C56",
"+X c #846C5B",
"@X c #846955",
"#X c #8D725E",
"$X c #94735C",
"%X c #8A644B",
"&X c #AA6A4A",
"*X c #846F60",
"=X c #847165",
"-X c #8B7463",
";X c #8D796C",
":X c #887669",
">X c #947C6B",
",X c #977B66",
"<X c #867C75",
"1X c #917E71",
"2X c #A27E66",
"3X c #9D826D",
"4X c #8A837D",
"5X c #85827C",
"6X c #93847A",
"7X c #9B897D",
"8X c #9A8576",
"9X c #A48C7B",
"0X c #A58977",
"qX c #B28E72",
"wX c #8D8681",
"eX c #8F8882",
"rX c #928983",
"tX c #9A8B82",
"yX c #9C928B",
"uX c #9F9690",
"iX c #AC9484",
"pX c #A8968A",
"aX c #B49C8D",
"sX c #B59B87",
"dX c #AC9C93",
"fX c #A59B95",
"gX c #B49E91",
"hX c #B4A39C",
"jX c #B8A397",
"kX c #AAA09A",
"lX c #BBAAA3",
"zX c #B7A8A1",
"xX c #BCB2AA",
"cX c #C3AA95",
"vX c #C4B5AB",
"bX c #CCC3BA",
/* pixels */
"bXbXbXbXvXzXyX1XtXdXdXzXcXzXvXlXhXgXpX1Xk.X.[ [ [ ( ( ( / ! / / ! ! R Z.A.A.A.A.A.A.F.G.F.A.T U Z C C C V B q < < < < @ @ @ + + ",
"vXvXxXkX1XtXtXyXgXzXzXvXvXhXhXdXyX;Xk.X.[ [ [ [ [ ) ( ( / ! ! j 0 R S.D.A.A.A.A.F.G.R.G.A.T U L Z U L V B N q 1 4 q 1 < < @ + . ",
"hXpX6X1XtXdXgXzXvXlXzXzXdXuX7X=Xy.{ [ { [ [ [ [ [ [ [ ~ / k 7 - & 8 G J.F.A.A.D.R.R.G.A.T U C L T R A F F i i k x k j k j 9 9 3 ",
"<XtXpXdXzXzXgXlXzXdXpXyX6Xn.-.[ [ [ [ ' } ] } ] ` [ ( ! t - o o o ;  .p.g.,.L.R.R.F.Z.T U C A A S S p k x x / | .. . .$... .../ ",
"pXdXgXzXzXzXdXdXpXtX<Xs.X.( [ ` [ ' [ ' ' ' ' ` ` ^ u - o % - t r f 0.u.y.0.X.J.F.A.Z.I V F a j c x v n | ..$.6.9.9.e.h.j.x.M.k.",
"hXzXhXhXdXpXtX6X=Xy.[ ^ [ [ ` ` ' ' ' ' ] ' ` ` F 3 4 4 $ o 7 | 0.0.u.u.=./ t E F.T P B u j d s 7 : ; - * * : r f l n #.q.t.x.V.",
"zXzXdXtXtX6XN.0./ ( ( ^ ^ ` ` ' ' ' ' ' ' ` S 3 $ $ B Z U N * d n  .%.n r & 1 T T A y 7 , o X   . . . O X . . . . . . X o & 7 d ",
"pXyX6X<Xx.X.! ~ ! ^ ( G ` ` ` ' ' ' ' ` S 3 $ $ $ $ B Z S.R l n v v e # # # q T V 6 # . . . . X . X X X X o o o o # o # o o X . ",
"1X<Xh./ k ! ! ^ ^ ^ ^ D ` ` ` ` ' ` S 6 * + @ # $ @ N P G / n l j 9 8 # o + N P * . X X . . . X X + $ $ $ $ + + X X o o o o o # ",
"9.x j k ! ! ! ! ! ! ^ ^ D ` ` G S 6 & & # + @ @ + 1 a x c j j y 9 9 2 X . . I I X X . X X $ q B A A P P C A C A V B 4 1 @ + X X ",
"j j k k k ! ! ! ! ! ^ ^ ^ ^ ! 8 * # # % # + @ $ 5 l c l f y 9 9 F 4 o . O $ E.G.4 . . @ 1 N C R E E E U Z U Z Z C C I C C V N q ",
"j j k k k k k ! ! ( ! ^ i 6 # X o & & # & @ * f n b g t 9 9 i K T N   . X 2 F.T @ . < 4 A E E E E E E S.Y E Y U T U E Z U Z Z Z ",
"j j j k k k k k k ! k 6 * o o o % & & & ; d l g z l y 9 y i B U T 4 O X . N A.4 X @ 4 P K.L.L.Q J.J.J.J.H.H.H.S.T Y S.T T Z T U ",
"k j j j j j k k j 6 - # # # o o o % - r g c c d t 6 9 9 K U U Z.Z.N X X e P T + o 3 0 Q R.!.^.Y.J.J.J.J.J.J.J.H.H.S.H.S.S.S.Y S.",
"t j u j j u d 9 6 # # X $ 1 # o o , h g c g d : ; 3 9 B T A.T F..X^.$ # F F.A X $ 3 0 Q.'.[.~.L.E J.Y.K.K.J.J.J.H.S.S.H.S.S.S.S.",
"t d t 9 t t y S S $ # o # $ 1 - r f f f s : & $ ; c X.C A.A.G.'. XL.@ # K I < X 2 6 6 W.}.[.~.~.Y.P.Y.K.U.K.K.K.H.S.S.H.H.S.S.Z.",
"t t t 6 i H D D D 2 @ # X $ r f f f h r & o & o t 6.a V A.G.'. XI.S.$ + 0 N q X ; 3 5 ,.{.).).).).Y.I.Y.Y.L.K.K.K.J.H.H.H.H.D.D.",
"s 6 i D J J D D D y * * w r z t h r : % & & o X & * 2 P T. X'.E.G.S.< $ N R R + * ; * G `.[._._.~.P.Y.~.^.Q.P.U.U.K.D.S.H.K.D.U.",
"i D o.o.W J H F S i 5 r f f f r w & % o & + + . + & $ 4 W..XE.E.E.T $ < R [.Y.8 * 5 $ 9 ^.{.].).].Y.~.P.^.P.I.I.U.U.U.U.K.J.K.U.",
"o.o.o.o.W J J H p u r r r r r , o X o & + + @ @ + + q < @ 4 T E.Y N + < Y.|.}.F X * 2 2 W {.[.[.].~.^.].].I.I.I.I.I.I.U.K.J.K.U.",
"o.o.o.o.o.J J i r w w w w w % X o o + * * 5 @ @ @ < V U P 4 3 ^ F 0 + 1 Y.|.|.+.# # 5 * 9 ^.{.[.].].).~.~.).]._._._.!.I.P.P.T.T.",
"o.o.o.>.>.H e w w w w w - % % X # + # * * & + @ @ < V Z.G.T.+.0 2 3 + 3 ^.|.&X{.0 + $ 2 ; G [.{.{.[.]._.I.!.~.].).[._.P.P.!.!.!.",
"o.o.o.J y w w w r h w o o o # # . + X + + & . . + @ V Z.R. X}.W G 6 5 y +.XX/.XXO.; - ; 2 2 O.].{.{.]._.~.~.P.Y.^.!.~.!.!.!.T.T.",
"o.J p r w w w r r - o o # # * * # X X # # * + . X 4 G R K F ! j / v c v v v | |  .m x t 7 2 9 Y.{.{.{.].].).~.!.Q.^.Q.^.!.I.I.P.",
"H e w w w h z w % o o - * * # * * X X X # # o & * 3 3 2 # 5 d l v c c v | | ............/ v d ! Y.].{.].].).).~.!.~.~.].~.T.I.I.",
"r : w w c g - O O % e p p 1.-.e & # X X # & ; - X X # 9 d 7 r j v n | ..$.6.9.e.e.e.e.e.9.7.$...| [ +./.{.].].].).]./.[.`.)._.T.",
"w w g b w X X X w H @.@.<.OXOXl.5 & o X - : # . X ; l n x j t 7 f c | ....e.h.M.V.V.N.M.M.M.j.e.q.$.0.%X&X&X|.].].].].~.].}.[._.",
"r b t % X X % a l.3XoX@.4.0X0X$X@.* & : : o X X 7 n m | ....n d r r g c | 6.e.M.<XrXrXeX4X<X<X<X1X1X;Xf.y.@X2X&X}.}.].~._.).).].",
"g , O X X = J d.3X8X3Xi.l.9XjX9Xg.p & & % X # d m ..6.0.k.N.j.6.c r 7 d z n ..e.M.<XrXyXrX1X<X:X1X=Xk.i.d.u.+X9X&X[.).).)._._.!.",
"O O X % y <.oX#X3X3XOXl.3XjXjXpX#X<.x - % % : m ..9.a.*X,X,X1Xj.6.| j d v / /  ./ ( -.y./ / | | 0.k.@X+Xv.-X0X7X@X/.].[.`.).).).",
"O X = H g.l.OX3X#Xl.<.<.0XaXjXsX3X2.2./ c f v $.0.a.@X1XiX0X-X*Xy.( ! 9 u 6 ; $ $ ; ; - 5 r t j v | =.p.s.c.v.f.3.O.W.[.`.`.).).",
"% y *.OX3X4.] 3.1.%.a i.$X9XaXgX8X2.` 1.b.j.0.*.i.k.0XpXgX0Xf.X.! 6 5 # # # * 5 ; 2 ; 5 9 7 t j v | |  .=. .| / { { >.W.[.[.`.`.",
"H >.3X3X#X<.S J ^ y = %.3X9X8X3X,Xd.^ &.s.s.i.` 3.>XiXjXcX,X&.6 9 5 # * y 2 6 ` p 5 * 2 e 5 e j =.%.%.%.| j u u t H J ' /.{.{.{.",
"H H d.l.3.H H S e = : :.3Xl.oX3X3XoXi.;Xv.oX&.*.g.9X0XiXsXOXy ; 8 8 * 6 ^ 6 2 ~ } [ y p ) @.{ *.d.f.p.u.=.| t r * 5 i y ] /.{.{.",
"H @.OXoX<.H y * * : %.3X3X*.3.#X7X+X;X;Xd.b.i.oX2XiXaXsX0X@X8 * 8 y i p 2.S 2 * a <.^ i { 3.i._ 1.+X:.r.v.i.~ t ; * * 6 u ] [.{.",
"J >.OX4.p = * - = w $.3Xb.v.3X5X=Xc.pX+Xd.;X+X7X2X$X>XsX*X/ # * 3 y a 5 ^ 2.@.a u @.! * 5 *.1.u i.v.=.k.-Xi.*.@.i 5 $ $ 2 a W.'.",
"H } <.y * * # , : & %.v.#X%X3.x.n.-XaX;X8X9Xy.9X;X@XOX1Xa.9 ; $ 5 u p e { @.d.*.u.v.*.y ! f.i.&.v.l.%.k.,X+Xi.@.[ } i 2 $ 6 O.`.",
"p p 5 * # - = = % % $.8XvXcX&.M l.sXaXiXiX+Xb.6X*X-X#XiXk.t 5 5 5 a ^ [ d.~ 3.-.i.v.*.k &.d.0.f.oX;.%.n.n.p.f.i.1.{ D S ; * ! O.",
"y * # * - = - % % % m N.8XlX#Xj.l.jXgXgXaXoX5. .OX>X>XsXs.t 8 2 e ) *.3.d.) i.1./ v.:.u ;.u.v a.u.x ~ @.3.l.3.;.-X+X<.~ y 5 6 j ",
"* # # * , % X o % w g :.3.5X9X3Xl.9XsX9X9Xg.0.f.sXcXk.0.X.( a 2 e ~ ~ <.;.i.v.p.&.+Xs./ a.c.x / _ -._ @.+XoXi.-XiX-X1.*.^ 9 8 x ",
"+ # & * % X o % w z b m 7.z.3X3X3.3XqX3XXX#X8X9XvXtXk.v X.i.-.k u ~ k ;.;.+X;.X.+X7X=X_ s.k.| ! %.~ *.i.;.*.l.v.f.-.1.OXi.S e v ",
"# * & X X o - r b b M M #.:XiX9X(.qXqXXX4.qX7X3Xh.y.X./ X.g.1.~ k j / 1.1.=Xk. .;X6Xn./ :.X.x  .&.u.s._ a -.:X=Xv. .i.d.-.@.u  .",
"* & X O X w m 7.8.w.t.t.8.6XpXsXOX3X&XXX9XsX6X&.( k 9 k f.k.-.X.&.%._ u.y.j.;X%.:X:Xy. . .t t  .;.&.x e e 1.#Xk.a.{ &.~ ) @.| 9.",
"* X O % w c b M 8.t.w.8.7.x.8XaXqXXX3XcXsX9XV.x d t j y.-XoXy.X.%.p.=.;.a.9.c.:.j.k.v _ d 5 u X./ t = p / c.;Xs.u.;.p ~ ^ y v 9.",
"O O o - r z M 8.w.8.b b t.t.M t.6X8XkXsX6X6Xp.%.$./ 0.=X>X1X*Xk.*.)  .;.s.0.&./  .0./ j 6 f | | j : e ;.v.s.u.i.*.~ ~ p e = | q.",
"O X % w z m M #.M f z 8.#.g r w g h.b.:.e.N.m b 0.M.<Xk.=XiXN.*Xf.;.| %.:.%.| | c  ./ d l / l 6 5 e x -.;.v v &./ t e * * : #.9.",
"X % w f c c m M c z #.m c g h r w h $.a.1.j.%.v h.j.V.=X*X=Xs.k.1.=.|  .%.| / j / / v j d j 9 j v x j j x / %./ j 5 & X O X ; t ",
"- w f c c b M m c M 5.M m b b z g f g b $.q.h.%.0.N.p.n.1X*Xk.b.s.$.| | $.| v v  .c k c v c c j j t f j v x v x u o             ",
"w r g z b M #.M m #.5.5.5.8.5.5.5.M M b b g 5.f b #.h.6.j.k.0.0...| | $.b > > f d 7 f | n j s > e : t r e > : * X               ",
"w r f z c m M m b M M 5.7.8.w.w.8.5.M g > > z s b M 6.6.#.8.q.t.z.M.M.M.z.5.f , & o & - - o # - : * & & - 5 : &                 ",
"w w w w w r f h f f z b M 5.7.M M b s , , s z 5.t.m.m.j.m.M.C.<XwXeXwXeXz.h , - - - % o o X o o o & & 5 7 5 r r &               ",
"- w w w w w w w w w w h z #.5.g w > s s s z 8.B.<XB.M.V.C.C.<XeXyXyXuXeXb o X - - - - & o o o o X X X o o o # & o               ",
", w , w : : w w - - - % , w w s g z z b M w.C.wXwXm.m.B.<X<XeXrXuXuXkXwXw X X % , , - - % % o % o X O O O O X % o X o           ",
"w , : w w w w w w > % o o o % , w w s z b 8.z.m.M.8.5.q.j.V.<XeXyXfXkXeXw X X - s w , - - % % % & & - % % o % o o X o X         ",
", w : w w r r r w s w , % % % % o % , s s g z M 7.b b m #.w.z.V.<XwXrX4Xf X X , g h s > , - % - w f s > % O % o X o o X X X     ",
", w w w r r r f s g z z f w w s s s w w s w s g z g s g z m 5.q.w.h.M.B.z X X , g g f r w , % % % > w - o o o o o o X X X       ",
", w w s w w h f g z b b m m m M M b b z g f s s s w > s s g b m m ..7.w.b o X ; b z g h w w - % o % o % X % X % o o o O O O     ",
"& - w w h h f g z b b m M M 5.5.5.5.5.M M b z g s r w > w s f f g z b m c # o , m m z f w > - % O X O O % % % X o X o o O O     ",
"w % & = w h f z z b M M M 5.5.8.8.8.w.8.w.8.5.M b f s s r r > > s h z b z - X : M M z f w w - % o O O O % % % % o o o O .       ",
"= : % & - , w h b m M #.5.5.8.8.w.t.z.m.m.m.z.t.7.M b g s s r > : > s g f - o , 5.#.b g s > - % X O O O - % % X o o o O         ",
"% > - % - = , w w g M M 5.8.8.w.t.z.m.m.B.C.C.C.m.e.8...m z f s w > : > - o   > 6.#.m g r : % % o O O & - % % % o o o O         ",
": - r % - , , w w w f z m 5.w.w.t.m.m.B.C.C.wX5XB.m.m.h.w.5.M z f s > & X   . - m M b f r , % o O X X & - % % % % % o O         ",
"% : : : % - - w w h h f g b 5.w.z.z.m.B.C.5XwXwXC.V.V.V.M.m.t.7.M z > o .   . X r z g f w , % X X O o - & % % % o % o           ",
"X & & w , % - w w w w h g z z b 8.t.m.B.C.5XwXwXC.B.C.<X5XC.M.t.7.m > o         % w h h w & X X O O o % % % % o & % o           "
};
