/* XPM */
static char *_0d7fa356dc249d5f18b9bbdd7a082c2t4d70D3lpLGr5kp7[] = {
/* columns rows colors chars-per-pixel */
"64 64 256 2 ",
"   c black",
".  c #0000A8",
"X  c #00A800",
"o  c #00A8A8",
"O  c #A80000",
"+  c #A800A8",
"@  c #A85400",
"#  c gray66",
"$  c gray33",
"%  c #5454FC",
"&  c #54FC54",
"*  c #54FCFC",
"=  c #FC5454",
"-  c #FC54FC",
";  c #FCFC54",
":  c gray99",
">  c #ECECEC",
",  c gainsboro",
"<  c #D0D0D0",
"1  c #C0C0C0",
"2  c #B4B4B4",
"3  c gray66",
"4  c #989898",
"5  c gray55",
"6  c #7C7C7C",
"7  c gray44",
"8  c #646464",
"9  c gray33",
"0  c #484848",
"q  c gray22",
"w  c #2C2C2C",
"e  c #202020",
"r  c #FC0000",
"t  c #EC0000",
"y  c #E00000",
"u  c #D40000",
"i  c #C80000",
"p  c #BC0000",
"a  c #B00000",
"s  c #A40000",
"d  c #980000",
"f  c #880000",
"g  c #7C0000",
"h  c #700000",
"j  c #640000",
"k  c #580000",
"l  c #4C0000",
"z  c #400000",
"x  c #FCD8D8",
"c  c #FCB8B8",
"v  c #FC9C9C",
"b  c #FC7C7C",
"n  c #FC5C5C",
"m  c #FC4040",
"M  c #FC2020",
"N  c #FC0000",
"B  c #FCA85C",
"V  c #FC9840",
"C  c #FC8820",
"Z  c #FC7800",
"A  c #E46C00",
"S  c #CC6000",
"D  c #B45400",
"F  c #9C4C00",
"G  c #FCFCD8",
"H  c #FCFCB8",
"J  c #FCFC9C",
"K  c #FCFC7C",
"L  c #FCF85C",
"P  c #FCF440",
"I  c #FCF420",
"U  c #FCF400",
"Y  c #E4D800",
"T  c #CCC400",
"R  c #B4AC00",
"E  c #9C9C00",
"W  c #848400",
"Q  c #706C00",
"!  c #585400",
"~  c #404000",
"^  c #D0FC5C",
"/  c #C4FC40",
"(  c #B4FC20",
")  c #A0FC00",
"_  c #90E400",
"`  c #80CC00",
"'  c #74B400",
"]  c #609C00",
"[  c #D8FCD8",
"{  c #BCFCB8",
"}  c #9CFC9C",
"|  c #80FC7C",
" . c #60FC5C",
".. c #40FC40",
"X. c #20FC20",
"o. c #00FC00",
"O. c #00FC00",
"+. c #00EC00",
"@. c #00E000",
"#. c #00D400",
"$. c #04C800",
"%. c #04BC00",
"&. c #04B000",
"*. c #04A400",
"=. c #049800",
"-. c #048800",
";. c #047C00",
":. c #047000",
">. c #046400",
",. c #045800",
"<. c #044C00",
"1. c #044000",
"2. c #D8FCFC",
"3. c #B8FCFC",
"4. c #9CFCFC",
"5. c #7CFCF8",
"6. c #5CFCFC",
"7. c #40FCFC",
"8. c #20FCFC",
"9. c #00FCFC",
"0. c #00E4E4",
"q. c #00CCCC",
"w. c #00B4B4",
"e. c #009C9C",
"r. c #008484",
"t. c #007070",
"y. c #005858",
"u. c #004040",
"i. c #5CBCFC",
"p. c #40B0FC",
"a. c #20A8FC",
"s. c #009CFC",
"d. c #008CE4",
"f. c #007CCC",
"g. c #006CB4",
"h. c #005C9C",
"j. c #D8D8FC",
"k. c #B8BCFC",
"l. c #9C9CFC",
"z. c #7C80FC",
"x. c #5C60FC",
"c. c #4040FC",
"v. c #2024FC",
"b. c #0004FC",
"n. c #0000FC",
"m. c #0000EC",
"M. c #0000E0",
"N. c #0000D4",
"B. c #0000C8",
"V. c #0000BC",
"C. c #0000B0",
"Z. c #0000A4",
"A. c #000098",
"S. c #000088",
"D. c #00007C",
"F. c #000070",
"G. c #000064",
"H. c #000058",
"J. c #00004C",
"K. c #000040",
"L. c #282828",
"P. c #FCE034",
"I. c #FCD424",
"U. c #FCCC18",
"Y. c #FCC008",
"T. c #FCB400",
"R. c #B420FC",
"E. c #A800FC",
"W. c #9800E4",
"Q. c #8000CC",
"!. c #7400B4",
"~. c #60009C",
"^. c #500084",
"/. c #440070",
"(. c #340058",
"). c #280040",
"_. c #FCD8FC",
"`. c #FCB8FC",
"'. c #FC9CFC",
"]. c #FC7CFC",
"[. c #FC5CFC",
"{. c #FC40FC",
"}. c #FC20FC",
"|. c #FC00FC",
" X c #E000E4",
".X c #C800CC",
"XX c #B400B4",
"oX c #9C009C",
"OX c #840084",
"+X c #6C0070",
"@X c #580058",
"#X c #400040",
"$X c #FCE8DC",
"%X c #FCE0D0",
"&X c #FCD8C4",
"*X c #FCD4BC",
"=X c #FCCCB0",
"-X c #FCC4A4",
";X c #FCBC9C",
":X c #FCB890",
">X c #FCB080",
",X c #FCA470",
"<X c #FC9C60",
"1X c #F0945C",
"2X c #E88C58",
"3X c #DC8854",
"4X c #D08050",
"5X c #C87C4C",
"6X c #BC7848",
"7X c #B47044",
"8X c #A86840",
"9X c #A0643C",
"0X c #9C6038",
"qX c #905C34",
"wX c #885830",
"eX c #80502C",
"rX c #744C28",
"tX c #6C4824",
"yX c #5C4020",
"uX c #543C1C",
"iX c #483818",
"pX c #403018",
"aX c #382C14",
"sX c #28200C",
"dX c #600064",
"fX c #006464",
"gX c #006060",
"hX c #00001C",
"jX c #00002C",
"kX c #302410",
"lX c #480048",
"zX c #500050",
"xX c #000034",
"cX c gray11",
"vX c #4C4C4C",
"bX c gray36",
"nX c gray25",
"mX c gray19",
"MX c #343434",
"NX c #D8F4F4",
"BX c #B8E8E8",
"VX c #9CDCDC",
"CX c #74C8C8",
"ZX c #48C0C0",
"AX c #20B4B4",
"SX c #20B0B0",
"DX c #00A4A4",
"FX c #009898",
"GX c #008C8C",
"HX c #008484",
"JX c #007C7C",
"KX c #007878",
"LX c #007474",
"PX c #007070",
"IX c #006C6C",
"UX c #980088",
/* pixels */
"mXq q vXvXq q q q q q q q q q q q mXq q q q q q q vXvXvXvXq q mXe L.mXmXmXmXmXq vX$ $ vXq q q q mXmXL.L.mXmXmXmXmXmXmXmXmXmXmXmX",
"q q 7 5 7 $ 7 7 vXnXvX$ $ $ 7 7 vXq $ 7 $ $ 7 $ 7 7 5 7 7 $ 7 mXe q vXnXvXq q $ 5 4 5 7 7 7 $ $ $ q mXq q q q q nXq q $ vXq q e ",
"e mXvX$ q q q q mXmXq q q q q q mXe mXq q q q q q nXq $ q vX$ mXe mXmXq mXmXq q $ bX$ $ $ vXq q q mXmXmXmXmXmXq mXmXmXmXq q $ L.",
"cXq $ $ q q q q mXq q q q q nXq mXmXmXq q q q q q q q q q q $ L.cXL.mXmXmXmXL.q q mXq q $ q mXL.mXmXL.L.mXmXq q mXe e L.mXq $ L.",
"cXq $ $ q q q q mXq q q q q nXq mXmXmXq q q q q q q q q q q $ L.cXL.mXmXmXmXL.q q mXq q $ q mXL.mXmXL.L.mXmXq q mXe e L.mXq $ L.",
"cXq vX$ nXq q q mXq q q q q q q q q q q q q q q q q L.L.mXq $ L.cXe mXmXL.L.e q q e e mXq q q mXL.L.e L.mXq q q mXmXL.mXe mXq e ",
"e mXq nX$ q q q mXq q q q q q mXmXq mXq q q q q q mXL.L.mXq $ L.cXe mXmXe e L.L.q e e L.mXq q q mXe e e cXe L.L.e mXq q L.L.L.cX",
"e mXq nX$ q q q mXq q q q q q mXmXq mXq q q q q q mXL.L.mXq $ L.cXe mXmXe e L.L.q e e L.mXq q q mXe e e cXe L.L.e mXq q L.L.L.cX",
"cXL.q vX$ vXq q mXq q mXmXq q mXmXq q q q q q q q q q mXq q $ L.cXmXq mXL.L.L.e L.e cXe mXmXmXq q L.L.mXe cXcXcXe L.mXL.L.e L.cX",
"cXL.q vX$ vXq q mXq q mXmXq q mXmXq q q q q q q q q q mXq q $ L.cXmXq mXL.L.L.e L.e cXe mXmXmXq q L.L.mXe cXcXcXe L.mXL.L.e L.cX",
"cXL.vX$ bX$ q q q q q L.mXq q q q q q q q q q q q q q q q q $ L.cXmXq q mXmXe e e e e e mXmXL.mXmXmXmXmXL.e cXcXcXe e L.e L.q cX",
"cXmXq $ $ $ nXq q q q mXq vXq q q q q q q q q q q q mXq q vX$ L.cXL.q q mXmXL.e e e e e L.mXL.L.L.mXq mXL.e e cXcXcXe q L.mXq cX",
"cXq q $ $ $ vX$ vXnXq q q q q q q q $ $ q q mXmXmXe L.e mXvX7 L.cXe mXmXL.e e e L.L.mXmXq L.e e e L.mXL.mXe L.e e e e mXmXmXq cX",
"cXmXmXq q q q q q q e L.L.L.mXL.mXmXq mXmXe e e e e cXe e mX7 e cXcXe e e cXcXe cXe e e e cXcXcXcXe e e e e e cXcXcXcXcXe e L.cX",
"cXcXL.L.L.mXmXmXmXL.e cXcXcXcXcXcXe e e e cXcXcXcXcXcXcXcXe e cXcXcXcXcXcXcXcXcXcXcXcXcXcXcXcXcXcXcXcXcXcXcXcXcXcXcXcXcXcXcXcXcX",
"cXe e mXL.e q L.mXL.e e cXe e cXe e e e e e cXcXcXcXe e cXcXe cXcXcXe e cXcXcXcXcXcXcXcXcXcXcXcXcXcXcXe e e e cXcXcXcX  cXcXcXcX",
"q q vX$ $ bXbX7 bXbX$ vXvXvX$ q mXe q q vXq q q mXq q q q q q vXq q q q q q q q q q q mXmXmXL.cXcXe mXq q q q q mXmXL.L.L.mXmXmX",
"vXvX$ 7 7 7 5 7 5 7 7 7 vX7 7 vXe L.q 7 $ vXvXvXq q $ $ $ vX$ vXvX$ $ vXnXvXvXvXvXvXq q q q q cXcXe vX$ $ $ $ vXq q q mXq q q q ",
"L.mXq q vX$ vX$ $ $ q q q q 7 $ e e e q q mXmXe e e mXq mXmXe e e e q q q L.mXmXmXq mXe L.q q cXcXcXL.L.mXmXmXmXe e cXcXe e L.L.",
"mXmXq q q $ $ $ vXnXnXq q q bXvXe cXe q q mXmXL.e L.q q L.L.e e e e L.q q q q mXmXmXmXe mXmXq cXcXe L.L.mXmXmXmXL.e e cXL.e cXL.",
"mXq q q mXq vX$ q vXvXq q q vXvXe e e q q q mXL.e mXmXq mXe e cXcXe L.mXmXq q mXq mXmXL.L.mXq e cXe mXmXmXmXmXmXe e e e mXL.L.e ",
"mXq nXq L.q q $ vX$ vXq q q bXvXe e e q q mXmXmXL.mXmXq mXe e e e L.mXmXmXmXq q q mXmXL.L.mXq e cXcXe mXmXmXmXq mXe L.e L.L.mXmX",
"mXq nXq mXmXq $ $ nXq q q q vXvXe cXe q q mXmXmXmXq q mXL.e cXe e q q q mXq q q mXmXmXmXL.mXq e cXcXe L.mXL.mXmXmXq L.mXmXmXq mX",
"mXq q mXmXmXq $ $ q mXmXmXq bXvXe cXe q q q mXmXq q q e e cXcXL.L.q q q mXmXq q L.mXq mXL.mXq e cXcXL.e e e L.L.L.mXmXmXmXmXq e ",
"mXq q mXmXmXq $ $ q mXmXmXq bXvXe cXe q q q mXmXq q q e e cXcXL.L.q q q mXmXq q L.mXq mXL.mXq cXcXcXL.e e e L.L.L.mXmXmXmXmXq e ",
"q q q q mXq q q q q q q mXmXvXvXe cXe q q mXL.L.mXq q e e L.q q q mXmXq mXmXq q mXmXmXL.L.mXq cXcXe e e e e L.e e e mXL.e L.mXq ",
"q mXq q q q q q q q q mXL.mXbXvXe cXmXq mXmXL.e mXmXmXmXe q nXq q q mXq mXe q q e mXL.q q q $ e cXe e L.L.L.q mXe e L.e L.mXmXq ",
"L.L.q q nXq q q q q mXe L.q vXvXe cXmXq q q mXe e e L.mXq q q vXvXq q mXe L.q mXL.mXe mXmXq $ e cXmXL.mXmXq q q mXL.e L.mXmXq L.",
"L.L.q q nXq q q q q mXe L.q vXq e cXmXq q q mXe e e L.mXq q q vXvXq q mXe L.q mXL.mXe mXmXmX$ e cXmXL.mXmXq q q mXL.e L.mXmXq L.",
"e cXe L.L.e L.mXL.L.L.e e e mXmXe cXL.e e e e cXcXcXcXe e e cXmXmXmXL.e cXcXcXcXcXcXcXcXcXe e cXcXL.e e L.e e e mXe cXe mXL.e cX",
"cXcXcXcXcXcXcXcXcXcXcXcXcXcXe e cXcXcXcXcXcXcXcXcXcXcXcXcXcXcXcXe cXcXcXcXcXcXcXcXcXcXcXcXcXcXcXcXcXcXcXcXcXcXcXcXcXcXcXcXcXcXcX",
"  cXcXcXcXcXcXe e e cXcXcXcXe q cX  cXcXcXcXcXcXcXcXcXcXcXcXcXL.cXcXcXcX    cXcX  cX  cXcXcXe     cX  cXcXcXcXcXcX    cXcXcXcX  ",
"mXq q vXvXq q q q q q q q q q q q mXq q q q q q q vXvXvXvXq q mXe L.mXmXmXmXmXq vX$ $ vXq q q q mXmXL.L.mXmXmXmXmXmXmXmXmXmXmXmX",
"q q 7 5 7 $ 7 7 vXnXvX$ $ $ 7 7 vXq $ 7 $ $ 7 $ 7 7 5 7 7 $ 7 mXe q vXnXvXq q $ 5 4 5 7 7 7 $ $ $ q mXq q q q q nXq q $ vXq q e ",
"e mXvX$ q q q q mXmXq q q q q q mXe mXq q q q q q nXq $ q vX$ mXe mXmXq mXmXq q $ bX$ $ $ vXq q q mXmXmXmXmXmXq mXmXmXmXq q $ L.",
"cXq $ $ q q q q mXq q q q q nXq mXmXmXq q q q q q q q q q q $ L.cXL.mXmXmXmXL.q q mXq q $ q mXL.mXmXL.L.mXmXq q mXe e L.mXq $ L.",
"cXq $ $ q q q q mXq q q q q nXq mXmXmXq q q q q q q q q q q $ L.cXL.mXmXmXmXL.q q mXq q $ q mXL.mXmXL.L.mXmXq q mXe e L.mXq $ L.",
"cXq vX$ nXq q q mXq q q q q q q q q q q q q q q q q L.L.mXq $ L.cXe mXmXL.L.e q q e e mXq q q mXL.L.e L.mXq q q mXmXL.mXe mXq e ",
"e mXq nX$ q q q mXq q q q q q mXmXq mXq q q q q q mXL.L.mXq $ L.cXe mXmXe e L.L.q e e L.mXq q q mXe e e cXe L.L.e mXq q L.L.L.cX",
"e mXq nX$ q q q mXq q q q q q mXmXq mXq q q q q q mXL.L.mXq $ L.cXe mXmXe e L.L.q e e L.mXq q q mXe e e cXe L.L.e mXq q L.L.L.cX",
"cXL.q vX$ vXq q mXq q mXmXq q mXmXq q q q q q q q q q mXq q $ L.cXmXq mXL.L.L.e L.e cXe mXmXmXq q L.L.mXe cXcXcXe L.mXL.L.e L.cX",
"cXL.q vX$ vXq q mXq q mXmXq q mXmXq q q q q q q q q q mXq q $ L.cXmXq mXL.L.L.e L.e cXe mXmXmXq q L.L.mXe cXcXcXe L.mXL.L.e L.cX",
"cXL.vX$ bX$ q q q q q L.mXq q q q q q q q q q q q q q q q q $ L.cXmXq q mXmXe e e e e e mXmXL.mXmXmXmXmXL.e cXcXcXe e L.e L.q cX",
"cXmXq $ $ $ nXq q q q mXq vXq q q q q q q q q q q q mXq q vX$ L.cXL.q q mXmXL.e e e e e L.mXL.L.L.mXq mXL.e e cXcXcXe q L.mXq cX",
"cXq q $ $ $ vX$ vXnXq q q q q q q q $ $ q q mXmXmXe L.e mXvX7 L.cXe mXmXL.e e e L.L.mXmXq L.e e e L.mXL.mXe L.e e e e mXmXmXq cX",
"cXmXmXq q q q q q q e L.L.L.mXL.mXmXq mXmXe e e e e cXe e mX7 e cXcXe e e cXcXe cXe e e e cXcXcXcXe e e e e e cXcXcXcXcXe e L.cX",
"cXcXL.L.L.mXmXmXmXL.e cXcXcXcXcXcXe e e e cXcXcXcXcXcXcXcXe e cXcXcXcXcXcXcXcXcXcXcXcXcXcXcXcXcXcXcXcXcXcXcXcXcXcXcXcXcXcXcXcXcX",
"cXe e mXL.e q L.mXL.e e cXe e cXe e e e e e cXcXcXcXe e cXcXe cXcXcXe e cXcXcXcXcXcXcXcXcXcXcXcXcXcXcXe e e e cXcXcXcX  cXcXcXcX",
"q q vX$ $ bXbX7 bXbX$ vXvXvX$ q mXe q q vXq q q mXq q q q q q vXq q q q q q q q q q q mXmXmXL.cXcXe mXq q q q q mXmXL.L.L.mXmXmX",
"vXvX$ 7 7 7 5 7 5 7 7 7 vX7 7 vXe L.q 7 $ vXvXvXq q $ $ $ vX$ vXvX$ $ vXnXvXvXvXvXvXq q q q q cXcXe vX$ $ $ $ vXq q q mXq q q q ",
"L.mXq q vX$ vX$ $ $ q q q q 7 $ e e e q q mXmXe e e mXq mXmXe e e e q q q L.mXmXmXq mXe L.q q cXcXcXL.L.mXmXmXmXe e cXcXe e L.L.",
"mXmXq q q $ $ $ vXnXnXq q q bXvXe cXe q q mXmXL.e L.q q L.L.e e e e L.q q q q mXmXmXmXe mXmXq cXcXe L.L.mXmXmXmXL.e e cXL.e cXL.",
"mXq q q mXq vX$ q vXvXq q q vXvXe e e q q q mXL.e mXmXq mXe e cXcXe L.mXmXq q mXq mXmXL.L.mXq e cXe mXmXmXmXmXmXe e e e mXL.L.e ",
"mXq nXq L.q q $ vX$ vXq q q bXvXe e e q q mXmXmXL.mXmXq mXe e e e L.mXmXmXmXq q q mXmXL.L.mXq e cXcXe mXmXmXmXq mXe L.e L.L.mXmX",
"mXq nXq mXmXq $ $ nXq q q q vXvXe cXe q q mXmXmXmXq q mXL.e cXe e q q q mXq q q mXmXmXmXL.mXq e cXcXe L.mXL.mXmXmXq L.mXmXmXq mX",
"mXq q mXmXmXq $ $ q mXmXmXq bXvXe cXe q q q mXmXq q q e e cXcXL.L.q q q mXmXq q L.mXq mXL.mXq e cXcXL.e e e L.L.L.mXmXmXmXmXq e ",
"mXq q mXmXmXq $ $ q mXmXmXq bXvXe cXe q q q mXmXq q q e e cXcXL.L.q q q mXmXq q L.mXq mXL.mXq cXcXcXL.e e e L.L.L.mXmXmXmXmXq e ",
"q q q q mXq q q q q q q mXmXvXvXe cXe q q mXL.L.mXq q e e L.q q q mXmXq mXmXq q mXmXmXL.L.mXq cXcXe e e e e L.e e e mXL.e L.mXq ",
"q mXq q q q q q q q q mXL.mXbXvXe cXmXq mXmXL.e mXmXmXmXe q nXq q q mXq mXe q q e mXL.q q q $ e cXe e L.L.L.q mXe e L.e L.mXmXq ",
"L.L.q q nXq q q q q mXe L.q vXvXe cXmXq q q mXe e e L.mXq q q vXvXq q mXe L.q mXL.mXe mXmXq $ e cXmXL.mXmXq q q mXL.e L.mXmXq L.",
"L.L.q q nXq q q q q mXe L.q vXq e cXmXq q q mXe e e L.mXq q q vXvXq q mXe L.q mXL.mXe mXmXmX$ e cXmXL.mXmXq q q mXL.e L.mXmXq L.",
"e cXe L.L.e L.mXL.L.L.e e e mXmXe cXL.e e e e cXcXcXcXe e e cXmXmXmXL.e cXcXcXcXcXcXcXcXcXe e cXcXL.e e L.e e e mXe cXe mXL.e cX",
"cXcXcXcXcXcXcXcXcXcXcXcXcXcXe e cXcXcXcXcXcXcXcXcXcXcXcXcXcXcXcXe cXcXcXcXcXcXcXcXcXcXcXcXcXcXcXcXcXcXcXcXcXcXcXcXcXcXcXcXcXcXcX",
"  cXcXcXcXcXcXe e e cXcXcXcXe q cX  cXcXcXcXcXcXcXcXcXcXcXcXcXL.cXcXcXcX    cXcX  cX  cXcXcXe     cX  cXcXcXcXcXcX    cXcXcXcX  "
};
