/* XPM */
static char *ac3ddbfd47704a54cb1e9a97886ab72023cTHPeXSf5LwxDi[] = {
/* columns rows colors chars-per-pixel */
"64 64 235 2 ",
"   c #2B2A1D",
".  c #28291D",
"X  c #312C1D",
"o  c #32391D",
"O  c #321D38",
"+  c #2A1F3F",
"@  c #1E2B29",
"#  c #1E332A",
"$  c #1D2D32",
"%  c #1D3634",
"&  c #252625",
"*  c #2D2524",
"=  c #252B25",
"-  c #2B2A24",
";  c #25262B",
":  c #2A252B",
">  c #242B2D",
",  c #2A2A29",
"<  c #342925",
"1  c #29332B",
"2  c #3B372D",
"3  c #3B3A2C",
"4  c #363427",
"5  c #2B2232",
"6  c #292936",
"7  c #332A3A",
"8  c #342538",
"9  c #243334",
"0  c #2B3433",
"q  c #2C3B3C",
"w  c #273839",
"e  c #3C3C31",
"r  c #353934",
"t  c #1A311F",
"y  c #4E2B1D",
"u  c #552C1B",
"i  c #5A2B1C",
"p  c #5B2914",
"a  c #492C22",
"s  c #552C22",
"d  c #433C2C",
"f  c #423B37",
"g  c #523932",
"h  c #394336",
"j  c #33412E",
"k  c #0B7D2E",
"l  c #0B7E31",
"z  c #137732",
"x  c #47432D",
"c  c #484537",
"v  c #51523B",
"b  c #351A45",
"n  c #263840",
"m  c #363A43",
"M  c #342743",
"N  c #4A0B69",
"B  c #520575",
"V  c #55087B",
"C  c #4C1876",
"Z  c #53167C",
"A  c #4C0773",
"S  c #482678",
"D  c #2C4243",
"F  c #2C4749",
"G  c #354342",
"H  c #555243",
"J  c #4F5144",
"K  c #B4625C",
"L  c #CE6F64",
"P  c #29A51D",
"I  c #29A91C",
"U  c #28A51B",
"Y  c #039B2D",
"T  c #04972B",
"R  c #059D32",
"E  c #0A9B35",
"W  c #159B3D",
"Q  c #0D8C33",
"!  c #03A22C",
"~  c #04A133",
"^  c #2AA722",
"/  c #3FA424",
"(  c #3A9D28",
")  c #92BE37",
"_  c #ADDE0A",
"`  c #ABD60E",
"'  c #AFE00B",
"]  c #B1E20C",
"[  c #B3E013",
"{  c #9DD32E",
"}  c #9ED531",
"|  c #A2D532",
" . c #A2D835",
".. c #ACDF25",
"X. c #A0D644",
"o. c #590D86",
"O. c #916DA9",
"+. c #9467B7",
"@. c #8E6AAF",
"#. c #A376BB",
"$. c #A068BF",
"%. c #D67AAC",
"&. c #9D66C5",
"*. c #9D6BC3",
"=. c #9E66CC",
"-. c #9B6BCA",
";. c #9778C7",
":. c #9D69D2",
">. c #A265CD",
",. c #A26ACE",
"<. c #A46AC7",
"1. c #A474C4",
"2. c #A673CC",
"3. c #A977C4",
"4. c #A266D2",
"5. c #A46BD2",
"6. c #A969D3",
"7. c #A86AD8",
"8. c #A571D3",
"9. c #7FAFAF",
"0. c #8AB9B9",
"q. c #93BDBC",
"w. c #84B1AC",
"e. c #BDB68A",
"r. c #C3BE9B",
"t. c #CA82AC",
"y. c #D180AB",
"u. c #D4BFB4",
"i. c #AAD7B5",
"p. c #AAD8B5",
"a. c #ABD7B7",
"s. c #93C1BF",
"d. c #D3CC9C",
"f. c #D7CB9D",
"g. c #D3CE9C",
"h. c #E6DB9E",
"j. c #CCC8A2",
"k. c #D5CCA3",
"l. c #D6CCA7",
"z. c #DBD5A4",
"x. c #DDD5AC",
"c. c #DAD6A6",
"v. c #DEC9B5",
"b. c #DAC6B6",
"n. c #DCD3B0",
"m. c #E5DCA4",
"M. c #E9DDA5",
"N. c #E3DCAC",
"B. c #EBDEAA",
"V. c #E2D6A7",
"C. c #E1CBB7",
"Z. c #E7D9B7",
"A. c #F1DDBD",
"S. c #ECE2A5",
"D. c #EDE2AB",
"F. c #EBE6AA",
"G. c #F1E6AD",
"H. c #F3EAAD",
"J. c #F1E8A5",
"K. c #ECE4B3",
"L. c #EBE5B6",
"P. c #F2E6B2",
"I. c #F4EAB3",
"U. c #F9ECB5",
"Y. c #F4EBBB",
"T. c #F9EDBA",
"R. c #F4E6BA",
"E. c #F9F1B7",
"W. c #F7F0AC",
"Q. c #EDE39E",
"!. c #8EA0C3",
"~. c #8BC7C6",
"^. c #94CDCC",
"/. c #97C8C9",
"(. c #97D1CC",
"). c #94CFD2",
"_. c #9BCCD8",
"`. c #95D3D3",
"'. c #9BD4D4",
"]. c #9CD3D9",
"[. c #95DDDE",
"{. c #9CDDDD",
"}. c #96D7DA",
"|. c #8FCED0",
" X c #A2DDDD",
".X c #A7D8D9",
"XX c #ACD0D7",
"oX c #95E1DE",
"OX c #9AE2DF",
"+X c #A3E2DE",
"@X c #A4EADC",
"#X c #AAEBDE",
"$X c #B1E4DF",
"%X c #96DEE1",
"&X c #9ADEE2",
"*X c #9CD6E5",
"=X c #9DCBE5",
"-X c #A2DDE4",
";X c #AADCE3",
":X c #A7D8EA",
">X c #A8CDE7",
",X c #96E2E2",
"<X c #9BE3E4",
"1X c #9EE5E8",
"2X c #9DE9EA",
"3X c #9AE8E8",
"4X c #9DF1F1",
"5X c #A3E3E4",
"6X c #AAE4E4",
"7X c #A4E9E4",
"8X c #AAECE3",
"9X c #A1E6E9",
"0X c #A3EAEB",
"qX c #A9E9EB",
"wX c #AAE5EA",
"eX c #A7EBF0",
"rX c #EAD5C4",
"tX c #D3F0D9",
"yX c #F0F0C9",
"uX c #E4D8EB",
"iX c #E8D6F0",
"pX c #F3EBF5",
"aX c #E6F5F5",
"sX c #E5F4F4",
"dX c #E9F4F5",
"fX c #EEF8F6",
"gX c #EFF9F8",
"hX c #E8F4F8",
"jX c #F1FAF9",
"kX c #FFFDFF",
"lX c #FEFEFE",
"zX c #FEFDFE",
"xX c #F6F6F6",
"cX c #ECF6E9",
"vX c #DBC1C2",
/* pixels */
"lXlXkXlXlXkXkXkXkXkXkXkXkXkXkXkXkXkXkXkXkXkXkXkXkXkXkXkXkXkXkXkXkXkXkXkXkXkXkXkXkXkXkXkXkXkXkXkXkXkXkXkXkXkXlXkXkXkXkXkXkXkXkXkX",
"lXjXhXdXdXsXaXdXaXaXaXaXaXdXaXaXdXaXaXaXaXaXdXaXaXaXdXaXaXdXaXdXaXaXaXaXaXaXsXsXaXdXdXdXdXdXdXdXaXaXhXhXdXdXdXdXdXaXaXaXaXsXjXkX",
"kXsX6X5X6X&X6X5X5X X5X<X6X5X6X{.6X{.6X5X5X5X6X5X5X5X6X5X6X5X6X5X6X5X6X5X5X5X6X-XwX<X2X<X7X<X5X1X5X5X5X<X2X<X5X<X7X5X6X5X5X.XjXkX",
"kXsX<X,X1X%X2X<X<X,X<X,X<X,X<X%X2XoX2X<X<X<X<X<X<X,X<X,X2X,X<X,X<X,X<X<X<X<X<X,X3X[.).^.`.^.^.).<X{.`.^.(.^.).|.<X<X<X<X,XOXjXlX",
"kXaX6X1X6X<X0X5X5X5X5X1X6X<X6X-X7X<X7X5X1X<X5X<X5X<X5X<X0X<X0X<X9X<X5X5X7X<X9X<X0X(.> 6 6 > > q <X].# , , > > D 6X5X5X5X9X5XjXkX",
"kXaX5X,X<X&X<X,X>X*X*X*X*X=X,X%X1X[.1X<X<X%X<X,X<X%X<X[.<X%X<X%X<X%X<X<X<X{.1X[.`.0.5 5 7 7 7 q ^.q.w 7 7 7 8 m (.`.,XoXoX XgXkX",
"kXaX6X1X2X5X0X:X;.;.wX:X-.;.0X<XeX<X0X0X9X1X9X1X2X1X9X<X0X5X0X1X0X1X9X2X9X1X2X].@ + B Z ,.,.,.*.6 7 <.5.8.,.5.@.6 $ 6XqX9X6XgXkX",
"kXaX6X<X2X<X7X:X;.;.:X:X;.!.wX<X0X<X9X1X1X1X9X<X2X1X2X,X9X<X9X<X9X1X9X<X1X<X{.^.: O V o.5.4.5.&.8 M -.:.5.,.2.O.8 n .X-X3X6XgXkX",
"kXsX5X,X5X%X3X<X-X>X;.;.:X*X5X,X1X{.1X<X<X<X<X<X<X<X<X,X1X<X1X%X1X<X1X<X<X).9 6 N Z >.>.,.>.>.>.*.-.4.>.4.2.pXuX*.@.6 q &X5XgXkX",
"kXaX6X,X5X<X9X1X<X-X;.;.1X<X1X<X9X<X9X1X;X-X3X5X;X;X1X,X9X<X9X<X1X<X1X1X1X`.> O B V 5.,.5.4.4.4.4.,.4.4.5.2.xXuX,.*.: 0 5X5XgXkX",
"kXsX5X,X1X%X9X<X1X<X:X:X3X<X1X<X1X<X9X X%.t.;X.X%.t.;X,X1X<X9X<X1X<X1X<X1X'.> O B V 5.,.5.,.4.4.,.>.4.=.5.2.xXuX,.*.: 0 <X5XgXkX",
"kXaX6X,X5X<X9X1X1X<X<X<X5X<X1X<X9X<X9X;X%.t..XXX%.t.;X<X1X<X9X<X9X<X1X1X1X(.> O B V 5.,.5.,.4.4.4.,.4.>.5.2.pXuX,.*.5 0 &X5XgXkX",
"kXsX5X<X5X%X9X<X<X<X1X<X1X<X1X<X1X<X9X1X;XXX%.%.;X<X1X,X1X<X9X<X1X<X1X<X1X^.> O B V 5.,.4.>.4.4.,.>.,.=.5.2.pXuX,.+.5 0 &X+XgXkX",
"kXaX6X<X6X<X9X1X1X<X1X<X9X<X1X<X9X<X0X1X<X;Xy.t.6X1X2X<X0X<X9X<X9X<X1X<X9X'.> 5 V V 4.=.5.4.4.4.4.,.6.>.8.3.pXiX,.*.5 0 5X5XgXkX",
"kXaX5X,X1X%X1X<X<X<X1X<X1X<X1X%X1X<X9X<X<X<X;X X5X<X1X&X9X&X9X<X1X<X<X<X1X^.> O V V V o.4.4.,.,.,.:.5.2.pXiX;.*.5.*.5 0 &X5XgXkX",
"kXaX5X<X5X%X9X<X1X<X1X<X1X<X1X<X9X%X9X1X<X<X<X<X1X<X1X,X}.}.2X<X9X<X1X<X<X`.q M N A o.o.>.=.,.,.,.4.5.1.pXiX5.&.*.O.w D <X5XjXkX",
"kXaX6X<X5X%X9X1X1X<X1X<X1X<X1X<X9X<X9X1X<X<XwX;X3X<X9X^.9 D 6X<X1X<X1X<X1X<X-X/.: O B B V V >.,.4.=.>.,.2.*.,.+.8 7  X X<X5XgXkX",
"kXaX5X,X1X{.:X*X-X-X:X=X1X<X1X<X9X<X9X<X<X<X3X,X}.'.[.~.& q  X}.].].3X<X1X<X1X).9 M N A B V >.>.4.<.6.>.5.:.&.@.6 % <X1X3X5XgXkX",
"kXsX5X,X6X_.C S <X}.C C qX1X9X<X9X<X2X<X1X3X1X'.$ > > - i s - > , 9 +X3X1X<X2X,X5X^.5 b B V B o.4.,.5.4.7.+.8 m +X+X<X<X9X5XjXkX",
"kXaXqX1X0X=XV S :X>XC Z qX1X9X1X0X5X0X5X5X5X5X.X& * * * s a < : , 9 6X5X6X5X0X<XqX`.@ 6 N B B V 7.6.<.*.7.+.6 D 7X2X2X2X9X6XgXkX",
"kXsX<X,X<X%X.X_.C S =X].1X%X<X[.<X[.1X'.n 9 0 0 a y u y p p u y u u 0 9 9 F  XoX1X,X].0.5 5 O b V A M 8 7 m ].'.OX&X&X<X,X{.gXkX",
"kXaXqX<X7X<X4X*XC S :X<X2X1X2X<X5X{.1X.X> * - < i i i i i i s i i s - * * w  X<X6X{.qX^.9 > > 6 N N 6 # 9 D 7X<X2X3X2X0X0X5XgXkX",
"kXsX5X,X5X{.1X-X]._.9X%X<X%X<X|.w w w 0 & * a u i i i i i i i i i i u y : & 0 w 0 F 5X[.`.`.'.~.5 m '.`.'.`.5X%X1X<X<X<X<X5XjXkX",
"kXaX6X<X9X<X9X1X9X1X2X<X3X<X6X/.= - - - - < s u u u u u u u i u u u u y X - = -   q wX<X9X1X5X}.> q 5X<X9X1X9X<X9X<X1X1X2X5XjXkX",
"kXaX5X,X1X%X1X<X,X,X<X<X<X).w h N.z.m.m.m.d.- * * * * * * * * * * * * 4 Z.x.N.z.m.j.1 F 5X<X<X}., 0 -X%X1X,X1X<X1X,X<X<X<X XgXkX",
"kXaXqX<X9X<X0X9X2X9X0X5X5X(., 3 P.P.U.I.I.N.- & = - - . - - - & - - & 4 P.P.I.D.U.x.. G $X<X7X[., q 5X<X0X1X9X1X0X9X9X9X9X6XjXkX",
"kXaX5X,X<X{.9X<X<X&XOX`.$ j x.N.G.m.J.M.B.S.N.x.N.N.N.c.N.x.N.z.N.x.N.N.S.M.S.M.D.N.m.j.- w  X`.& q  X[.<X%X<X[.1X%X<X<X<X XgXkX",
"kXaX6X<X9XOX2X2X+X{.<X'.= d G.F.L.N.U.G.P.J.P.G.G.H.H.F.H.D.I.F.I.G.H.G.G.G.H.F.K.S.H.l.4 w  X`.> w <X,X7X<X2X<X9X1X1X1X1X5XjXkX",
"kXsX5X,X9X{.2X].w 0 9 r N.V.J.d.4 x Y.D.D.S.D.S.D.S.S.B.G.B.G.D.P.S.D.D.D.B.D.l.4 d R.M.V.l.1 0 : w -X&X1X<X1X%X1X<X<X<X<X+XgXkX",
"kXaX6X<X2XoX1X'.> , - 4 Y.D.L.l.X d Y.F.G.F.P.D.G.S.H.S.I.D.P.D.P.D.P.G.P.G.P.z.< f L.K.P.N.- -   r  X{.9X<X9X<X9X1X9X1X1X5XjXkX",
"kXsX5X,X<X^.9 r n.V.m.c.P.z.4 x N.x.G.S.S.S.G.D.F.S.D.M.G.D.P.S.G.D.G.D.S.S.G.D.N.j.< c K.S.N.m.N.k.0 D 5X<X1X<X1X<X1X<X<X5XgXkX",
"kXsXqX2X0X`.& r K.I.E.I.U.V.- 3 Y.H.E.U.Y.I.U.I.U.I.U.P.Y.Y.T.H.E.I.U.I.Y.Y.U.H.E.z.* x Y.H.T.I.U.V., 0 eX9X0X9X0X9X0X0X9XqXjXkX",
"kXsX&X%X{.~.& 4 m.m.B.m.S.d.- 2 K.m.S.z.3 x B.M.B.M.S.d.3 x K.m.S.m.B.z.3 c N.h.S.d.& 3 Z.M.M.B.D.f.- 0 5X[.<X[.<X[.%X%X%X{.gXkX",
"kXaX6X2X9X).= 4 F.H.H.P.P.x.X d Y.F.U.N.< r R.G.L.F.H.z., 3 T.G.Y.L.I.N.  2 L.H.U.z.* x yXK.H.P.P.V., 0 qX1X0X1X9X9X9X9X9X6XjXkX",
"kXsX5X[.<X~.& 4 N.M.S.x.3 c k.d.D.M.F.B.k.d.D.z.e c B.d.- 2 D.j.f x D.M.f.f.S.m.D.h.k.e.d c K.S.D.f., 0 5X[.<X[.<X%X<X%X<X{.gXkX",
"kXaX6X1X0X(.$ 4 L.L.I.Z.& e I.G.I.J.U.I.P.P.I.N.  3 L.z.* 3 Y.l.- 4 R.P.I.G.I.D.U.G.U.k.- 1 R.R.I.x.= w wX1X9X1X0X9X9X9X9X5XgXkX",
"kXaX5XoX<X[.).q.e 3 3 2 ; e K.M.D.M.D.D.B.M.S.S.k.r.3 g K K d v l.d.D.M.D.M.S.M.S.M.S.d.. ; 2 e 2 G /.|.<X%X<X[.<X<X<X<X<X XgXkX",
"kXaX0X2XqX<X4X{.$ @ @ > & 2 I.G.U.G.U.I.I.I.T.I.I.V.- < L L : d T.H.U.P.I.I.U.G.U.G.U.l.- : & & ; q qX2X0X9X0X1X0X9X0X9X9XqXgXkX",
"kXsX{.[.{.}.<X%X^.^.).q.& 2 B.M.D.m.G.M.S.B.B.B.S.B.l.r.a g n.k.D.M.S.M.B.M.S.m.S.m.S.j.. > /.s.; 0 [.[.<X%X<X[.<X%X<X<X%X{.gXkX",
"kXaXwX2X0X1X0X2X2X9X0X{.$ r L.K.P.D.Y.R.I.P.I.H.H.H.H.x.- 3 U.J.H.H.H.H.I.G.P.K.R.D.R.k.  9 6X{.> q 5X<X0X1X0X1X0X9X9X9X9X6XgXkX",
"kXsX5X[.<X[.1X%X<X%X<XoX^.q.j e 3 f 1.#.N.B.D.D.S.B.Q.m.z.d.D.B.D.B.D.D.S.Z.#.O.f 2 3 2 ; ; q D ^.^.OX[.1X%X<X[.<X%X<X<X<X XjXkX",
"kXaX6X<X9X<X0X9X2X1X0X<X6X_.= * : 7 5.3.A.K.I.P.P.P.R.P.Y.L.R.P.P.P.R.R.H.rX1.+.< ; - * - - : 0 9X1X2X1X0X1X9X1X9X9X9X9X9X5XjXkX",
"kXsX5X,X<X[.1X<X,X%X<X'.w h k.u.O.+.4.4.1.2.3.1.1.1.1.1.3.1.3.1.1.1.1.1.1.1.>.4.+.O.l.k.z.j.; 9 -X&X,X%X<X%X<X%X<X<X<X<X<X XgXkX",
"kXaX6X<X0X1X0X9X9X9XqX.X& 2 R.Z.#.<.7.5.5.6.5.5.5.,.5.5.7.,.5.4.5.4.5.5.5.,.5.<.5.3.U.P.I.L.- 9 5X2X2X9X0X9X0X1X0X9X9X9X9X6XgXkX",
"kXaX{.,X<X[.1X<X,X`.n j x.k.D.N.rXvX=.$.>.=.4.>.=.=.>.&.4.=.,.&.<.&.=.=.,.=.,.#.rXZ.D.d.o r (.(.%X%X<X[.<X%X<X[.<X%X<X<X<X XgXkX",
"kXaXqX2X0X1XeX0X0X].6 4 Y.P.I.F.I.Z.1.<.7.5.5.5.5.5.7.4.1.,.5.5.8.5.5.5.5.,.5.3.yXH.Y.l.= 9 7X2X0X9X0X9X0X9X0X9X0X9X0X9X0X6XgXkX",
"kXsX{.[.&X[.<X%X[.[.~.w.c c c v D.h.C.b.v.b.<.&.=.&.=.*.v.b.v.b.v.b.v.b.v.b.v.k.A.d.c J 0.0.%X%X{.[.OX%X<X[.<X[.<X%X%X%X[.{.gXkX",
"kXaXqX2X0X1XeX9X0X3X0X{.@ = ; e Y.J.T.H.H.A.2.4.5.5.6.3.U.P.H.J.U.H.I.H.I.P.I.J.U.z.; G 0X2X0X9X9X9X0X1X0X9X0X1X0X9X0X9X9X6XjXkX",
"kXsX{.[.<X[.1X%X<X[.<X[.~.9.> 2 D.m.D.M.S.Z.*.=.=.=.>.#.K.N.D.m.S.M.S.M.S.M.S.m.D.d.& q &X&X<X%X<X%X<X%X<X%X<X[.<X%X<X%X%X{.jXkX",
"kXaXqX2X0X1XeX9X9X9X0X9X0X'.> e Y.P.T.I.I.A.1.5.5.5.6.3.T.H.U.G.U.P.U.I.I.I.U.G.T.z.- h qX0X0X0X9X9X0X9X0X9X0X9X0X9X0X9X0X6XgXkX",
"kXsX{.[.<X[.<X%X%X[.%X[.<X^.> 2 B.m.D.B.M.C.<.4.>.=.>.#.A.M.D.M.S.M.S.M.M.M.S.m.D.d.& q {.%XoX%X%X[.%X[.<X[.<X[.<X[.%X%X%X{.jXkX",
"kXaX0X2X0X1XeX9X9X9X0X9X0X'.> e Y.P.T.U.I.A.1.,.,.,.2.#.T.H.I.G.U.P.U.P.I.P.I.P.T.z.- G qX0X0X0X0X9X0X1X0X2X0X1X0X0X0X9X0X6XjXkX",
"lXsX&X%X<X[.<X,X,X[.,X[.,X~.> 2 D.m.S.M.S.B.C.v.C.v.C.v.D.N.B.h.S.M.S.M.M.M.S.m.D.k.& q {.%XoX%XoX[.,X[.,X[.,X[.,X%X,X,XoX{.gXkX",
"kXdXwX5X0X1X0X9X9X9X0X1X0X].; j I.L.W.I.H.P.I.P.I.I.H.J.I.J.I.P.U.P.I.G.I.G.I.F.W.g.& D 6X9XqX9X9X9X0X5X0X9X0X1X0X0X0X9X9X6XgXkX",
"kXsX:X[.OX[.3X%X,X%X<X%X<X[.~.w.c H D.B.S.M.S.M.D.B.D.M.P.N.D.m.D.B.D.M.D.M.S.k.c J /.~.<XoX<X,X%X%X<X%X<X[.<X%X<X,X,X<X,X-XfXkX",
"kXdX#X@X8X+X8X8X8X@X8X@X8X@X7X(., 3 E.Y.H.I.I.P.U.I.U.P.E.P.E.I.T.I.H.I.U.I.U.V.  q @X7X8X@X#X@X8X+X8X@X8X@X@X@X8X@X#X@X@X$XjXlX",
"lXyXX.{  .{  .} } } | { | | | )   2 K.B.M.M.S.z.d e h h e e c h f x K.M.M.M.D.k.. 4  .| | { | } | } | } } } | {  .} } } } X.cXkX",
"lXyX.._ [ _ ] ' _ _ ] _ ] _ ] ` . e T.I.Y.H.Y.N.@ = = = = = , . = 4 Y.P.I.P.U.x.- o [ ' ] ' [ _ ' _ ] _ ] _ ] _ ] ' _ ' ' ..cXkX",
"kXtX( U ^ U I U U U I U I ^ I P l z H J v v H v k k l k l k l z l z J H H H H v k z I P I U ^ I U U U U I U I U ^ U U I U / cXkX",
"lXtXE ! ~ Y ~ ~ R R ~ R R ! ! Y ! Q * >   & , = E ~ ~ ! ~ Y ! R ~ Q t & , , , # E E ~ ~ ~ R E Y R R E R ~ R ~ E ~ ~ ~ ~ R W sXkX",
"kXtXQ T T T Y Y Y Y Y Y Y R R R R Y k k k l l k Y T Y Y Y T R Y Y T l k k k k k E T Y R R Y R T Y Y Y Y Y Y Y Y R Y Y Y Y W cXkX",
"kXtXW R E R R R R R R R R Y Y R E R R R R R R Y R R R R E R E R ~ E R R R E R R E Y E R E R E R R R R R R R R R E R R R R W cXkX",
"kXcXa.i.p.p.p.p.p.p.p.p.i.p.p.p.p.p.p.p.i.p.p.p.p.p.p.p.p.p.i.p.p.p.p.p.i.p.p.p.p.p.p.p.p.p.p.p.p.p.p.p.p.i.p.i.p.p.p.i.p.a.xXkX",
"lXkXkXkXkXkXkXkXkXkXkXkXkXkXkXkXkXkXkXkXkXkXkXkXkXkXkXkXkXkXkXkXkXkXkXlXkXkXkXkXkXkXkXkXkXkXkXkXkXkXkXkXkXkXkXkXkXlXkXkXkXkXkXlX"
};
