/* XPM */
static char *e08ac8f0fcf04abfbdcc18c810bd7657PHYFAQkzOCVPwstp[] = {
/* columns rows colors chars-per-pixel */
"64 64 200 2 ",
"   c #272726",
".  c #282725",
"X  c #292927",
"o  c #272729",
"O  c #292728",
"+  c #272929",
"@  c #292929",
"#  c #272926",
"$  c #362C2A",
"%  c #37322C",
"&  c #2F2D31",
"*  c #312F32",
"=  c #353236",
"-  c #3B3934",
";  c #3E3A3D",
":  c #373339",
">  c #2F3124",
",  c #5C2D1C",
"<  c #61341F",
"1  c #45362B",
"2  c #48372E",
"3  c #443A36",
"4  c #573937",
"5  c #613D3B",
"6  c #643926",
"7  c #677D18",
"8  c #5E422F",
"9  c #4C4B3E",
"0  c #444236",
"q  c #6B442D",
"w  c #7E5538",
"e  c #6F4931",
"r  c #697920",
"t  c #3C3940",
"y  c #453E47",
"u  c #613F40",
"i  c #4E4D41",
"p  c #4A444C",
"a  c #49444A",
"s  c #554846",
"d  c #5B5849",
"f  c #585648",
"g  c #4E4851",
"h  c #524A55",
"j  c #5A525F",
"k  c #754341",
"l  c #794543",
"z  c #655D4D",
"x  c #6D4E55",
"c  c #64614E",
"v  c #656351",
"b  c #6A6753",
"n  c #77735C",
"m  c #766E59",
"M  c #5D5362",
"N  c #655A6B",
"B  c #635967",
"V  c #6B5E70",
"C  c #7E5E69",
"Z  c #7D7861",
"A  c #6E6273",
"S  c #716275",
"D  c #77687D",
"F  c #766E6C",
"G  c #8C5934",
"H  c #8A5836",
"J  c #915B35",
"K  c #965E39",
"L  c #985E38",
"P  c #985E36",
"I  c #966039",
"U  c #8E4B48",
"Y  c #A95652",
"T  c #B55B55",
"R  c #B95D57",
"E  c #A9554F",
"W  c #937153",
"Q  c #8E6D51",
"!  c #817B63",
"~  c #837277",
"^  c #C15E58",
"/  c #C9615B",
"(  c #D6665E",
")  c #DE6A63",
"_  c #D86761",
"`  c #DE7C6F",
"'  c #E26B64",
"]  c #E96E67",
"[  c #E96E69",
"{  c #E56E68",
"}  c #E5786B",
"|  c #7B9B0F",
" . c #738C17",
".. c #789414",
"X. c #7EA00D",
"o. c #738724",
"O. c #819E0E",
"+. c #8BAF0D",
"@. c #9DC808",
"#. c #ADDC05",
"$. c #A7D407",
"%. c #B5E502",
"&. c #A0825E",
"*. c #868166",
"=. c #8D876A",
"-. c #928C6E",
";. c #948E71",
":. c #9A9474",
">. c #8E8871",
",. c #A59E7B",
"<. c #A88A66",
"1. c #B8A076",
"2. c #ABA47E",
"3. c #E48272",
"4. c #7D6D84",
"5. c #776980",
"6. c #7F7086",
"7. c #85758A",
"8. c #8E7C96",
"9. c #887791",
"0. c #927C98",
"q. c #94819B",
"w. c #AEA581",
"e. c #B9B289",
"r. c #9B85A3",
"t. c #9C87A6",
"y. c #A28BAC",
"u. c #A68EB1",
"i. c #AA93B6",
"p. c #B096BE",
"a. c #B198BD",
"s. c #C8B789",
"d. c #C6BC91",
"f. c #CCC395",
"g. c #DBCE9B",
"h. c #D4C998",
"j. c #DCD19E",
"k. c #D7D09C",
"l. c #E5CC9C",
"z. c #E1D19E",
"x. c #DAD2A2",
"c. c #E3D6A2",
"v. c #EDD3A2",
"b. c #E5DAA6",
"n. c #E9DDA6",
"m. c #E6DFA8",
"M. c #E9DEA9",
"N. c #F3DEA9",
"B. c #ECE1AB",
"V. c #E9E0A7",
"C. c #F3E6AE",
"Z. c #F3E8AE",
"A. c #F4E7B0",
"S. c #F4E9B0",
"D. c #FCEEB4",
"F. c #FEF1B6",
"G. c #FEF2B8",
"H. c #B79CC4",
"J. c #BDA2CA",
"K. c #C2A6CE",
"L. c #C6A9D4",
"P. c #CAADD9",
"I. c #C9AAD4",
"U. c #D0B2DE",
"Y. c #CEB1DD",
"T. c #D5B5E4",
"R. c #D8B5E5",
"E. c #D8B8E7",
"W. c #DDBCED",
"Q. c #D7B7E6",
"!. c #DFBEF0",
"~. c #CFB2E0",
"^. c #E0BCEE",
"/. c #E1BFF1",
"(. c #DBC2E7",
"). c #DDC4E9",
"_. c #DEC1F1",
"`. c #E1C5EE",
"'. c #E1C9ED",
"]. c #E2D3EC",
"[. c #E6D9ED",
"{. c #E5C4F6",
"}. c #E8C3F7",
"|. c #E6C4F9",
" X c #E8C4F9",
".X c #E6D6F0",
"XX c #E8D6F0",
"oX c #EFEAEE",
"OX c #EFEAF1",
"+X c #EFE9F2",
"@X c #EFEAF1",
"#X c #F0EBF2",
"$X c #F1EAF2",
"%X c #F0EBF1",
"&X c #F0EBF2",
"*X c white",
"=X c #FEFFFF",
"-X c #FFFFFD",
";X c #FFFFFE",
":X c #F5F3F6",
/* pixels */
"*X*X*X*X*X*X*X*X*X*X*X*X*X*X*X*X*X*X*X*X*X*X*X*X*X*X*X*X*X*X*X*X*X*X*X*X*X*X*X*X*X*X*X*X*X*X*X*X*X*X*X*X*X*X*X*X*X*X*X*X*X*X*X*X",
"*X-X#XOX#X#X#X#XOX#XOX&XOX#XOX#XOX#XOX&X#X#X#XOX#XoX&XOX#XOX#X#X#XOX&XOX#X&XOX#X#X#XOX&XOX#XOX&XOX#XOX#X#X#X#XOX#XoX&X#X#X:X*X*X",
"*X#X}.W.{.{.W.{.W.{.W.{.W.{.W.{.W.{.W.{.{.^.{.W.{.W.{.W.{.W.{.W.}.W.{.W.{. XW.{.W.{.W.{.W.{.W.{.W.{.W.{.W.{.}.W.{.W.{.W.{..X*X*X",
"*XOX/.E.W.`.Q.{.T.E.Q.{.Q./.E.{.Q.`.E./.W.E.`.Q./.E./.E./.E.{.E./.Q.{.Q.`.`.Q.{.E.{.E.{.E./.E.{.Q.`.E.{.E.W.`.Q./.E.{.E./.].*X*X",
"*XOX{.W.{.{.E.{.p O y.{.E.{.W.{.E.{.W.{.{.W.{.E.{.E.{.E.{.E.{.E.{.E.{.E.{.{.W.{.E.{.E.{.E.{.E.{.E.{.E.{.W.{.{.E.{.E.{.E.{.].*X*X",
"*X#X{.W.{.{.W.{.p @ u.{.W.{.W.|.W.{.W.{.{.!.{.W.{.W.|.W.}.W.{.W.{.W.{.W.{.{.W.{.W.{.W.{.W.{.W.|.W.{.W.{.!.{.{.W.{.W.|.W.{..X*X*X",
"*X#XW.Q.W.W.; = Y ( u = 8.W.T.W.T.W.Q.W.E.Q.W.Q.W.Q.W.Q.W.Q.W.Q.W.Q.W.Q.W.W.T.W.Q.^.T.W.Q.W.8.= = = h W.P.: = = = a.W.Q.W.].*X*X",
"*X#X{.W.{.|.* @ R ] 5 X 8.{.W.{.W.{.W.{.{.!.{.W.|.W.{.W. XW.{.W.|.W.{.W.{.|.W.{.W.{.W.{.W.|.8.@   @ p {.Q.@ @   @ a.|.W.|..X*X*X",
"*XOXW.Q.W.W.p.H.s 2 8.H.L.W.Q.W.T.W.Q.W.E.Q.W.Q.W.Q.W.T.W.T.W.T.W.Q.W.T.W.W.T.W.Q.W.Q.W.7.g x R T T Y g g T T T T x g y.W.].*X*X",
"*X#X{.W.{.{.^.{.a @ y.{.W.{.W.{.W.{.W.{.{.!.{.W.|.W.{.W.{.W.{.W.|.W.{.W.{.{.W.}.W.{.W.{.D @ k ] ' ] ^ @ $ [ ] ' ] 4 O r.|..X-X*X",
"*XOXW.Q.W.W.T.W.y.t.K.W.T.W.T.W.T.W.T.W.E.E.W.Q.W.T.W.8.N B N B N 4.W.Q.W.W.Q.W.Q.W.T.^.S @ k ) _ ' / E E ) ) ( ) 4 . 0.W.].*X*X",
"*X#X{.W.{.|.W.{.W.|.W.}.W.{.W.|.W.{.W.{.{./.{.W. XW.}.A X @ @ O @ h {.W.{.|.W.{.^.{.W.|.D @ k ] ' ] ) ] ' ] [ ' ] 4 X r.|..X*X*X",
"*XOXW.Q.W.W.Q.W.Q.W.Q.W.Q.W.Q.W.Q.W.Q.W.W.Q.W.7.6.4.6.a   % 8 1   ; 6.4.6.6.Y.W.Q.W.Q.W.u.7.C U U ' _ ' ( ) ' U U ~ 7.H.W.].*X*X",
"*X#X|.W.{.{.W.|.W.{.W.}.W.{.W.{.W.|.W.{.{./.{.; @   @   @ 8 K q @   @   @ @ T.|.^.|.W.}.W.}.8.@ 5 ] ' ] ' { ] % X p.{.W.{..X*X*X",
"*XOXW.Q.W.W.T.W.Q.W.T.W.Q.W.T.W.Q.W.T.W.E.u.i.4 2 1 2 1 2 q J e 2 1 2 1 2 1 r.u.P.W.T.W.Q.W.y.j x Y Y ' ( E Y M M H.W.Q.W.].*X*X",
"*X#X{.W.{.|.W.{.W.{.W.{.W.{.W.{.W.{.W.{.{.@ @ H L J K J L J P J L J K J K K X @ J.{.W.{.W.{.W.{.u.@ 2 ] _ O @ I.{.W.{.W.{..X*X*X",
"*XOXW.Q.W.W.T.W.Q.W.Q.W.Q.W.Q.W.R.W.Q.W.E.@ @ w J G J G J G J G J G J G J J X @ H.W.Q.W.Q.W.Q.W.u.a s / T y a K.W.Q.W.Q.W.].*X*X",
"*X#X{.W.{.{.W.{.W.|.W.{.W.{.W.{.W.{.W.{.{.@ @ H L J K J K J I G K J K J K I @ @ J.{.W.{.W.{.^.{.W.{.J.X * {.{.W.{.W.{.W.{..X*X*X",
"*X#X/.E.W./.Q./.E._.T./.E.!.T.E.U.E.U.E.Q.* @ w G H G H G H G H G H G H G G % $ a.E.U.E.T.E.T.{.E.{.H.& : W.!.E.{.E.{.E.{.].*X*X",
"*X#X{.W.{.{.E.{.E.{.E.{.W.{.8.@   @   @ @ B.D.3 X . X X X . X . X   X . X . b.D.i @ @ @   @ D {.E.{.E.{.W.{.{.E.{.E.{.E.{.].*X*X",
"*XOX{.W.{. XW.{.W.{.W.{.W.{.8.X   X   X @ A.F.; X   X   X   X   X   @   @ X n.F.9 @   @   @ D {.W.{.^.}.W.{.{.W.{.W.|.W.{.].*X*X",
"*XOXW.Q.W.W.Q.W.Q.W.Q.^.4.= Z c.x.b.j.b.c.B.A.j.b.x.b.x.b.j.b.x.b.j.b.j.b.b.n.C.x.b.j.b.j.b.-.: N W.Q.W.Q.W.W.T.W.Q.W.Q.W.].*X*X",
"*X#X{.W.{.|.W.}.W.{.W.}.5.@ ! F.C.D.A.G.D.Z.F.Z.D.C.D.C.D.A.F.C.D.C.F.C.F.F.Z.F.C.F.C.G.C.D.:.X M {.W.{.W.{.{.W.{.W.{.W.{.XX*X*X",
"*XOXW.Q.W.W.Q.W.B g p g >.f.h.C.m.C.V.C.B.V.S.M.A.V.C.M.C.V.C.M.C.V.C.M.C.C.n.C.V.C.M.C.M.S.g.d.:.g p p h W.W.Q.W.Q.W.Q.W.].*X*X",
"*X#X{.W.{.|.W.{.a @   @ :.F.C.F.C.D.S.F.D.S.F.A.F.A.F.C.F.A.F.S.F.C.F.C.F.F.C.F.A.F.C.F.C.F.C.F.e.@   @ * {.{.W.{.W.{.W.{..X*X*X",
"*X#XW.Q.W.W.N N :.w.,.w.f.A.M.C.V.C.M.A.C.B.A.n.A.M.C.M.C.M.A.V.A.M.A.M.A.A.n.C.M.A.M.A.M.A.M.C.h.2.,.w.,.N N L.W.Q.W.Q.W.].*X*X",
"*X#X{.W.{.{.* @ f.F.Z.F.C.F.S.F.C.F.A.F.D.Z.F.Z.F.S.F.C.F.A.F.C.F.C.F.C.F.F.C.F.C.F.C.F.C.F.S.F.C.F.C.F.M.@ @ L.{.W.{.W.{..X*X*X",
"*XOXW.T.4.6.=.-.k.C.m.C.M.Z.V.C.m.C.M.C.B.V.Z.m.A.V.C.m.C.M.C.m.Z.n.C.M.Z.Z.n.C.M.C.m.C.n.C.M.C.m.C.V.C.b.=.-.D 4.J.W.Q.W.].*X*X",
"*X#X{.E.+ X n.F.C.F.C.F.C.F.C.F.C.D.A.F.D.S.F.A.D.A.F.C.F.A.F.A.F.C.F.C.F.F.C.F.A.F.Z.F.C.F.C.F.C.F.Z.F.S.D.F.; @ a.{.W.{..X*X*X",
"*XOXW.U.o   j.A.M.Z.m.Z.M.A.f.,.e.C.M.A.C.B.Z.1.1.g.Z.V.Z.M.A.M.C.n.A.c.1.1.n.A.M.Z.M.A.e.,.e.C.m.Z.n.S.B.C.C.-   i.W.Q.W.].*X*X",
"*X#X}.E.@ X n.F.C.F.C.F.A.F.:.@ v F.A.F.D.Z.F.q , s.F.C.F.C.F.C.F.C.F.z., , n.F.C.F.A.D.! X ! F.C.D.C.F.S.D.F.3 @ a.{.W.}.XX*X*X",
"*XOXW.U.y y d.h.b.C.M.C.M.C.;.  z v.l.v.v.M.C.6 , s.C.M.C.g.h.h.C.M.C.h., , c.C.l.v.l.v.n o n C.n.C.M.C.m.f.h.h y p.W.Q.W.].*X*X",
"*XOX{.W.{.{.* @ f.F.S.F.C.F.:.X 4 ] ' ] { S.F.q , s.F.Z.F.<., W F.C.F.z., , n.F.3.] ' ] l @ ! F.C.F.Z.F.M.X @ L.{.W.{.W.{..X*X*X",
"*XOX/.E.W./.: & d.B.b.B.b.B.-.+ 4 ' _ ' ) C.Z.e < s.S.b.B.&., Q B.n.S.g.< < c.S.` ' _ ' k @ n B.b.B.b.B.x.@ & K./.E.!.E./.].*X*X",
"*X#X{.W.{.{.E.{.p X   X   o   @ 4 { ) { { C.D.C.D.C.D.W , , , , , w D.B.D.D.B.D.} { ) { k @   X   X   X * {.{.E.{.E.{.E.{.].*X*X",
"*X#X{.W.{.{.W.{.p @   X   @ @ X 5 [ ) [ { S.F.C.F.C.F.W , , , , , w F.C.F.F.C.F.3.[ ) [ l @ @ X   X   X * {.{.W.{.W.{.W.{..X*X*X",
"*XOXW.Q.W.W.T.W.P.T.P.T.P.T.P.T.r.$ 3 N.N.B.Z.n.C.M.C.c.n.z.n.j.n.c.C.n.Z.Z.n.Z.v.C.z $ 7.T.P.T.I.T.P.U.P.W.W.Q.W.Q.W.Q.W.].*X*X",
"*X#X}.W.{.{.W.{.W.{.!.{.W.{.W.{.u.+ - F.D.S.F.C.D.A.D.C.F.Z.D.Z.D.C.F.C.F.F.C.D.A.F.v + 8.{.W.{.W.{.W.{.W.{.{.W.{.W.{.W.{..X*X*X",
"*X#XW.Q.W.W.T.W.T.W.Q.W.T.W.Q.W.I.H.u.i i i i 9 i 9 i 9 i 9 i 9 i i i 9 i i i i 9 i q.H.L.W.Q.W.T.W.Q.W.Q.W.W.Q.W.Q.W.Q.W.].*X*X",
"*X#X{.W.{.|.W.{.W.{.W.|.W.|.W. X^.}.P.X @ @ X   @   @   @   @ o @   @   @ @   @   @ u.}.W.|.W.|.W.|.W.{.!.{.{.W.{.W.{.W.{..X*X*X",
"*XOXW.Q.W.W.T.W.Q.W.Q.W.Q.W.y.N B N N w.w.X    .X.| | | X.| | | X.| O.| X.O.X X =.w.F N B N 0.W.T.W.Q.W.T.W.W.Q.W.T.W.Q.W.].*X*X",
"*X#X{.!.{.{.W.{.W.{.W.{.W.{.8.@ @ X - F.D.@ X @.%.#.%.#.%.#.%.#.%.#.%.#.%.%.> + f.F.v @ @ @ D }.W.{.^.{./.{.|.W.{.W.{.W.{.XX-X*X",
"*XOXW.Q.W.W.Q.W.Q.W.T.W.y.4.~ -.=.-.;.C.B.-.-.r 7 +.#.$.#.$.#.$.#.$.#.@.7 7 =.-.g.C.2.-.=.-.~ 4.q.W.Q.W.Q.W.W.Q.W.T.W.Q.W.].*X*X",
"*XOX}.W.{.|.W.{.W.{.W.{.D @ Z F.C.D.C.G.D.Z.F.; @ +.%.#.%.#.%.#.%.#.%.@.@ X n.D.A.F.C.F.C.F.:.@ B {.W.|.!.{.{.W.{.W.{.W.}..X*X*X",
"*X#XW.Q.W.W.Q.W.T.W.T.W.S @ n C.m.C.M.C.C.V.A.! n o........... ....... .n n c.C.M.C.M.C.M.C.;.+ M W.Q.W.Q.W.W.r.r.L.W.Q.W.].*X*X",
"*X&X{.W.{.{.W.{.W.{.^.}.D @ ! F.C.D.A.F.D.S.F.C.F.d @   @ . @   @ + @ 3 F.G.Z.F.C.F.A.F.A.F.:.@ B {.W.{.W.{.{.; @ p.{.W.}..X*X*X",
"*X#XW.Q.W.W.Q.W.Q.W.T.W.S + Z A.n.C.M.A.C.V.A.M.A.Z d d d f d f d f d v A.A.n.A.M.A.M.A.n.A.;.  j W.Q.W.T.a.p.s 4 0.a.L.W.].*X*X",
"*X#X{.W.{.{.W.|.W.|.W.{.D X Z D.S.F.A.F.D.S.F.A.F.Z.F.C.D.C.F.C.F.C.D.C.F.F.C.F.A.F.C.F.C.F.:.@ B {.W.{.T.@ X / ] 4 X r.{..X*X*X",
"*XOXW.Q.W.W.T.W.T.W.T.W.4.; Z j.k.Z.n.C.B.V.Z.M.Z.V.Z.M.Z.n.C.n.Z.n.Z.n.C.S.n.C.n.Z.n.Z.j.j.>.t V W.T.W.P.; ; T / s ; r.W.].*X*X",
"*X#X|.W.{.{.W.{.W.{.W.{.W.|.8.@ v F.A.F.D.S.F.S.F.S.G.S.F.A.F.C.F.S.F.C.F.G.Z.F.A.F.S.F.! @ D {.W.{.W.|.^.{.{.; @ p.{.W.}..X*X*X",
"*X#X|.W.{.{.W.{.W.{.W.{.W.{.0.@ c F.A.F.D.S.F.C.F.A.F.A.F.A.F.Z.F.C.F.C.F.F.C.F.A.F.Z.F.! X D {.W.{.W.{.W.{.{.; @ a.{.W.{..X*X*X",
"*XOXW.Q.W.W.T.W.R.W.Q.W.Q.W.T.T.r.% 0 C.C.M.C.n.C.n.C.M.C.n.C.M.C.n.C.n.C.C.n.C.n.C.b % 9.T.U.W.Q.W.Q.W.Q.W.W.P.~.T.W.T.W.].*X*X",
"*X#X{.W.{.{.W.|.W.{.W.{.W.{.W.{.u.@ - D.D.S.F.A.F.A.F.C.F.A.F.S.F.C.F.C.F.F.C.F.A.F.v X 8.{.W.{.W.{.W.{.^.{.{.W.{.W.{.W.{..X*X*X",
"*X#XW.Q.W.W.Q.W.Q.W.Q.W.Q.W.Q.W.t.  - C.B.B.C.V.A.V.A.*.i 9 i 9 i m Z.M.A.S.n.A.M.A.z   9.W.Q.W.Q.W.Q.W.Q.W.W.Q.W.Q.W.Q.W.].*X*X",
"*X#X{.W.{.|.W.{.W.{.W.{.W.{.W.{.u.@ - F.D.Z.F.C.D.C.F.m @   X . + f F.C.F.F.C.F.C.D.c @ 8.{.W.{.^.{.W.{.!.{.{.W.{.W.{.W.{..X*X*X",
"*XOXW.Q.W.W.T.W.T.W.Q.W.T.W.T.W.y.  - S.B.V.S.M.A.*.b 7.y.r.y.r.y.8.b m A.Z.n.C.M.C.c   9.W.T.W.T.W.Q.W.Q.E.W.Q.W.T.W.Q.W.].*X*X",
"*X#X{./.{.{.W.|.W.{.W.{.W.{.W.{.u.@ - D.D.S.F.A.F.d @ r.{.W.{.W.{.a.@ 3 F.F.C.F.A.F.v @ 8.}.W.|.W.{.^.{.W.{.{.W.{.W.{.W.{..X*X*X",
"*XOXW.Q.W.W.Q.W.Q.W.Q.W.Q.W.Q.W.J.9.7.*.! ! *.! *.7.9.H.W.T.W.Q.W.K.9.7.*.*.! *.! *.~ 9.a.^.T.W.T.W.Q.W.Q.W.W.Q.W.T.W.Q.W.].*X*X",
"*X#X{.W.{.{.W.{.W.{.W.{.W.{.W.{.^.|.P.X @ @ @   + a.{.W.|.W.{.W.}.W.{.I.@ @   @   X y.{.W.{.W.{.W.{.W.{.^.{.{.W.{.W.{.W.|..X*X*X",
"*XOXW.Q.W.W.Q.W.Q.W.T.W.Q.W.T.W.Q.W.P.A S V S V S H.W.Q.W.Q.W.Q.W.T.W.L.S S V A V A H.W.Q.W.T.W.T.W.T.W.Q.W.W.Q.W.Q.W.Q.W.].*X*X",
"*X#X}.W.{.{.W.{.W.{.W.{.W.{.W.}.W.{.W.{.{.!.{.W.{.W.{.W.{.W.{.W.{.W.|.W.{.{.W.|.W.{.W.{.W.{.W.{.W.{.W.{.W.{.{.W.{.W.{.W.{..X*X*X",
"*X&X`.).`.'.(.`.(.`.(.`.(.`.(.`.(.`.(.`.).).'.(.`.(.'.(.`.(.'.(.`.(.'.(.'.'.(.`.(.`.(.`.(.`.(.`.).`.(.'.).).'.(.`.(.'.(.`.[.*X*X",
"*X*X*X*X*X*X*X*X*X*X*X*X*X*X*X*X*X*X*X*X*X*X-X*X*X-X*X*X*X*X*X*X*X*X*X*X*X*X*X*X*X*X*X*X*X*X*X*X*X*X*X*X*X*X-X*X*X*X*X*X*X*X*X*X",
"*X*X*X*X*X*X*X*X*X*X*X*X*X*X*X*X*X*X*X*X*X*X*X*X*X*X*X*X*X*X*X*X*X*X*X*X*X*X*X*X*X*X*X*X*X*X*X*X*X*X*X*X*X*X*X*X*X*X*X*X*X*X*X*X"
};
