/* XPM */
static char *e7cc5c7459cd49b5d7038edc73334156P2xgS4u8ld0dsS9U[] = {
/* columns rows colors chars-per-pixel */
"64 64 189 2 ",
"   c #272726",
".  c #292626",
"X  c #262827",
"o  c #292926",
"O  c #272729",
"+  c #2A2629",
"@  c #272A29",
"#  c #292929",
"$  c #352623",
"%  c #352824",
"&  c #322C2C",
"*  c #352825",
"=  c #32312D",
"-  c #392F32",
";  c #362F31",
":  c #363630",
">  c #3C3C33",
",  c #3F3336",
"<  c #4B2A1D",
"1  c #45281E",
"2  c #542919",
"3  c #5B2C1B",
"4  c #602D1A",
"5  c #413536",
"6  c #423639",
"7  c #4C3A3D",
"8  c #47383B",
"9  c #414137",
"0  c #44433A",
"q  c #4C463B",
"w  c #4F3B41",
"e  c #523E43",
"r  c #4E4C42",
"t  c #5A4147",
"y  c #514E42",
"u  c #5C4349",
"i  c #574046",
"p  c #545245",
"a  c #5A5748",
"s  c #5D5C4B",
"d  c #595345",
"f  c #5F5D50",
"g  c #61454C",
"h  c #615D4D",
"j  c #664851",
"k  c #6D4B54",
"l  c #734E57",
"z  c #734E59",
"x  c #76515A",
"c  c #7B525C",
"v  c #745C5A",
"b  c #6E5F58",
"n  c #64614E",
"m  c #666352",
"M  c #6E6B55",
"N  c #6E6A56",
"B  c #736C5A",
"V  c #75715C",
"C  c #7B785F",
"Z  c #7D5460",
"A  c #7E7A61",
"S  c #7C7461",
"D  c #825763",
"F  c #855965",
"G  c #895A67",
"H  c #8B5D6A",
"J  c #925F6D",
"K  c #826B64",
"L  c #816361",
"P  c #93606E",
"I  c #827D63",
"U  c #897A66",
"Y  c #976271",
"T  c #9D6473",
"R  c #A46676",
"E  c #A06876",
"W  c #A56979",
"Q  c #AB6C7D",
"!  c #868166",
"~  c #8A8266",
"^  c #8B856A",
"/  c #8E886B",
"(  c #938D6D",
")  c #938E70",
"_  c #9A9473",
"`  c #9E9976",
"'  c #969172",
"]  c #A19C7A",
"[  c #A59C7A",
"{  c #A7A17C",
"}  c #A8A17D",
"|  c #AF6F81",
" . c #B16F81",
".. c #AF7081",
"X. c #B67384",
"o. c #BA7487",
"O. c #BD7689",
"+. c #C37A8D",
"@. c #C87B8F",
"#. c #C77C90",
"$. c #CB7D92",
"%. c #D17F96",
"&. c #AEA781",
"*. c #AFAA82",
"=. c #B2AA84",
"-. c #B1A783",
";. c #BCB38A",
":. c #B9B287",
">. c #CF8095",
",. c #D38097",
"<. c #D48299",
"1. c #DC859D",
"2. c #E1899F",
"3. c #C3BA8E",
"4. c #C9BF8E",
"5. c #C5BC91",
"6. c #C9BE91",
"7. c #DF8AA1",
"8. c #E187A1",
"9. c #E38AA3",
"0. c #E98CA6",
"q. c #EC8FA9",
"w. c #F28FAB",
"e. c #E490A5",
"r. c #ED91A7",
"t. c #EE91AB",
"y. c #E49CAF",
"u. c #E995AB",
"i. c #F192AC",
"p. c #F496AC",
"a. c #E59DB0",
"s. c #E99DB1",
"d. c #EF97B0",
"f. c #F497B1",
"g. c #FA97B3",
"h. c #F698B0",
"j. c #FD99B3",
"k. c #FD9AB2",
"l. c #FD99B5",
"z. c #FF99B4",
"x. c #FE9AB4",
"c. c #FF99B6",
"v. c #FD9AB6",
"b. c #FE9AB6",
"n. c #FF9BB7",
"m. c #FD99B5",
"M. c #FD99B5",
"N. c #FD99B8",
"B. c #EEA2B6",
"V. c #E5A1B3",
"C. c #F0A2B7",
"Z. c #F1A4B8",
"A. c #CDC495",
"S. c #CFC896",
"D. c #D2C996",
"F. c #D4CA99",
"G. c #D9CE9D",
"H. c #D4C79A",
"J. c #DBD19E",
"K. c #E5D99F",
"L. c #DED4A1",
"P. c #DFD8A3",
"I. c #E2D7A2",
"U. c #E3D9A3",
"Y. c #EBDFAA",
"T. c #EEE3AC",
"R. c #EFE3A7",
"E. c #F1E4AC",
"W. c #F3E8AA",
"Q. c #F3E6B1",
"!. c #FCEEB5",
"~. c #FEEFB9",
"^. c #F5EAB2",
"/. c #FEF1B6",
"(. c #FEF1B9",
"). c #EFDADE",
"_. c #EEDADF",
"`. c #F1DBDF",
"'. c #EFDBE0",
"]. c #F0DBE0",
"[. c #F0DBE0",
"{. c #FDFDFD",
"}. c #FDFFFE",
"|. c #FDFFFF",
" X c #FEFEFE",
".X c white",
"XX c #FEFFFF",
"oX c #FEFEFD",
"OX c #FFFFFF",
/* pixels */
" X X X X X X X X X X X X X X X X X X X X X X X X X X X X X X X X X X X X X X X X X X X X X X X X X X X X X X X X X X X X X X X X",
" X X X X X X X X X X X X X X X X X X X|. X X X X X X X X X X X X X X X X X|. X X X X X X X X X X X X X X X X X X X X X X X X X X",
" X'.t.0.u.p.0.p.9.p.9.p.9.p.9.p.0.p.0.u.p.0.p.0.p.0.p.0.p.0.p.9.p.9.u.u.0.p.9.f.0.f.0.p.0.p.9.p.9.f.u.t.f.9.p.e.p.0.u.0.p.V. X X",
" X].m.i.m.m.i.j.i.m.t.m.t.m.t.m.t.j.i.l.m.i.m.t.m.t.m.t.m.t.m.t.m.i.m.m.i.m.i.m.t.m.t.m.t.m.i.m.i.m.g.p.m.i.m.i.m.t.m.t.m.B. X X",
" X).t.0.t.t.9.t.9.t.9.i.9.t.9.t.9.t.8.t.t.9.t.9.t.9.q.9.t.9.i.9.t.,.e e 9.t.8.t.9.t.H e G i.9.t.9.t.t.0.t.8.i.9.t.9.i.9.i.y. X X",
" X].m.i.m.j.i.m.i.m.t.m.t.m.t.m.i.m.i.l.m.i.m.i.m.i.m.t.m.t.m.t.m.1.O O q.m.i.m.i.j.Z o z m.i.m.q.m.g.p.m.t.m.t.m.t.m.i.m.B. X X",
" X).t.9.t.t.9.t.9.t.9.t.7.t.9.t.9.t.8.t.t.9.t.9.t.9.t.9.t.9.t.9.t.$.X   9.t.7.t.9.t.x . 6 x G t.9.t.q.0.t.8.t.9.t.9.i.9.t.y. X X",
" X].j.i.j.m.i.j.t.m.t.m.t.m.t.m.t.m.i.m.j.i.m.t.m.t.j.t.m.t.m.t.m.1.O O q.m.i.m.i.m.Z O O O e m.i.m.g.i.m.t.m.t.m.t.m.t.m.B. X X",
" X).t.8.t.t.9.t.9.t.9.t.7.t.O.D c D D t.t.9.t.9.t.9.w.9.q.9.t.+.D l X   9.t.9.t.9.t.x   w P G D G t.q.0.t.9.t.9.t.9.i.9.t.y. X X",
" X].m.i.g.m.i.m.i.m.t.m.t.j.Q O   O ; j.m.i.m.i.m.i.m.t.m.i.m.X.O O O O t.m.t.j.i.j.c O z m.#.O 6 m.g.i.m.t.j.i.j.r.j.i.m.B. X X",
" X).t.8.t.t.9.t.9.t.9.t.O.W G z k z x t.t.9.t.9.i.8.i.9.t.9.t.O.z k z z 9.t.9.t.Q W i X k i.#.k c t.0.T W T W T W T W o.t.y. X X",
" X].j.i.j.m.i.m.i.m.t.m.H O j m.t.j.i.m.j.i.m.t.m.i.m.t.m.t.m.t.m.t.m.m.i.m.t.m.u O   O z j.i.m.i.m.p.O O X O X o   O c m.C. X X",
" X).i.8.t.t.8.i.9.i.9.i.P w c i.1.#.O.@.@.8.i.9.i.9.i.8.i.<.#.#.i.8.t.t.9.w.9.t.e       k i.8.t.8.t.0.. X             l q.y. X X",
" X].m.i.l.m.i.m.t.n.t.m.t.m.t.m.O.O X O O 0.m.t.m.t.m.t.m.W O u m.t.m.l.t.m.i.m.u O   O z j.i.m.t.j.h.+ O   O   #   O c m.B. X X",
" X).p.0.i.i.0.p.0.p.0.p.8.p.9.q. .& + & & 1.p.8.p.9.q.1.q.T . t q.1.q.q.0.i.0.p.u & + & z p.8.i.0.p.q.. o * & + & .   x p.a. X X",
" X].g.t.h.g.t.g.r.g.t.g.t.g.Q O t g.t.h.h.q.g.t.g.u O   O % 3 < O   O   q.g.t.g.r.g.t.g.t.g.t.g.q.g.p.O O #.g.t.l.x O x g.B. X X",
" X'.g.i.h.g.q.g.t.g.q.g.q.g.Q O u g.q.h.g.q.h.0.g.g O . . % 3 < O . o O 0.h.0.p.q.g.t.g.q.g.t.g.t.h.t.o O $.g.q.h.x o x g.B. X X",
" X).p.0.i.i.0.i.0.w.8.i.0.p.0.p.0.p.0.i.i.& .     1 3 2 3 2 3 2 3 2 3 3 . .   . X.p.0.p.0.i.0.i.$.  O     @.i.g       x p.s. X X",
" X].m.i.l.l.i.m.t.n.t.n.t.m.t.m.t.m.i.m.m.& O X O < 3 3 3 3 3 3 3 3 3 3   O X O O.m.t.m.t.m.i.m.<.O O   O $.l.k O   O c m.B. X X",
" X).t.8.t.t.9.t.9.i.9.i.9.t.9.t.o.6 , 6 6     1 2 2 3 2 3 2 3 2 3 2 3 3 < 2 .   ; 6 5 5 Z t.9.i.1.<.>.#.,.9.t.,.<.@.<.,.t.y. X X",
" X'.j.w.m.m.w.m.i.m.t.m.t.m.t.m.O.O   O o   O < 3 2 3 3 3 3 4 3 3 3 3 3 3 4 * O . o   o z m.i.m.i.m.g.p.m.t.m.i.m.t.m.i.j.B. X X",
" X).t.8.t.t.9.t.9.t.9.t.9.t.X.j v -.[ -.-.} -.q % $ * $ % $ * $ % $ * % $ % ( -.} -.} -.U j c t.9.t.t.0.t.9.t.9.t.9.i.9.t.y. X X",
" X].m.i.j.m.i.m.r.l.t.m.t.m.| @ a /.E.!./.E./.p O   O   O   O   O X O O O O A./.E./.E./.] O e m.t.j.g.p.m.t.m.t.j.t.m.i.j.B. X X",
" X).t.8.t.t.9.t.9.t.9.t.| G L / ` T.U.T.T.U.T._ / ~ / ! / ! / ! / ! ( ( ! / S.T.U.T.U.T.;./ U G H t.q.0.t.9.t.2.t.9.i.9.t.y. X X",
" X].m.i.m.m.w.j.q.m.t.j.H O m /.T./.E.!./.T./.E./.E./.T./.T./.T.!.T././.E./.T./.E./.T./.E.!.5.O 6 m.g.p.m.i.m.t.m.i.m.t.m.B. X X",
" X).t.8.t.t.8.t.Y P G J K I ` T.A.( ( T.T.U.T.I.T.U.T.U.T.I.T.P.T.I.T.T.I.T.U.T.I.T.*.) &.T.A.I S J J H P <.t.9.t.9.i.9.t.a. X X",
" X'.j.i.l.n.i.m.6 O O O ^ /.T./.;.O : /./.E./.E./.E./.T./.T.!.T./.T././.T.!.E./.E./.A O V /.T./.D.O O   O %.m.t.m.t.m.t.m.B. X X",
" X`.t.8.t.t. .X.h s a f ` T.S.=.' s m T.T.U.T.U.T.U.E.U.T.I.T.U.T.I.T.T.I.T.U.T.I.T.' s C =.:.E.A.s s a s E X.%.t.9.i.9.t.y. X X",
" X[.m.i.l.m.; # F./.T./.T./.&.O a /.E.!./.T./.E.!.T./.T.!.T./.T.!.T./.(.T./.T./.E./.T.~.] # y /.T.(.!.E./.0 O Q m.t.m.i.m.C. X X",
" X).i.8.q.t.& O 6.E.U.E.U.E.[   p E.U.T.E.A.G.L.T.I.E.I.E.J.G.F.E.I.E.T.U.R.A.G.J.T.I.E.' . q E.U.T.Y.U.T.9 X R t.9.w.8.i.y. X X",
" X[.j.i.l.j.; O H./.T.(.T./.-.O a /.E./.(.= O 5.(.E./.T./.{ o s (.T././.T.!.r O ;.(.T.~.] # y /.T./.!.E.(.0 O Q m.t.m.t.l.B. X X",
" X].m.i.g.j.& O F.!.T.!.T.!.&.+ a /.E.!.(.= o 3.(.T./.T./.} O s /.T.(.(.T.!.r O ;./.E./.] O y ~.T./.!.E./.0 O Q m.t.m.t.m.B. X X",
" X).i.8.t.i.& X 6.E.U.E.I o h T.U.E.U.T.E.U.T.U.E.a . ~ E.` X a E.A.o o I.T.U.T.U.E.U.E.U.T.;.o > E.T.U.E.9 X R i.9.i.9.i.y. X X",
" X].m.i.l.l.& O D./.T./.^ O m /.T./.E.~.(.E./.T./.h o ( /.{ O h (.G.o o T./.T./.E./.T./.T./.6.O 0 /./.Q./.0 @ Q m.t.m.t.m.B. X X",
" X).i.8.t.t.1.8.7 = # = o   h E.I.T.K.T.E.U.E.U.E.J.U.A = N U.{ = 9 U.U.U.E.U.E.I.E.U.E.U.E.;.    = = & = O.9.8.i.9.i.8.i.y. X X",
" X'.j.w.l.m.t.m.6 O   O O O m /.E./.E.!./.E./.E./.E.!.! O N !.=.O > /.(.T.!.E./.E.(.E./.T.!.6.O   O O X O >.m.t.m.t.m.t.m.B. X X",
" X).i.8.t.t.9.t.O.+.X.+.k   = p r p a T.T.I.E.I.E.I.T.A.3.6.E.F.3.;.T.T.U.T.U.T.U.E.U.T.U.T.;.  ; +.O.o.+.1.t.9.t.9.i.9.t.y. X X",
" X].m.p.m.m.i.m.t.m.t.j.H o   O   O : !./.E./.E./.E.!.T.!.T./.T.!.T././.T.!.T./.E./.E./.E./.6.O 6 m.g.i.m.t.m.i.j.i.m.i.j.B. X X",
" X).t.8.t.t.9.t.9.t.7.i.D   q ] ' ` ( V V L.T.U.T.U.T.U.T.P.T.P.T.U.T.T.M V M V 3.T.] V M V B E E t.t.0.t.9.t.9.t.9.i.9.t.y. X X",
" X].j.i.j.m.i.m.t.m.t.m.H O m /.E./.I.o O U./.T./.E./.T./.T./.T./.T././.o O   O ;./.A O   O e j.i.m.g.i.m.t.m.t.m.t.m.i.m.C. X X",
" X).t.8.t.t.9.t.9.q.9.t.D   h T.U.T.F.    J.T.U.T.I.T.U.T.P.T.P.T.F.I I ^ ( / ( A.T.*.( n O 7 t.9.t.q.0.t.9.t.T D o.t.9.t.y. X X",
" X].m.i.g.m.i.m.t.j.t.j.H O m /.E./.I.O . U./.E./.T./.T./.T.!.T./.G.O o T.!.T./.E./.T./.] O e j.t.m.g.p.m.t.m.k o T j.t.j.B. X X",
" X'.t.8.t.t.8.t.W W $.t.D   h T.U.T.J.M M L.T.U.T.I.T.U.T.I.T.P.T.A.  . I.T.U.T.U.T.U.T.=.B B W W t.0.T W <.t.P z G W X.t.a. X X",
" X].j.i.m.m.t.j.5 O | j.H O m /.E./.E.!./.E./.E./.E./.T./.T./.T./.G.O o T.!.E./.E./.E./.T./.6.O 6 m.h.O O $.m.t.m.x O c m.C. X X",
" X`.i.9.#.#.8.w.,   W i.Y w b 4.3.E.U.T.E.U.E.U.E.U.E.U.E.U.E.U.E.F.r r ;.6.;.6.;.6.F.T.U.E.;.  , t.0.7 w W #.<.i.l   l i.y. X X",
" X].m.0.O O 7.m.6 O Q l.t.j.| O a /.E.!./.E./.E./.E./.T./.T.!.T./.T./.(.o O   O X O ' /.T./.6.O 8 j.g.i.j.8 O Q m.x O c l.B. X X",
" X).p.1.O   <.p.8 + W q.2.p.Q & d Y.L.E.W.U.W.U.W.U.E.U.W.U.W.U.W.U.E.Q.& # # & & & ( E.U.E.;.  5 p.t.0.i.6   R i.c & x i.s. X X",
" X].g.8.o O 1.g.t.g.j O G g.t.g.o.o : !.!.T.!.T.!.T.!.T.!.T.!.T.!.T.!.!.T.!.T.!.T.!.T.!.T.!.3.O 5 h.h.t.g.8 o Q g.t.g.t.g.B. X X",
" X].g.8.O O 1.h.q.g.j O H g.q.g.o.O : !.!.T.!.T.!.T./.T.!.T.!.T.!.T./.!.T.!.T.!.T.!.T./.T.!.5.O 5 f.u.t.g.8 O Q g.t.l.t.g.B. X X",
" X).i.0.t.p.& . $.i.8.p.0.p.8.p.X.  : E.Q.U.W.U.W.U.W.U.W.U.W.U.W.U.E.Q.U.W.U.E.U.W.U.E.U.E.;.    . + 0.i.0.p.0.i.0.p.0.i.s. X X",
" X`.m.i.j.m.& o <.m.t.m.t.m.t.m.O.O : /./.E.!.E./.E./.T./.T.(.T.!.T././.T./.T./.E./.T./.T./.6.O   O O i.m.r.m.i.j.t.m.t.m.B. X X",
" X).i.0.t.t.#.<.1.i.9.i.9.t.9.t. .X = T.E.U.E.U.E.U.E.U.E.U.E.U.E.U.T.E.U.E.I.E.I.E.I.T.U.E.:.O : F.A.5 6 #.t.2.t.9.i.9.i.y. X X",
" X].j.i.m.m.i.j.i.j.t.m.t.m.t.m.O.O : /./.E./.E./.E./.T./.T./.T./.T./.!.T.!.E./.E./.T./.T.!.6.O 9 /.^.o O >.m.t.m.i.m.i.m.Z. X X",
" X).t.8.t.t.8.i.9.t.9.t.9.t.9.t.<...E m n J.T.I.T.U.T.U.T.U.T.P.T.I.T.T.U.T.U.T.U.T.U.T.-.n p   # m m Q  .1.t.9.t.9.i.9.t.y. X X",
" X].j.i.l.m.i.j.i.m.i.m.t.m.t.m.i.j.9.O o U./.E./.E./.T./.T.!.E./.T././.T.!.E./.E./.E./.] O   O   o O i.m.i.m.i.m.t.m.i.m.C. X X",
" X).t.8.q.t.9.t.9.t.7.t.7.t.7.t.9.t.<.    G.T.U.T.U.T.&.! C ! I ^ A ! ~ L.T.U.T.U.T.} ^ K H F J F H H 8.t.9.t.9.t.9.t.9.t.y. X X",
" X].j.i.m.m.i.m.i.m.t.m.t.m.t.m.t.j.9.@ O U./.E./.E./.! O   @ X O   o o T./.E./.E./.A O z m.i.m.q.m.g.p.m.t.m.t.m.t.m.t.m.C. X X",
" X).t.8.t.t.9.t.9.t.9.t.7.t.9.t.9.t.1.D D ^ ( ^ ( / ) K D c D c D c D D ~ ) ^ ( / ) K D R t.9.t.9.t.t.0.t.9.t.9.t.9.i.9.t.y. X X",
" X].j.i.m.m.i.m.t.m.t.m.t.m.t.m.t.m.i.j.j.& O   o   o P j.t.m.t.j.i.m.j.o o X o   o Y m.t.m.t.m.i.j.g.p.m.t.m.i.m.t.m.i.m.C. X X",
" X).t.8.t.t.9.i.9.i.9.i.9.t.9.i.9.t.8.t.t.g g t g u g W t.9.i.9.t.9.t.t.u g u g t g W t.9.i.9.t.9.t.q.0.t.9.i.9.r.9.i.9.t.y. X X",
" X].m.i.m.m.i.m.i.m.t.m.t.m.t.m.t.m.i.l.m.i.m.i.j.i.m.t.m.t.m.q.m.i.m.m.i.m.i.m.i.j.t.m.t.m.i.m.i.m.g.i.m.i.m.i.m.t.m.t.m.B. X X",
" X'.p.0.u.p.9.u.0.p.9.p.9.u.9.f.0.u.e.u.u.0.u.0.p.e.p.e.p.9.p.9.p.0.u.d.9.u.0.p.0.p.0.p.0.p.9.p.9.d.u.e.u.0.u.9.u.9.p.e.p.V. X X",
" X X X X X X X X X X X X X X X X X X X X X X X X X X X X X X X X X X X X X X X X X XoX X X X X X X X X X X X X X X X X X X X X X",
" X X X X X X X X X X X X X X X X X X X X X X X X X X X X X X X X X X X X X X X X X X X X X X X X X X X X X X X X X X X X X X X X"
};
