/* XPM */
static char *_1a62a5577144d7c979b26cb488f62c6MuAJq0cBeg1PkLEd[] = {
/* columns rows colors chars-per-pixel */
"64 64 226 2 ",
"   c #29271D",
".  c #38281E",
"X  c #262625",
"o  c #2A2624",
"O  c #252A25",
"+  c #2A2924",
"@  c #262629",
"#  c #2A262C",
"$  c #26292A",
"%  c #2A292B",
"&  c #312C23",
"*  c #332929",
"=  c #39342B",
"-  c #3C3B2D",
";  c #353227",
":  c #2D2A32",
">  c #292632",
",  c #322B34",
"<  c #332837",
"1  c #3C3C32",
"2  c #3C3739",
"3  c #44261C",
"4  c #45291D",
"5  c #5B2C1C",
"6  c #562917",
"7  c #59301E",
"8  c #452A22",
"9  c #4A2A23",
"0  c #42383A",
"q  c #503230",
"w  c #434134",
"e  c #4D4A3B",
"r  c #4A4637",
"t  c #514C3A",
"y  c #5C4A3E",
"u  c #4C4B37",
"i  c #3D3743",
"p  c #433A43",
"a  c #443948",
"s  c #523744",
"d  c #4D4748",
"f  c #534848",
"g  c #5D5946",
"h  c #4C4755",
"j  c #544B5B",
"k  c #544758",
"l  c #57505B",
"z  c #625E4B",
"x  c #635B54",
"c  c #624944",
"v  c #66634B",
"b  c #716F55",
"n  c #78755A",
"m  c #6C6954",
"M  c #5C4E63",
"N  c #5B5061",
"B  c #655A6B",
"V  c #66586A",
"C  c #6A5C73",
"Z  c #715C77",
"A  c #7D7A65",
"S  c #78687C",
"D  c #74707F",
"F  c #827E5D",
"G  c #9E5F7A",
"H  c #837E68",
"J  c #81777F",
"K  c #8A8566",
"L  c #9B9676",
"P  c #928D72",
"I  c #A59E7A",
"U  c #ABA47D",
"Y  c #7C6B85",
"T  c #7F7285",
"R  c #B55D83",
"E  c #847589",
"W  c #8A7694",
"Q  c #927D9D",
"!  c #806E87",
"~  c #AD6684",
"^  c #CE729A",
"/  c #DB6CA1",
"(  c #D778A8",
")  c #DD7BB1",
"_  c #EB6AA4",
"`  c #E46EA3",
"'  c #EC75AC",
"]  c #E476AE",
"[  c #F373AC",
"{  c #E47AB3",
"}  c #F470AC",
"|  c #8A868B",
" . c #989797",
".. c #978994",
"X. c #9EA39F",
"o. c #ABA585",
"O. c #B2AC84",
"+. c #BAB68B",
"@. c #BDB992",
"#. c #BEB694",
"$. c #A7A697",
"%. c #9C89A5",
"&. c #9B97A2",
"*. c #A38CAB",
"=. c #AB96B6",
"-. c #A893B3",
";. c #A6A6A6",
":. c #B9BABA",
">. c #B0B0B3",
",. c #AC9D86",
"<. c #C1BD8E",
"1. c #C3BD94",
"2. c #C6B99B",
"3. c #D987B7",
"4. c #D994B7",
"5. c #D586AF",
"6. c #E38FBB",
"7. c #D7A1BB",
"8. c #CAC59C",
"9. c #C9C597",
"0. c #D2CB9D",
"q. c #D4CA99",
"w. c #DED59C",
"e. c #DDD89E",
"r. c #E0D69E",
"t. c #E2DA9E",
"y. c #CECBA0",
"u. c #D3CBA3",
"i. c #D7CEA8",
"p. c #DDD6A1",
"a. c #DBD5A6",
"s. c #DCD4B0",
"d. c #E1D6A2",
"f. c #E4DBA3",
"g. c #E9DFA5",
"h. c #E2DDA9",
"j. c #E9DEAB",
"k. c #E4DDB3",
"l. c #EBE3A6",
"z. c #ECE3AB",
"x. c #E8E2AA",
"c. c #F0E5AE",
"v. c #F3EAAD",
"b. c #F0E7A6",
"n. c #ECE4B3",
"m. c #EEE9B2",
"M. c #ECE6B8",
"N. c #F1E6B2",
"B. c #F4ECB3",
"V. c #F8EEB4",
"C. c #F3ECBC",
"Z. c #FAEEBA",
"A. c #FBF2B6",
"S. c #FBF2BA",
"D. c #F6F1B7",
"F. c #B79CC2",
"G. c #BDA3CA",
"H. c #B9A6C7",
"J. c #BFBDC1",
"K. c #DB96C7",
"L. c #DB95CA",
"P. c #E195CF",
"I. c #C3A8CD",
"U. c #D6ABC4",
"Y. c #DCB7C9",
"T. c #C6ACD3",
"R. c #CEAEDD",
"E. c #C9ACD5",
"W. c #D2ADDC",
"Q. c #D8A3D5",
"!. c #CDB1DC",
"~. c #CCB4D5",
"^. c #D2B3DE",
"/. c #D3B9DE",
"(. c #C3B0CE",
"). c #E3A6D6",
"_. c #E5A9C6",
"`. c #CFAFE0",
"'. c #D1AEE1",
"]. c #CFB2E1",
"[. c #D4B4E3",
"{. c #D9B5E5",
"}. c #D5BAE4",
"|. c #D9BAE6",
" X c #D7B7E8",
".X c #DAB6EA",
"XX c #D7BAE9",
"oX c #DBBBEB",
"OX c #DFBFF0",
"+X c #E2BCEC",
"@X c #EBBDED",
"#X c #E1BEF1",
"$X c #E4ABE0",
"%X c #C5C6C5",
"&X c #D8D7D8",
"*X c #D7C9D2",
"=X c #ECE8C1",
"-X c #F6EEC2",
";X c #F8F2C2",
":X c #DBC1E6",
">X c #DEC2EB",
",X c #D7C2E1",
"<X c #DEC3F2",
"1X c #E1C1ED",
"2X c #E1C2ED",
"3X c #E4CAEE",
"4X c #E2C2F1",
"5X c #E4C4F4",
"6X c #EAC4F4",
"7X c #E4C9F3",
"8X c #E6C5F8",
"9X c #EAC5F8",
"0X c #ECECEC",
"qX c #E6ECEA",
"wX c #F1EBEE",
"eX c #EFECF2",
"rX c #F1ECF3",
"tX c #F2EDF3",
"yX c #F2EDF4",
"uX c #F1ECF3",
"iX c #F3E7F7",
"pX c #FBF6FA",
"aX c #FEFEFE",
"sX c #FEFEFE",
"dX c #FAFAF8",
"fX c #E7C1D6",
/* pixels */
"sXsXsXsXsXsXsXsXsXsXsXsXsXsXsXsXsXsXsXsXsXsXsXsXsXsXsXsXsXsXsXsXsXsXsXsXsXsXsXsXsXsXsXsXsXsXsXsXsXsXsXsXsXsXsXsXsXsXsXsXsXsXsXsX",
"sXdXuXuXtXtXtXtXtXtXtXtXtXtXtXtXtXtXtXtXtXtXuXtXtXtXtXtXtXtXtXtXtXtXtXtXtXtXtXtXeXtXtXtXtXtXtXtXtXtXtXtXtXtXtXuXtXtXtXtXtXtXsXsX",
"sXuX:X}.:X|.|.oX}.:X[.:X}.:X}.1X^.1X^.:X}.1X^.:X^.1X}.1X^.1X}.1X}.oX|.|.|.}.1X}.:X}.1X}.1X^.1X^.:X}.>X^.:X^.:X}.1X}.1X^.:X,XpXsX",
"sXiXoX}.oXoXoXoXoX#X[.#X X#X[.#X[.#X[.#X X#X X#X[.#X[.#X[.#X.X#X XoXoXoXoX.X#X[.#X X#X X4X[.#X X#X X#X X1X X4X X4X X#X X#X|.pXsX",
"sXuXoX XoXoXoXoX}.>X[.oX}.oX X4X[.>X[.oX[.>X[.OX[.>X[.>X^.>X[.>X XoX}.oXoX|.oX[.oX}.oX[.:X[.oX}.OX[.oX[.#X[.+X[.#X X>X[.4X|.pXsX",
"sXuXoX.XOXoXoXoX|.4X X1X X4X X4X X1X X1X X4X X4X X4X X4X}.4X X4X XoXoXoXoXoX1X X1X X1X X4X X4X X<X{.@X^.<X{.@X}.<X X4X X<X|.pXsX",
"sXtX|. XoXoXoXoX}.oX[.oX}.oX[.1X[.oX[.oX}.oX[.oX[.oX[.oX[.oX[.oX[.oX XoXoX XoX}.oX XoX[.>X[.oX[.@XK.] 4.+XL.] 3.+X[.oX[.OX}.pXsX",
"sXtX:XoX<XoXoX1X|.4X X4XoX4X X4X X4X X4X|.4X X5X X4X|.4X X4X|.4X|.4XoXoXoXoX4X|.4XoX4X X5X X4X X4XK.' K.@XK.' 3.5X X5X X4X:XpXsX",
"sXuX}.[.oX X XXX[.oX!.oX[.oX].oX[.oX^.oX[.oX[.oX^.oX[.oX[.oX[.oX[.oX X X X XoX[.oX[.oX^.oX^.oX[.oX3.} / ) / _ 5.oX[.oX[.oX}.pXsX",
"sXtX1XoX5X>X+X<X@X6X|.5X+X6XoX5XoX7XoX5XoX5XoX5XoX5XoX5X.X8XoX5XoX4XoX4X4XoX5XoX5XoX5XoX5XoX5XoX8XK.' ` [ ` ' 3.6XoX5XoX8X:XpXsX",
"sXuX}.[. X[.{.{.5.) )..X( ) Q.oXR.oXR.oXR.oXR.oXR.oX`.oXR.|.W.oXR.}.[. X X[.|.!.oXR.oXR.oXR.oXR.XXQ.).{ _ 5.Q.Q.XX`.oXR.oX/.pXsX",
"sXtX1XoX5X+X#X@X] ' $X6X] [ ).7XoX5XoX4XoX5XoX5XXX5XoX7XXX9XoX5XoX4XoX<X4XoX5X|.5XoX5XoX5XoX7XoX7X.X7XL.[ K.4XoX7XoX5XoX8X2XpXsX",
"sXuX[.'. X[.[.{./ ` ( { / ` L.oXR.oXR.oXR.oXR.oXR.oX-.M C |.'.oXW. X[. X X[.oX!.oX^.oXR.oXR.oXW.XX`.oXQ.).Q.XX'.oX`.oXR.oX/.pXsX",
"sXtX1XoX4X#X<X@X) [ _ ' _ ] ).7XoX6XoX5XXX7XoX5X.X5X*.# h 7X.X6XoX4X#X4X4XoX5XoX5XoX5XoX5XoX5XoX5XoX5X|.5XoX7XoX5XXX5XoX5X:XpXsX",
"sXeX}.[.}.{.[.{.Q.)./ ` K.).Q.oXR.|.W.|.W.oXQ l j j s 9 9 l j l V |.[.}.}.[.|.^.oX^.oXR.oXR.oXR..XR.XXR.oXR.oXR.oXR.oXR.oX/.pXsX",
"sXuX1XoX4X4X+X>XoX6X) [ ).7XoX9XoX9XoX4X|.8X! + X + . 5 9 + O + a >XOX>X4XOX8XoX5XoX5XoX5XoX5XoX9XoX5XXX5XoX5XoX8XoX5XoX5X:XpXsX",
"sXuX}.'..X}.^..X].oXK.L.W.XX!.|.R.oXQ C B C s 4 4 4 3 6 6 8 3 8 q B C B C E.oX!.oX^.oXR.oXR.|.R..XR.oXE.XXR.oXR.oXR.oXR.oX/.pXsX",
"sXtX>XoX4X1XoX4XoX6X|.4XoX8XoX5XXX7XS % X % * 7 5 5 6 5 5 5 6 7 9 & X X , ~.5XoX3XoX5XoX5X.X5XoX5XoX5X}.5XoX5XoX8XoX5XoX5X:XpXsX",
"sXuX[.[. X X}. X^.oXR.XX'.|.W Y S ! h X   4 4 5 6 5 6 6 6 6 6 6 6 4 & X # S Y Y Y I.oX^.oXR.oX`.oX`.oXR.oXR.oXR.oXR.oXR.oX/.pXsX",
"sXtX1XoX<X1XoX4XoX7XXX7XoX6Xd $ o * X + 4 5 6 5 6 5 5 5 5 5 6 5 5 5 9 o + X % X # (.5XoX5X|.5XoX5XoX5X}.5XoX7XoX5XoX5XoX5X:XpXsX",
"sXuX}.[.}. X[. X[.oX`.}.Q Q A n b n b n y 8 3 4 3 8 3 8 8 8 . 8 . 4 8 n n b n b n E Q G.oXR.oXR.oX`.oX!.oX`.oXR.oXR.oX`.oX/.pXsX",
"sXtX1XoX4X#XoX1XoX5XoX>Xa + @.A.z.S.l.S.K % X % X + X % X % o % $ $ & C.B.N.Z.z.C.0 # H.5XoX7XoX5XoX5X|.5XoX5XoX5XoX5XoX5X:XpXsX",
"sXuX}.[. X[.[. X[.oX*.&.x g <.l.r.z.w.x.L z g z g z g z g z g z g z v x.j.f.z.r.x.v x | *.G.}.!.oX!.XXR.oXR.oXR.oXR.oXR.oX/.pXsX",
"sXtX1XoX5X<X>X5X+X3Xi + u.S.l.A.l.A.x.S.z.S.x.S.x.S.z.S.z.S.z.S.c.V.m.B.V.N.A.z.S.z.;Xe # *.8X+X5XoX5XoX5X|.5XoX5XoX5XoX8X>XpXsX",
"sXeX}.[..X[.%.%.%.*.x v q.l.O.o.9.x.p.z.d.z.e.x.p.x.p.x.p.z.p.x.d.x.h.x.g.f.z.o.o.w.z.b v E *.%.*.F.oXR.oXR.oXR.oX`.oXR.oX/.pXsX",
"sXtX1XoX5X|.# % # o 0.S.x.S.t + U S.z.A.z.S.z.S.z.S.z.S.z.S.z.S.c.V.N.V.V.v.S.- & u.A.c.;Xz % O % E 4XoX5XoX5XoX5XoX5XoX5X:XpXsX",
"sXuX[.E.=.=.t e e t 9.l.@.9.z f O.x.w.z.r.z.r.x.w.z.r.z.d.z.r.l.r.x.r.g.j.t.z.g t o.1.q.n.b e e e S =.G.oXR.oX`.oXR.|.R.oX/.sXsX",
"sXtX>XE.# * m.C.m.S.l.C.w o @.S.x.S.x.S.z.S.x.S.z.S.z.A.z.A.z.S.v.Z.v.V.V.v.A.z.-X-   2.S.z.S.z.;XH # E 5XoX5XoX5XoX5XoX5X:XpXsX",
"sXtX}.I.# % x.z.g.N.f.M.1 X +.m.f.m.t.c.u.i.u.b.f.N.h.m.p.i.u.m.g.z.g.x.x.u.i.f.n.- O @.N.d.N.f.b.H + T oX[.oX[.oX[.oX[.oX}.pXsX",
"sXtXoXI.# , m.N.z.Z.j.C.0 O @.Z.j.V.g.V.K + K v.j.V.x.Z.1.  t C.l.N.c.c.n.= o 0.B.1 O <.V.x.C.j.V.H % E 4X X4X X4X X4X X5X:XpXsX",
"sXtXoXI.% & z.b.j.N.w.k.r & +.v.g.B.g.C.K & K v.d.n.a.v.@.+ f M.j.k.h.x.h.- & q.m.w & @.n.g.v.f.v.A % E oX[.OX[.OX[.OX[.OX|.sXsX",
"sXeXoXG.# & n.b.l.B.w & 8.M.h.v.f.B.g.N.h.M.h.N.L + v v.@.X t B.9.. ; M.m.n.M.g.B.k.=Xe & O.v.f.v.A + ! >X}.+X[.4X X4X X4X|.pXsX",
"sXtX:XT., * =XM.n.-X2 % 0.V.l.A.x.A.z.A.l.V.l.Z.L + z C.2.* f =X8.. ; C.V.c.V.z.V.z.-Xe % $.C.k.C.H * W 4X|.4XoX5X X5XoX5X:XpXsX",
"sXwX|.[.~.I.= ; ; = O   8.c.d.c.d.c.d.z.d.z.d.z.p.s.o.; q ^ G = u s.i.x.l.j.N.f.c.f.M.r X & = = = S ~.E.oX^.oX^.oX[.oX`.oX}.pXsX",
"sXwXoXoX+X}.: % % : > + 9.V.g.V.j.v.l.V.g.V.f.V.l.V.O.X s ' R < w B.z.m.b.z.V.l.v.l.C.e # # % : , W 1X}.5X X4X X5X X4X X5X:XpXsX",
"sXeX|. X|.}.T.~.T.~.i + 8.m.f.N.f.m.t.c.d.m.f.N.d.N.o.$ s ' R # 0 x.x.x.z.g.c.f.m.t.M.r $ ..^.I.!.E.oX^.oX[.oX[.oX[.oX[.oX|.pXsX",
"sXtX1XoX5X#X#X5XoX7Xa o u.S.z.S.l.A.x.S.x.S.z.S.z.S.O.X q { ~   w D.N.V.V.N.S.z.S.z.;Xe # *.8XXX5X|.5X|.5XXX8XoX5XoX5XoX5X:XpXsX",
"sXuX}.[..X[.[.{.^.|.G.H.f w - w o.z.r.z.r.z.w.z.r.z.w.y.,.0 c 0.8.l.f.x.l.f.z.u w - 1 %.H.T.oX!.oXR.oXR.oXR.oX`.oXR.oXR.oX/.pXsX",
"sXtX1XoX4X1X1X1XoX6XoX<Xa #   + o.A.z.A.z.S.z.A.z.A.z.A.2.$ t Z.n.V.v.V.V.N.S.- # o % H.7XoX9X}.5XoX5XoX5XoX5XoX8XoX5XoX5X>XpXsX",
"sXuX}.[.}. X[. X[..XW.}.0 # P +.q.z.r.z.e.z.r.z.w.x.d.z.q.+.+.z.d.x.g.g.a.g g o.+.O.+.x j =.|.! j h j Q oXW..X!.oX`.oX`.oX/.pXsX",
"sXtX2XoX4X4X1X4XoX8XoX3Xp   1.S.z.S.z.A.z.S.z.S.z.S.z.S.z.S.z.S.c.D.N.V.M.= o i.V.m.D.e # -.5XZ o o # W 5XoX5XoX6XoX5XoX8X:XpXsX",
"sXuX^.'.}.}.[. X[.|.Z V P U q.z.w.l.w.x.d.z.r.x.r.x.r.z.r.z.r.z.d.l.h.g.x.I I w.l.d.z.r @ %..X=.%.N o a B V B W XXR.oXR.oX/.pXsX",
"sXtX1XoX4X1XoX4X+X3Xa   u.S.z.S.z.S.z.S.z.S.x.S.z.S.z.S.z.S.z.S.c.V.N.B.V.b.A.z.V.M.;Xd $ -.5X}.7XY % $ % O $ B 3XoX5XoX5X:XpXsX",
"sXuX}.'.|. X}. X[.XXi o 1.z.w.x.w.z.r.z.d.l.w.z.w.z.d.z.d.z.w.z.d.x.g.g.g.f.j.r.x.b m E %.G.oXW B J ;. .;. .;.| B Y oXR.oX/.pXsX",
"sXtX:XoX1XoXoX4XoX7Xi + 0.A.z.A.x.S.l.A.n.S.x.S.z.S.z.S.z.S.z.S.c.V.N.B.V.N.D.z.-X1 # F.5XoX4XC # | sX0XsX0XsX;.+ k 7X|.7X:XpXsX",
"sXuX}.[.}. X}. X[.oX2 o 9.x.d.z.L A n n U x.w.x.r.z.d.z.r.z.r.z.d.x.f.g.h.F n n A T W I.|.Q S E  .>.qX&X0X&XqX%X .| S W XX/.pXsX",
"sXtX1XoX4XoXoX1XoX7Xi o 0.S.z.S.v + X # K V.x.A.l.A.z.S.z.S.z.A.z.V.v.B.M.; # @ > T.5X|.2XN + X.sX0XsX0XsX0XdX0XsX:.% k 5X:XpXsX",
"sXuX^.[.}.}.[. X[.oX2 o 1.z.r.x.z @ t n H P O.z.r.z.r.z.r.z.r.z.d.l.g.h.h.F A % @ G.|.R.oXj    .0X*XY.*X0X*XY.Y.0X>.O k oX/.pXsX",
"sXuX1XoX4X4X4X5XOX7Xi + 0.A.z.A.v # L A.K : K A.z.A.z.S.z.S.c.S.c.V.B.V.V.v.S.1 # T.5XoX5Xl O X.sX_.[ _.dXY.[ 4.sXJ.% j 5X:XpXsX",
"sXuX}.'. X X X X'.XXi + 9.l.a.z.K v U j.I m L z.d.x.r.z.r.z.r.z.d.x.g.l.l.f.z.= # G.oXR.oXj O  .0X7.` 4.fX4._ 4.0X>.X h oX/.pXsX",
"sXtX1XoX5X1XoX4XoX3Xp + 0.A.z.A.z.S.z.S.z.S.x.A.l.A.z.S.z.S.z.S.c.V.N.B.B.N.S.1 # T.5XoX5XN O ;.sX_.' _ [ _ [ 6.sXJ.% j 5X:XpXsX",
"sXuX}.^.}.}.[.}.[.oXM k o.#.q.z.p.z.p.x.e.z.p.z.w.x.r.z.w.z.e.z.d.x.f.g.x.f.z.- # G.oXR.oXj O  .qXU.4.( ` / 4.7.0X>.% h oX/.pXsX",
"sXtX1XoX1X4X1X4XoX6XoX5Xp + <.A.x.S.z.D.z.Z.x.S.z.S.z.A.z.A.c.A.z.Z.N.V.V.N.S.1 # T.5X.X7XN X ;.sX0XpX_.[ _.sX0XsX:.O j 9X>XpXsX",
"sXuX}.'. X}.[. X'.oXR.|.2 @ +.z.d.z.d.n.9.#.O.@.O.@.O.@.O.@.@.n.d.z.g.g.g.+.#.l k I.oX'.oXS k | :.%X0XU.4.U.0X*X:. .k Z oX/.pXsX",
"sXtX1XoX4X1XoX4XoX7X|.2Xp + @.A.z.S.z.A.K X X % X # X $ X $ t S.z.V.v.B.=X; @ T.5XoX5X.X6X|.3XC $ | sXeXsXwXsX;.$ k 7X|.5X>XpXsX",
"sXtX|.[.oX X XoX[.oX^.oXk p o.y.1.y.1.y.H a p p 0 p p p 0 p x u.9.8.9.9.9.r p I.oX[.oX^.oX'.|.Y a E *X%X&X%X*X .a V oX'.oX}.pXsX",
"sXtX:XoX>XoXoX1XoX4X|.5X}.<Xh +   + X + Y <X}.4X}.4X}.4X}.4X=.o   + O + , ~.<X|.4X.X5X|.5X X1X|.2XD # o % X % V 2X|.2X X5X:XdXsX",
"sXtX|. XoX|. XoX XoX[.oX[.1Xk : : < : < ! oX[.oX[.oX[.oX[.oX=.< : , : , < ~.oX[.oX}.oX}.oX[.oX[.+XY , , < : < V >X[.oX[.oX}.pXsX",
"sXtXoX.XoXoXoXoXoX4X X1X X#X}.>X[.4X}.>X}.4X X4X X4X X4X[.4X X2X}.:X|.:XoXoX4X XoX X4X X4X}.4X[.4X}.>X}.>X}.>X|.4X X4X X4X:XpXsX",
"sXtX:XoX1XoXoXoXoX4X}.4X|.4X X5X.X#X.X4X X4X X4X X4X X4X X4X X5X.X#XoX#XOXoX4X X4X X4X X4X X4X X4X|.4X.X#X.X5X X4X X4X X4X:XpXsX",
"sXeX}.[.oX.X XoX}.oX[.oX[.oX[.+X[.oX[.oX[.oX[.oX[.oX[.oX[.oX].oX[.oX.X|.|. XoX[.oX[.oX[.oX'.oX[.oX[.oX[.oX[.+X!.oXW.oX^.oX/.pXsX",
"sXuX,X|.+XoX|.oX|.1X}.>X}.>X X>X[.1X}.1X}.1X}.:X[.1X}.>X[.1X}.>X}.>XoXoXoX|.>X}.1X X>X}.>X}.>X}.1X}.1X}.>X}.1X[.1X}.1X}.1X,XpXsX",
"sXpXuXiXuXtXtXtXuXtXeXtXuXtXuXuXeXtXuXtXuXtXeXuXeXtXuXtXeXtXuXtXeXtXeXeXeXeXtXuXtXuXtXuXtXuXtXuXtXuXtXtXtXeXtXeXtXuXtXuXuXuXdXsX",
"sXsXsXsXsXsXsXsXsXsXsXsXsXsXsXsXsXsXsXsXsXsXsXsXsXsXsXsXsXsXsXsXsXsXsXsXsXsXsXsXsXsXsXsXsXsXsXsXsXsXsXsXsXsXsXsXsXsXsXsXsXsXsXsX"
};
